<?xml version="1.0" encoding="UTF-8"?>
<svg version="1.1" xmlns="http://www.w3.org/2000/svg" width="842" height="595">
<path d="M0 0 C2.99629689 2.51514596 5.87427601 5.14102803 8.703125 7.84375 C10.97579673 10.04331717 10.97579673 10.04331717 13.53125 11.97265625 C26.4418363 22.5748624 35.14829538 39.00002022 42 54 C42.80244141 55.73636719 42.80244141 55.73636719 43.62109375 57.5078125 C62.83632192 102.12706959 65.91545644 167.29849389 59 215 C58.67 215.66 58.34 216.32 58 217 C58.76957031 216.76023438 58.76957031 216.76023438 59.5546875 216.515625 C84.04913283 211.35066209 111.51602418 222.51844555 132 235 C134.71734219 236.84899041 137.33152223 238.77909634 139.9375 240.78125 C143.16275187 243.11791207 146.48227115 245.19498463 149.87475586 247.27709961 C178.63522527 264.93890921 178.63522527 264.93890921 183.52734375 279.9375 C184.99265264 286.33157515 184.36123224 291.78900765 181.4609375 297.671875 C174.75104271 308.36464852 165.14887894 316.91296525 153.03515625 320.59765625 C150.69010828 321.06126458 148.5150386 321.1324456 146.125 321.125 C145.30257813 321.12757813 144.48015625 321.13015625 143.6328125 321.1328125 C140.69809835 320.98477054 137.89313949 320.50170337 135 320 C134.84999039 320.96401891 134.69998077 321.92803782 134.54542542 322.92126942 C130.98400885 345.77643451 127.25963352 368.59741029 123.33906937 391.39358687 C122.64339897 395.44195229 121.9506756 399.4908222 121.25756836 403.53962708 C119.94941662 411.17872849 118.63879577 418.81740394 117.32718945 426.45591289 C115.85406703 435.03578509 114.38377745 443.61614196 112.91371727 452.19653928 C111.23532773 461.99266633 109.55682293 471.78877387 107.87600803 481.58448511 C107.61941149 483.08014356 107.36293785 484.57582311 107.10658932 486.07152408 C106.48304999 489.70851242 105.85731946 493.34509524 105.22673035 496.98086834 C104.06133326 503.71390609 102.91931115 510.44873088 101.85046864 517.197864 C101.34311338 520.39311172 100.82379322 523.58636683 100.30361748 526.77954924 C100.06110213 528.28940719 99.82437344 529.80020854 99.59407234 531.31197774 C96.67184576 550.47406555 96.67184576 550.47406555 89.69420147 557.23378372 C84.5251385 560.41804412 78.05543218 559.55268417 72.2011261 559.5146637 C70.77502241 559.51999041 69.34892434 559.52705683 67.92283696 559.53571075 C64.00852119 559.55434783 60.09458348 559.54802966 56.18025196 559.53755772 C51.95732309 559.53056894 47.73447215 559.54656093 43.51156616 559.55955505 C35.24153054 559.58120355 26.97163247 559.58106636 18.70157782 559.57292951 C11.98262493 559.56663275 5.2637122 559.56776355 -1.45524025 559.57420158 C-2.41106077 559.57510324 -3.36688129 559.57600489 -4.35166607 559.57693387 C-6.29328468 559.57878504 -8.23490328 559.5806476 -10.17652187 559.58252143 C-28.38491845 559.59910198 -46.59323754 559.59037756 -64.80162946 559.57353585 C-81.47322753 559.55882914 -98.14464554 559.5734805 -114.81622043 559.60230602 C-131.92596231 559.63166948 -149.035621 559.64268183 -166.14538699 559.63312382 C-168.07899366 559.63210123 -170.01260035 559.63110663 -171.94620705 559.6301403 C-172.89763303 559.62966391 -173.84905901 559.62918752 -174.82931608 559.6286967 C-181.54411203 559.62652905 -188.25882949 559.63635492 -194.97360802 559.65091133 C-203.15086938 559.66839072 -211.32790087 559.66838036 -219.50515302 559.64555968 C-223.67978156 559.63437892 -227.85400443 559.63134108 -232.02861595 559.64986038 C-235.84622675 559.6665787 -239.66307535 559.66043356 -243.48063598 559.63564359 C-244.86542341 559.63073129 -246.25027133 559.63435437 -247.63500854 559.64713103 C-249.50982416 559.66318835 -251.38483892 559.64575441 -253.25962353 559.62641239 C-254.30326004 559.6261427 -255.34689656 559.62587301 -256.42215842 559.62559515 C-259 559 -259 559 -260.81771982 556.59464884 C-261.89552512 554.22928204 -262.58824062 552.22823138 -263.06138611 549.68370056 C-263.22167486 548.84868358 -263.38196362 548.01366659 -263.5471096 547.15334606 C-263.79243903 545.79341266 -263.79243903 545.79341266 -264.04272461 544.40600586 C-264.22600626 543.43547177 -264.40928791 542.46493769 -264.59812355 541.46499348 C-265.20904158 538.21664452 -265.8056567 534.96583447 -266.40234375 531.71484375 C-266.83622227 529.39158518 -267.2709709 527.06848895 -267.70652771 524.74554443 C-268.88358632 518.45405281 -270.04826597 512.16032599 -271.21068573 505.86611557 C-272.30131627 499.97098074 -273.4011285 494.07756234 -274.5007863 488.18410647 C-276.91398791 475.24864188 -279.31424892 462.31080069 -281.70927811 449.37196064 C-281.96465003 447.99235797 -282.22002494 446.61275586 -282.47540283 445.2331543 C-282.60159099 444.55146091 -282.72777915 443.86976752 -282.85779119 443.16741675 C-284.23325845 435.73809978 -285.61232894 428.30945251 -286.99169922 420.88085938 C-292.67764147 390.25695072 -298.34846572 359.63027742 -304 329 C-304.82089111 328.83918945 -305.64178223 328.67837891 -306.48754883 328.51269531 C-309.58843055 327.90085432 -312.68760211 327.28108927 -315.78588867 326.65625 C-317.76427717 326.25966664 -319.74442841 325.87190917 -321.72460938 325.484375 C-333.58756446 323.08175119 -345.36424239 320.28650721 -354.375 311.75 C-358.04110683 305.54581921 -358.51740684 301.03791866 -356.80297852 293.90673828 C-354.2934615 284.85814263 -350.39385064 277.94245478 -344 271 C-343.47647949 270.42040527 -342.95295898 269.84081055 -342.41357422 269.24365234 C-322.92651334 247.9417574 -298.25570517 233.44226757 -271.23486328 223.82421875 C-266.00436029 221.8952065 -260.98317087 219.49158544 -256 217 C-253.74879258 216.91426606 -251.49500697 216.89287812 -249.2421875 216.90234375 C-248.24761032 216.90446617 -248.24761032 216.90446617 -247.23294067 216.90663147 C-245.11358137 216.91223246 -242.99432741 216.924785 -240.875 216.9375 C-239.43880361 216.94251488 -238.00260556 216.94707781 -236.56640625 216.95117188 C-233.04423655 216.96220218 -229.52212855 216.97946741 -226 217 C-227.29677372 201.91100794 -227.29677372 201.91100794 -229.52954102 186.94018555 C-237.19135191 139.0568495 -232.03992461 68.41347185 -203.85546875 27.5234375 C-203.24316406 26.69070312 -202.63085938 25.85796875 -202 25 C-200.91138672 23.47246094 -200.91138672 23.47246094 -199.80078125 21.9140625 C-177.85960953 -8.21727733 -143.51857653 -26.21858526 -107 -32 C-67.95217164 -37.8225646 -30.46765182 -24.26188078 0 0 Z M-120 15 C-120.76554199 15.30615234 -121.53108398 15.61230469 -122.31982422 15.92773438 C-141.91312921 23.90020879 -156.23128527 32.40720096 -164.87353516 52.36889648 C-182.80897948 95.14168986 -189.10517319 136.3190011 -189.25 182.5625 C-189.2554483 183.64033752 -189.26089661 184.71817505 -189.26651001 185.82867432 C-189.27825579 188.9497213 -189.27459884 192.07035671 -189.265625 195.19140625 C-189.26956772 196.11759262 -189.27351044 197.04377899 -189.27757263 197.99803162 C-189.23075501 204.72641979 -188.24142787 210.17214674 -187 217 C-119.68 217 -52.36 217 17 217 C17.63820447 212.53256869 18.12707921 208.76861116 18.14526367 204.3605957 C18.15153778 203.2948381 18.15781189 202.22908051 18.16427612 201.13102722 C18.16549469 199.99079605 18.16671326 198.85056488 18.16796875 197.67578125 C18.17224884 196.47282913 18.17652893 195.26987701 18.18093872 194.0304718 C18.19094674 190.12444357 18.19098833 186.21853866 18.1875 182.3125 C18.18708584 181.64919426 18.18667168 180.98588852 18.18624496 180.3024826 C18.94760805 136.63392794 18.94760805 136.63392794 11 94 C10.70818848 93.03707031 10.41637695 92.07414062 10.11572266 91.08203125 C4.56853966 72.89303434 -1.53441782 55.63450215 -14 41 C-14.53882813 40.34902344 -15.07765625 39.69804688 -15.6328125 39.02734375 C-32.4429766 20.48547933 -62.56445244 12.43136392 -86.69824219 10.81982422 C-98.37826376 10.25661544 -109.0183718 10.59313302 -120 15 Z M147 311 C151 312 151 312 151 312 Z " fill="#040404" transform="translate(498,36)"/>
<path d="M0 0 C0.65575012 0.28331177 1.31150024 0.56662354 1.98712158 0.85852051 C8.91514612 3.85839086 15.7929586 6.90292049 22.5 10.375 C22.37493073 10.98543655 22.24986145 11.59587311 22.1210022 12.22480774 C20.92401649 18.12837572 19.83593144 24.04063856 18.8359375 29.98046875 C18.6830275 30.88129684 18.53011749 31.78212494 18.37257385 32.71025085 C17.87203954 35.66077471 17.37353386 38.61163754 16.875 41.5625 C16.52042016 43.65448616 16.16568088 45.74644531 15.81079102 47.83837891 C15.07359595 52.18462781 14.33708521 56.53099184 13.60107422 60.87744141 C12.05105529 70.02805903 10.49322175 79.17734463 8.93518066 88.32659912 C8.4378774 91.24778315 7.94104785 94.1690474 7.44433594 97.09033203 C5.80802343 106.71132862 4.16548381 116.33120596 2.51171875 125.94921875 C2.03473974 128.72746067 1.55789416 131.50572547 1.08108521 134.28399658 C0.64134375 136.84241206 0.19949977 139.40045817 -0.24243164 141.95849609 C-1.62833911 150.01851137 -2.9302484 158.06703908 -3.97705078 166.17944336 C-4.5948612 169.95466306 -5.57219508 173.66378032 -6.5 177.375 C-11.45 206.58 -11.45 206.58 -16.5 236.375 C-122.43 236.375 -228.36 236.375 -337.5 236.375 C-340.47 220.205 -343.44 204.035 -346.5 187.375 C-349.86797662 169.83338502 -349.86797662 169.83338502 -353.2421875 152.29296875 C-355.83860776 138.73864085 -358.26650469 125.15437977 -360.6932373 111.56884766 C-363.79613424 94.20015186 -367.02190272 76.85849539 -370.33081055 59.52801514 C-371.91852117 51.20088042 -373.45647909 42.8646356 -374.99121094 34.52758789 C-375.1771582 33.51817139 -375.36310547 32.50875488 -375.5546875 31.46875 C-375.71437012 30.59927734 -375.87405273 29.72980469 -376.03857422 28.83398438 C-376.50592236 26.34343916 -376.99801936 23.85877577 -377.5 21.375 C-372.67009384 17.90157812 -367.85220129 14.52223851 -362.6875 11.5625 C-355.80183242 7.51594654 -348.72251278 2.53476077 -343.02148438 -3.08154297 C-340.3169125 -5.67596175 -338.9762626 -6.6216421 -335.17578125 -6.6484375 C-330.87412273 -5.45073874 -326.81063762 -3.95418327 -322.6875 -2.25 C-317.90881866 -0.29376618 -313.16486785 1.52540505 -308.20825195 2.98681641 C-307.32224808 3.24911041 -306.4362442 3.51140442 -305.52339172 3.78164673 C-304.85567245 3.97745331 -304.18795319 4.17325989 -303.5 4.375 C-303.49576806 5.20713925 -303.49153612 6.03927851 -303.48717594 6.8966341 C-303.38395758 27.12648666 -303.27533311 47.35630386 -303.16066074 67.58609486 C-303.10533744 77.36898917 -303.05185689 87.15188713 -303.00268555 96.93481445 C-302.95983279 105.45969759 -302.91355201 113.98455397 -302.86312145 122.50939578 C-302.83652933 127.02494541 -302.81167645 131.54048976 -302.79092598 136.05607033 C-302.77135307 140.3036267 -302.74720728 144.55113219 -302.71950912 148.79864311 C-302.71014217 150.35994163 -302.7024656 151.92125131 -302.69658089 153.48256683 C-302.68831368 155.60979722 -302.6740353 157.7369043 -302.65821838 159.86408997 C-302.65176583 161.05596829 -302.64531328 162.24784662 -302.6386652 163.47584248 C-302.62779413 166.44252338 -302.62779413 166.44252338 -301.5 169.375 C-270.50089263 169.31590772 -239.50186729 169.24159937 -208.5028527 169.14601372 C-204.84410592 169.1347454 -201.18535875 169.12360697 -197.52661133 169.11254883 C-196.79821288 169.11034514 -196.06981442 169.10814146 -195.31934329 169.105871 C-183.52132145 169.07048733 -171.72329968 169.04562924 -159.92524443 169.02465298 C-147.82161495 169.00289943 -135.7180544 168.96985329 -123.61448354 168.92629844 C-116.1444069 168.89977397 -108.67441617 168.88208448 -101.20429476 168.87565396 C-95.47862347 168.86978217 -89.75309498 168.8482078 -84.02749062 168.82072449 C-81.67688351 168.81191229 -79.32625087 168.80822822 -76.9756279 168.80999184 C-73.77167599 168.81163707 -70.56832576 168.79500896 -67.36445618 168.77372742 C-65.96221541 168.78099878 -65.96221541 168.78099878 -64.53164655 168.78841704 C-59.72241373 168.73552891 -56.37613132 168.5621579 -52.5 165.375 C-51.02926461 162.43352921 -51.35832557 159.81393372 -51.34178162 156.52877808 C-51.33437465 155.46040764 -51.33437465 155.46040764 -51.32681805 154.37045395 C-51.31139966 151.97206938 -51.30307073 149.57371167 -51.29467773 147.17529297 C-51.28510262 145.46073163 -51.27509276 143.74617266 -51.26467896 142.03161621 C-51.23758411 137.36660935 -51.21659939 132.70159232 -51.19667697 128.03655005 C-51.17484561 123.16514567 -51.14744301 118.29377279 -51.12062073 113.4223938 C-51.07065522 104.19307654 -51.02573073 94.96374183 -50.98259836 85.73439038 C-50.93325892 75.22908174 -50.8783286 64.7238047 -50.82291877 54.2185266 C-50.70903951 32.60404715 -50.60221345 10.98953756 -50.5 -10.625 C-48.75797387 -11.13640279 -47.0130995 -11.63810966 -45.26708984 -12.13574219 C-43.81005142 -12.55638947 -43.81005142 -12.55638947 -42.32357788 -12.98553467 C-28.92272981 -16.02047053 -12.09560282 -5.22968222 0 0 Z " fill="#FEFEFE" transform="translate(591.5,337.625)"/>
<path d="M0 0 C1.15873166 -0.00567981 2.31746333 -0.01135963 3.51130807 -0.01721156 C4.54534118 -0.02446889 5.57937428 -0.03172622 6.64474171 -0.03920346 C22.54080302 0.31846908 39.58457464 9.76526923 53.38103139 17.02236497 C53.38103139 17.68236497 53.38103139 18.34236497 53.38103139 19.02236497 C54.0904186 19.27816331 54.79980581 19.53396165 55.5306896 19.79751146 C60.36974313 21.87695742 64.55178183 24.98161629 68.8900646 27.94204271 C70.54044403 29.06574106 72.19993603 30.1760181 73.85954702 31.28603685 C96.35005851 46.56337529 96.35005851 46.56337529 99.03728139 56.43252122 C99.8057291 61.33137533 99.72708003 64.98051368 96.81462514 69.23330247 C89.41027002 78.47361486 83.52552379 84.62443779 71.38103139 86.02236497 C61.23497244 86.69970966 53.35411372 84.89691019 44.58806264 79.91298997 C35.34908263 74.84846752 25.80273325 70.77800211 16.06853139 66.77236497 C14.41652674 66.08561489 12.76483301 65.39811638 11.11345327 64.70986497 C7.9599654 63.39654346 4.8036931 62.09031907 1.64494741 60.78969896 C-1.02030149 59.69032047 -3.67624321 58.57355226 -6.32233775 57.42885911 C-7.38702281 56.97116136 -8.45170786 56.51346361 -9.54865611 56.04189622 C-10.89999644 55.45178758 -10.89999644 55.45178758 -12.27863657 54.84975755 C-16.00803566 53.5312792 -18.93530355 53.99912468 -22.61896861 55.02236497 C-23.56771861 55.22861497 -24.51646861 55.43486497 -25.49396861 55.64736497 C-34.20857307 57.70718058 -42.44402368 60.77763896 -50.80646861 63.95986497 C-61.93333926 68.18441101 -72.97996359 71.56124817 -84.61896861 74.02236497 C-85.83471568 74.29729784 -85.83471568 74.29729784 -87.07502329 74.5777849 C-92.68365175 75.79608801 -98.00739752 76.3762184 -103.74396861 76.33486497 C-104.55873667 76.33067552 -105.37350474 76.32648607 -106.21296275 76.32216966 C-127.32393797 75.93635617 -147.5728014 69.11393458 -163.18146861 54.64736497 C-165.4698587 52.79160586 -165.4698587 52.79160586 -168.06428111 53.04580247 C-171.17616861 54.23536192 -173.71082481 55.81318115 -176.49396861 57.64736497 C-207.43982414 77.30588393 -243.02026692 80.53281548 -278.37287486 73.24892747 C-290.90039181 70.19753228 -304.08150645 65.79109605 -315.61896861 60.02236497 C-319.82091702 59.61433134 -319.82091702 59.61433134 -323.54084361 61.31533372 C-324.14412486 61.94052904 -324.74740611 62.56572435 -325.36896861 63.20986497 C-334.6713358 72.05499717 -345.62272466 79.88845195 -357.11506236 85.60830247 C-360.06346526 87.27339116 -362.50071719 89.31665496 -365.11896861 91.45986497 C-368.74280429 94.11802215 -371.01972422 95.59085717 -375.55646861 95.27236497 C-377.58638836 94.90249437 -379.606268 94.47669388 -381.61896861 94.02236497 C-383.17920446 93.73454783 -384.74050732 93.45248326 -386.30256236 93.17470872 C-412.90066473 88.31887603 -412.90066473 88.31887603 -420.61896861 82.02236497 C-421.23771861 81.58923997 -421.85646861 81.15611497 -422.49396861 80.70986497 C-424.76116987 77.30906308 -423.8759762 73.61968099 -423.25568736 69.76455247 C-418.16122424 48.20838881 -394.19860923 33.16045775 -376.49396861 22.20986497 C-366.36026308 16.06841986 -355.97255119 11.34387603 -344.78693736 7.39345872 C-341.77233142 6.23816575 -341.77233142 6.23816575 -340.030783 4.81719226 C-333.78360202 0.09141655 -327.81894158 0.31830841 -320.21633494 0.38312852 C-318.85749986 0.37681039 -317.4986735 0.36830357 -316.13986427 0.35780829 C-312.42031636 0.33537037 -308.70139132 0.34384225 -304.98182464 0.35749388 C-300.96458333 0.36677526 -296.94746878 0.3471988 -292.93026316 0.33117235 C-285.9720687 0.30734588 -279.01405136 0.30172071 -272.05582201 0.30851877 C-261.98134452 0.31833379 -251.90706265 0.30055661 -241.83261683 0.27615146 C-225.46785802 0.23725654 -209.10315523 0.22059917 -192.73835337 0.21792161 C-176.8760193 0.21527877 -161.01375103 0.20220105 -145.15143931 0.17495286 C-144.1751828 0.17327949 -143.19892629 0.17160611 -142.19308624 0.16988202 C-137.29349216 0.16141968 -132.39389845 0.15275325 -127.4943049 0.14398932 C-96.7498175 0.08922054 -66.00534675 0.05055153 -35.26081431 0.03481615 C-34.48495844 0.03441902 -33.70910257 0.03402189 -32.90973592 0.03361273 C-12.20147491 0.02320346 -12.20147491 0.02320346 -6.97345567 0.0254972 C-4.64895592 0.02332672 -2.32445637 0.01436498 0 0 Z " fill="#FEFEFE" transform="translate(573.6189686059952,261.9776350259781)"/>
<path d="M0 0 C0.69222656 0.54527344 0.69222656 0.54527344 1.3984375 1.1015625 C19.73526715 15.23469207 39.87550909 21.84751533 62.875 21.5 C63.61901062 21.49346405 64.36302124 21.4869281 65.12957764 21.48019409 C83.08879405 21.29567006 97.36278008 17.60454873 114.03369141 10.99829102 C115.00999512 10.61213623 115.98629883 10.22598145 116.9921875 9.828125 C117.86214355 9.4765332 118.73209961 9.12494141 119.62841797 8.76269531 C122 8 122 8 126 8 C126 46.94 126 85.88 126 126 C117.02973169 119.27229877 117.02973169 119.27229877 113.8515625 116.59765625 C113.16167236 116.02104248 112.47178223 115.44442871 111.76098633 114.8503418 C111.05611084 114.260354 110.35123535 113.67036621 109.625 113.0625 C103.59882977 108.06745567 97.55647092 103.28850928 91 99 C89.99453125 98.319375 88.9890625 97.63875 87.953125 96.9375 C56.97389831 76.2133085 19.94153084 62.23930908 -17.79638672 69.12695312 C-48.21563153 75.63306126 -73.1424666 92.41447683 -95 114 C-96.06220393 115.03546005 -97.1246828 116.07063817 -98.1875 117.10546875 C-102.61349787 121.15558777 -102.61349787 121.15558777 -106 126 C-106.66 126 -107.32 126 -108 126 C-108 91.35 -108 56.7 -108 21 C-103.38 21.66 -98.76 22.32 -94 23 C-89.16275139 23.35185366 -84.34938597 23.38136778 -79.5 23.375 C-77.55202515 23.37258301 -77.55202515 23.37258301 -75.56469727 23.37011719 C-64.04544617 23.22549738 -53.16907403 21.75536628 -42 19 C-40.79859375 18.71125 -39.5971875 18.4225 -38.359375 18.125 C-24.74563773 14.36948627 -11.96221947 7.37554958 0 0 Z " fill="#FDFDFD" transform="translate(405,324)"/>
<path d="M0 0 C0.68513672 0.18272461 1.37027344 0.36544922 2.07617188 0.55371094 C21.21521507 5.82777307 38.64087725 15.52284125 54 28 C54.61488281 28.49677246 55.22976563 28.99354492 55.86328125 29.50537109 C91.586824 58.6185792 103.55757093 98.61399921 108.125 143 C108.79014128 149.66303063 109.40334199 156.33053193 110 163 C110.06272095 163.69170288 110.12544189 164.38340576 110.19006348 165.09606934 C111.52768042 179.91620501 112.18570296 194.68775469 112.25 209.5625 C112.25535767 210.25269226 112.26071533 210.94288452 112.26623535 211.6539917 C112.31787116 220.34888766 111.66894684 228.46320446 110 237 C102.08 237 94.16 237 86 237 C86.16113281 234.74414062 86.32226562 232.48828125 86.48828125 230.1640625 C87.257596 217.91275943 87.19778719 205.64553723 87.1875 193.375 C87.18722809 192.16055206 87.18695618 190.94610413 87.18667603 189.69485474 C87.17198261 175.42637226 87.08577733 161.18096324 86.1875 146.9375 C86.11748779 145.79007324 86.04747559 144.64264648 85.9753418 143.46044922 C85.03060505 130.93868419 81.93001308 119.01121499 78.1875 107.0625 C77.83494141 105.93223389 77.48238281 104.80196777 77.11914062 103.63745117 C68.49740307 76.37374885 56.80915261 51.73770307 30.48046875 37.74609375 C25.4150509 35.20485719 20.30905473 32.9792842 15 31 C14.09378906 30.65324219 13.18757812 30.30648437 12.25390625 29.94921875 C6.06549814 27.72619836 -0.20542533 26.18718287 -6.625 24.8125 C-7.40045166 24.64548584 -8.17590332 24.47847168 -8.97485352 24.30639648 C-24.50482385 21.12307204 -44.0475434 18.92999055 -59 25 C-59.68626465 25.26876953 -60.3725293 25.53753906 -61.07958984 25.81445312 C-84.09487775 34.86870295 -102.27761664 44.28888929 -112.72265625 67.66015625 C-120.77716251 86.26710802 -127.67703305 105.16353336 -132 125 C-132.19674316 125.89170898 -132.39348633 126.78341797 -132.59619141 127.70214844 C-137.53571661 150.68113597 -138.33222019 173.99343236 -138.20581055 197.4284668 C-138.18723549 200.98818974 -138.18530414 204.54765484 -138.18554688 208.10742188 C-138.18063995 210.41406472 -138.17481528 212.72070584 -138.16796875 215.02734375 C-138.16685593 216.07019028 -138.1657431 217.1130368 -138.16459656 218.18748474 C-138.12200446 224.83928118 -137.70906046 231.38615204 -137 238 C-139.97922593 238.02683987 -142.95821295 238.04676037 -145.9375 238.0625 C-146.78763672 238.07087891 -147.63777344 238.07925781 -148.51367188 238.08789062 C-149.32255859 238.09111328 -150.13144531 238.09433594 -150.96484375 238.09765625 C-151.7137085 238.10289307 -152.46257324 238.10812988 -153.23413086 238.11352539 C-155 238 -155 238 -156 237 C-156.20388243 235.42483477 -156.34747592 233.84177536 -156.46484375 232.2578125 C-156.54283203 231.27296875 -156.62082031 230.288125 -156.70117188 229.2734375 C-156.85578641 227.21361415 -157.0094698 225.15372064 -157.16210938 223.09375 C-157.55388112 218.16315927 -158.06212909 213.3503262 -159.00390625 208.4921875 C-161.1579269 197.20672978 -161.20566771 185.82391843 -161.1875 174.375 C-161.18656342 173.6082193 -161.18562683 172.8414386 -161.18466187 172.05142212 C-161.05387163 122.29379043 -154.9206636 69.45794075 -118.8125 32.3125 C-101.9276536 15.55257847 -77.16245329 3.69467174 -54 -1 C-53.09121094 -1.20496094 -52.18242187 -1.40992188 -51.24609375 -1.62109375 C-34.69942743 -4.81585622 -16.24737293 -4.37943591 0 0 Z " fill="#FCFCFC" transform="translate(438,16)"/>
<path d="M0 0 C1.66611905 -0.042721 3.33382885 -0.04063832 5 0 C6 1 6 1 6.0625 3.5625 C6.041875 4.366875 6.02125 5.17125 6 6 C6.99 5.34 7.98 4.68 9 4 C11.6875 4.375 11.6875 4.375 14 5 C14.33 6.65 14.66 8.3 15 10 C10.25 13.875 10.25 13.875 8 15 C7.53045739 18.04581269 7.53045739 18.04581269 7.375 21.5625 C7.30023438 22.76003906 7.22546875 23.95757812 7.1484375 25.19140625 C7.09945313 26.11824219 7.05046875 27.04507812 7 28 C8.134375 27.814375 9.26875 27.62875 10.4375 27.4375 C12.2009375 27.2209375 12.2009375 27.2209375 14 27 C15 28 15 28 15.4375 30.25 C14.8684321 33.8269982 13.20732384 34.53187091 10.40234375 36.59765625 C8.01067682 38.98932318 8.126749 41.7679004 8 45 C9.134375 44.814375 10.26875 44.62875 11.4375 44.4375 C12.613125 44.293125 13.78875 44.14875 15 44 C16 45 16 45 16.375 47.375 C16 50 16 50 13.6875 51.8125 C11 53 11 53 8 53 C8.01160156 53.59167969 8.02320313 54.18335938 8.03515625 54.79296875 C8.08322386 59.00231785 8.06006883 62.8922333 7 67 C8.485 66.01 8.485 66.01 10 65 C12.5625 64.75 12.5625 64.75 15 65 C15.66 65.66 16.32 66.32 17 67 C16.89871805 70.03845854 16.03531932 70.96669893 13.8125 73.0625 C9.28179321 76.18365357 5.61897729 78.59722663 0 78 C-2.421875 76.64453125 -2.421875 76.64453125 -4.75 74.8125 C-5.52859375 74.22082031 -6.3071875 73.62914062 -7.109375 73.01953125 C-9.32966437 70.64785851 -9.85215416 69.22620753 -10 66 C-9.01 65.01 -9.01 65.01 -8 64 C-5.375 64.375 -5.375 64.375 -3 65 C-1.85185003 62.70370006 -1.69230191 60.92301914 -1.4375 58.375 C-1.35371094 57.55773437 -1.26992188 56.74046875 -1.18359375 55.8984375 C-1.12300781 55.27195312 -1.06242187 54.64546875 -1 54 C-2.093125 53.896875 -3.18625 53.79375 -4.3125 53.6875 C-8 53 -8 53 -9.9375 51.75 C-11.37081965 49.38923823 -11.28534319 47.71076028 -11 45 C-10 44 -10 44 -7.625 43.8125 C-5 44 -5 44 -2 46 C-1.67 43.36 -1.34 40.72 -1 38 C-1.94875 37.71125 -2.8975 37.4225 -3.875 37.125 C-7 36 -7 36 -9 34 C-9.1875 31.4375 -9.1875 31.4375 -9 29 C-8.67 28.67 -8.34 28.34 -8 28 C-6.02 28 -4.04 28 -2 28 C-2 24.04 -2 20.08 -2 16 C-4.475 15.01 -4.475 15.01 -7 14 C-9.375 12.25 -9.375 12.25 -11 10 C-10.75 6.75 -10.75 6.75 -10 4 C-7.625 3.875 -7.625 3.875 -5 4 C-4.34 4.66 -3.68 5.32 -3 6 C-2.01 4.02 -1.02 2.04 0 0 Z " fill="#EEEEEE" transform="translate(406,419)"/>
<path d="M0 0 C1.32 0 2.64 0 4 0 C4.33 1.32 4.66 2.64 5 4 C5.53625 3.505 6.0725 3.01 6.625 2.5 C9.6127712 0.61298661 11.52743085 0.69132719 15 1 C16 2 16 2 16.25 4.375 C16 7 16 7 14.875 8.6875 C12.40494197 10.41654062 9.88124528 11.16764025 7 12 C7.33 14.31 7.66 16.62 8 19 C8.969375 18.814375 9.93875 18.62875 10.9375 18.4375 C12.4534375 18.2209375 12.4534375 18.2209375 14 18 C15 19 15 19 15.4375 21.8125 C15 25 15 25 12.125 27.375 C9 29 9 29 7 29 C7 30.65 7 32.3 7 34 C7.99 33.34 8.98 32.68 10 32 C12.625 31.8125 12.625 31.8125 15 32 C16 33 16 33 16.4375 35.3125 C16 38 16 38 13.1875 40.3125 C10 42 10 42 7 42 C7.33 42.66 7.66 43.32 8 44 C8.804375 43.979375 9.60875 43.95875 10.4375 43.9375 C13 44 13 44 14 45 C14.4375 47.3125 14.4375 47.3125 14 50 C9.49121855 53.8279485 5.86307112 54.53912761 0.125 54.25 C-0.56335938 54.23195313 -1.25171875 54.21390625 -1.9609375 54.1953125 C-3.6412381 54.14863748 -5.32081163 54.07690939 -7 54 C-8.125 49.25 -8.125 49.25 -7 47 C-5.35 47 -3.7 47 -2 47 C-2 45.68 -2 44.36 -2 43 C-3.423125 42.814375 -3.423125 42.814375 -4.875 42.625 C-8 42 -8 42 -10 40 C-9.625 37.375 -9.625 37.375 -9 35 C-4.25 33.875 -4.25 33.875 -2 35 C-2 33.02 -2 31.04 -2 29 C-3.11375 28.87625 -4.2275 28.7525 -5.375 28.625 C-9 28 -9 28 -11 26 C-11.1875 23.4375 -11.1875 23.4375 -11 21 C-10 20 -10 20 -7.0625 19.875 C-4 20 -4 20 -2 21 C-2 18.36 -2 15.72 -2 13 C-2.928125 13.061875 -3.85625 13.12375 -4.8125 13.1875 C-8 13 -8 13 -9.875 11.8125 C-11.36366316 9.41409825 -11.29178308 7.77193929 -11 5 C-10 4 -10 4 -7.0625 3.875 C-4 4 -4 4 -2 5 C-1.855625 4.360625 -1.71125 3.72125 -1.5625 3.0625 C-1 1 -1 1 0 0 Z " fill="#F2F2F2" transform="translate(346,443)"/>
<path d="M0 0 C4.60853797 0.72008406 8.67237409 2.31295939 13 4 C13.3125 6.25 13.3125 6.25 13 9 C8.89189189 13 8.89189189 13 6 13 C6 14.98 6 16.96 6 19 C6.99 18.34 7.98 17.68 9 17 C11.6875 17.375 11.6875 17.375 14 18 C14.33 19.65 14.66 21.3 15 23 C10.375 27 10.375 27 7 27 C7 28.98 7 30.96 7 33 C10.465 32.505 10.465 32.505 14 32 C14.33 33.98 14.66 35.96 15 38 C9.25 42 9.25 42 7 42 C7 42.99 7 43.98 7 45 C7.63808594 44.91621094 8.27617187 44.83242188 8.93359375 44.74609375 C9.75988281 44.64425781 10.58617187 44.54242188 11.4375 44.4375 C12.67306641 44.28087891 12.67306641 44.28087891 13.93359375 44.12109375 C14.95646484 44.06115234 14.95646484 44.06115234 16 44 C17 45 17 45 17.0625 47.5625 C17.041875 48.366875 17.02125 49.17125 17 50 C11.94914223 53.03051466 8.08837667 53.46427151 2.375 53.375 C1.62476563 53.38660156 0.87453125 53.39820313 0.1015625 53.41015625 C-4.19789377 53.3872868 -6.89949937 53.10050063 -10 50 C-9.67 48.35 -9.34 46.7 -9 45 C-4.25 43.875 -4.25 43.875 -2 45 C-2 44.01 -2 43.02 -2 42 C-2.78375 41.87625 -3.5675 41.7525 -4.375 41.625 C-7 41 -7 41 -9 39 C-9.1875 36.4375 -9.1875 36.4375 -9 34 C-8 33 -8 33 -5.4375 32.9375 C-4.633125 32.958125 -3.82875 32.97875 -3 33 C-3 31.68 -3 30.36 -3 29 C-4.175625 28.566875 -4.175625 28.566875 -5.375 28.125 C-8 27 -8 27 -10 25 C-10.1875 22.4375 -10.1875 22.4375 -10 20 C-9 19 -9 19 -5.9375 18.9375 C-4.4834375 18.9684375 -4.4834375 18.9684375 -3 19 C-3 17.68 -3 16.36 -3 15 C-3.78375 14.87625 -4.5675 14.7525 -5.375 14.625 C-8 14 -8 14 -10 12 C-10.1875 8.9375 -10.1875 8.9375 -10 6 C-9.67 5.67 -9.34 5.34 -9 5 C-7.576875 5.12375 -7.576875 5.12375 -6.125 5.25 C-4.578125 5.12625 -4.578125 5.12625 -3 5 C-1.0645852 2.60943058 -1.0645852 2.60943058 0 0 Z " fill="#F0F0F0" transform="translate(470,444)"/>
<path d="M0 0 C2.0625 0.4375 2.0625 0.4375 4 1 C3.01 1.66 2.02 2.32 1 3 C0.74969023 5.58380177 0.74969023 5.58380177 1 8 C0.01 7.34 -0.98 6.68 -2 6 C-1.125 1.125 -1.125 1.125 0 0 Z " fill="#BEBEBE" transform="translate(338,477)"/>
<path d="M0 0 C1.4540625 0.0309375 1.4540625 0.0309375 2.9375 0.0625 C1.761875 0.990625 1.761875 0.990625 0.5625 1.9375 C-2.03087647 3.96108661 -2.03087647 3.96108661 -4.0625 6.0625 C-4.105221 4.39638095 -4.10313832 2.72867115 -4.0625 1.0625 C-3.0625 0.0625 -3.0625 0.0625 0 0 Z " fill="#B3B3B3" transform="translate(339.0625,462.9375)"/>
<path d="M0 0 C1.4540625 0.0309375 1.4540625 0.0309375 2.9375 0.0625 C1.761875 0.990625 1.761875 0.990625 0.5625 1.9375 C-2.03087647 3.96108661 -2.03087647 3.96108661 -4.0625 6.0625 C-4.105221 4.39638095 -4.10313832 2.72867115 -4.0625 1.0625 C-3.0625 0.0625 -3.0625 0.0625 0 0 Z " fill="#BFBFBF" transform="translate(339.0625,446.9375)"/>
<path d="M0 0 C1.32 0.33 2.64 0.66 4 1 C1.6875 3.5 1.6875 3.5 -1 6 C-1.99 6 -2.98 6 -4 6 C-2.68 4.02 -1.36 2.04 0 0 Z " fill="#C0C0C0" transform="translate(470,444)"/>
</svg>
