<?xml version="1.0" encoding="utf-8"?>
<!DOCTYPE svg PUBLIC "-//W3C//DTD SVG 1.1//EN" "http://www.w3.org/Graphics/SVG/1.1/DTD/svg11.dtd">
<svg width="543" height="593" viewBox="0 0 543 593" fill="none" xmlns="http://www.w3.org/2000/svg">
    <path d="M337.362 20.1932C338.995 21.1474 338.995 21.1474 341 21.0001C342.335 22.3319 343.668 23.6656 345 25.0001C346.997 26.4085 349.021 27.7807 351.062 29.1251C356.696 32.913 361.626 37.0655 366.562 41.7383C368.957 44.0255 368.957 44.0255 371.547 45.9844C378.95 52.0676 391.477 66.1269 393 76.0001C393.66 76.0001 394.32 76.0001 395 76.0001C395.433 77.2066 395.433 77.2066 395.875 78.4376C396.732 81.1327 396.732 81.1327 399 82.0001C399.343 83.9984 399.674 85.9988 400 88.0001C400.85 90.1437 401.751 92.2674 402.687 94.3751C421.01 138.255 423.767 202.322 417 249C416.67 249.66 416.34 250.32 416 251C416.769 250.76 416.769 250.76 417.555 250.516C440.509 245.675 467.672 255.255 487 267.016C490.704 269.466 494.27 272.059 497.816 274.731C501.974 277.694 506.29 280.368 510.625 283.063C525.244 292.177 525.244 292.177 530.531 297.559C532.468 299.459 534.579 300.79 537 302C537.39 303.318 537.709 304.657 538 306C538.655 308.004 539.32 310.005 540 312C540.66 312 541.32 312 542 312C542.486 320.624 541.925 327.238 538 335C537.34 335 536.68 335 536 335C535.763 335.562 535.525 336.124 535.281 336.703C533.71 339.519 531.785 341.48 529.5 343.75C528.706 344.549 527.912 345.349 527.094 346.172C525 348 525 348 523 348C523 348.66 523 349.32 523 350C512.304 354.315 504.419 355.93 493 354C492.85 354.964 492.7 355.928 492.545 356.921C488.984 379.776 485.259 402.597 481.339 425.394C480.643 429.442 479.951 433.491 479.257 437.54C477.949 445.179 476.639 452.817 475.327 460.456C473.854 469.036 472.384 477.616 470.914 486.197C469.235 495.993 467.557 505.789 465.876 515.585C465.619 517.08 465.363 518.576 465.106 520.072C464.483 523.709 463.857 527.345 463.227 530.981C462.061 537.714 460.919 544.449 459.85 551.198C459.343 554.393 458.824 557.586 458.303 560.78C458.061 562.289 457.824 563.8 457.594 565.312C454.672 584.474 454.672 584.474 447.694 591.234C442.525 594.418 436.055 593.553 430.201 593.515C428.775 593.52 427.349 593.527 425.923 593.536C422.008 593.554 418.094 593.548 414.18 593.538C409.957 593.531 405.734 593.547 401.511 593.56C393.241 593.581 384.971 593.581 376.701 593.573C369.982 593.567 363.264 593.568 356.545 593.574C355.589 593.575 354.633 593.576 353.648 593.577C351.707 593.579 349.765 593.581 347.823 593.583C329.615 593.599 311.407 593.59 293.198 593.574C276.527 593.559 259.855 593.574 243.184 593.602C226.074 593.632 208.964 593.643 191.854 593.633C189.921 593.632 187.987 593.631 186.054 593.63C185.102 593.63 184.151 593.629 183.171 593.629C176.456 593.627 169.741 593.636 163.026 593.651C154.849 593.668 146.672 593.668 138.495 593.646C134.32 593.634 130.146 593.631 125.971 593.65C122.154 593.667 118.337 593.66 114.519 593.636C113.134 593.631 111.75 593.634 110.365 593.647C108.49 593.663 106.615 593.646 104.74 593.626C103.697 593.626 102.653 593.626 101.578 593.626C98.9998 593 98.9998 593 97.1821 590.595C96.1033 588.227 95.4113 586.224 94.9385 583.677C94.698 582.422 94.698 582.422 94.4527 581.142C94.2074 579.78 94.2074 579.78 93.9571 578.39C93.7738 577.418 93.5906 576.446 93.4017 575.444C92.7908 572.191 92.1942 568.936 91.5975 565.68C91.1637 563.354 90.7289 561.028 90.2933 558.702C89.1164 552.405 87.9517 546.106 86.7892 539.807C85.6985 533.907 84.5989 528.009 83.4991 522.11C81.4744 511.252 79.4559 500.392 77.4418 489.531C74.5844 474.124 71.7053 458.722 68.8153 443.321C67.645 437.085 66.4757 430.848 65.3062 424.612C64.9703 422.821 64.9704 422.821 64.6277 420.993C64.1814 418.613 63.7352 416.234 63.2889 413.854C62.8449 411.486 62.4008 409.118 61.9566 406.75C60.6946 400.022 59.4343 393.294 58.1768 386.565C57.7965 384.532 57.4156 382.499 57.0341 380.466C56.5166 377.708 56.0013 374.951 55.4867 372.193C55.3342 371.383 55.1817 370.573 55.0245 369.739C53.9998 364.228 53.9998 364.228 53.9998 362C53.4128 361.955 52.8258 361.911 52.221 361.865C45.4739 361.28 38.9819 360.089 32.3748 358.625C31.39 358.416 30.4052 358.207 29.3905 357.992C22.5211 356.49 15.9185 354.946 9.99984 351C9.33984 351.33 8.67984 351.66 7.99984 352C7.99984 351.34 7.99984 350.68 7.99984 350C7.00984 349.67 6.01984 349.34 4.99984 349C5.32984 348.34 5.65984 347.68 5.99984 347C5.33984 347 4.67984 347 3.99984 347C0.00445819 339.389 -0.456963 334.201 1.99984 326C3.58826 321.023 5.09149 316.363 7.99984 312C8.3002 311.341 8.60055 310.683 8.91 310.004C10.1499 307.724 11.429 306.57 13.4373 304.938C17.6638 301.386 21.5023 297.539 25.318 293.556C26.5093 292.335 27.7509 291.163 28.9998 290C29.6598 290 30.3198 290 30.9998 290C30.9998 289.34 30.9998 288.68 30.9998 288C32.9481 286.33 34.8018 285.093 37.1248 284C39.3336 283.012 39.3336 283.012 40.9998 280C42.7342 278.973 42.7342 278.973 44.7498 278.063C47.4531 276.79 49.9232 275.459 52.3748 273.75C54.9998 272 54.9998 272 56.9998 272C56.9998 271.34 56.9998 270.68 56.9998 270C58.3198 270 59.6398 270 60.9998 270C60.9998 269.01 60.9998 268.02 60.9998 267C61.734 266.87 62.4681 266.739 63.2245 266.605C65.7808 266.048 67.9905 265.316 70.4061 264.328C71.2267 263.996 72.0472 263.663 72.8927 263.321C73.753 262.967 74.6134 262.614 75.4998 262.25C77.2899 261.523 79.0803 260.796 80.8709 260.07C81.7435 259.716 82.616 259.362 83.515 258.997C87.8384 257.262 92.2 255.632 96.5663 254.008C99.1898 253.014 99.1898 253.014 102 251C105.094 250.773 105.094 250.773 108.855 250.805C109.517 250.808 110.179 250.81 110.86 250.813C112.969 250.824 115.078 250.85 117.187 250.875C118.619 250.885 120.051 250.894 121.482 250.902C124.988 250.924 128.494 250.959 132 251C130.703 235.911 130.703 235.911 128.47 220.94C122.886 186.04 127.732 148.477 134 114C134.184 112.983 134.368 111.965 134.557 110.917C137.689 94.3215 143.521 77.5418 153.18 63.5696C153.45 63.0517 153.721 62.5337 154 62.0001C153.67 61.3401 153.34 60.6801 153 60.0001C153.885 59.652 153.885 59.652 154.789 59.2969C157.559 57.672 158.619 55.9347 160.375 53.2501C167.45 43.1942 176.691 33.7407 187 27.0001C187.66 27.0001 188.32 27.0001 189 27.0001C189 26.3401 189 25.6801 189 25.0001C190.289 24.3285 191.581 23.663 192.875 23.0001C193.594 22.6288 194.313 22.2576 195.055 21.8751C197 21.0001 197 21.0001 199 21.0001C199 20.0101 199 19.0201 199 18.0001C199.714 17.8793 200.427 17.7585 201.163 17.6341C204.095 16.9788 206.628 16.0236 209.394 14.8555C210.425 14.4276 211.455 13.9996 212.516 13.5586C213.604 13.1062 214.692 12.6537 215.812 12.1876C225.465 8.25678 234.754 4.95382 245 3.00005C246.62 2.66747 246.62 2.66747 248.273 2.32818C279.918 -3.23412 309.894 4.41714 337.362 20.1932ZM239 49.0001C237.396 49.5852 235.792 50.1687 234.187 50.7501C233.135 51.1626 232.084 51.5751 231 52.0001C231 52.6601 231 53.3201 231 54.0001C230.257 53.9588 229.515 53.9176 228.75 53.8751C225.912 54.004 224.412 54.5706 222 56.0001C222 56.6601 222 57.3201 222 58.0001C220.68 58.0001 219.36 58.0001 218 58.0001C218 58.6601 218 59.3201 218 60.0001C216.35 60.3301 214.7 60.6601 213 61.0001C213 61.6601 213 62.3201 213 63.0001C212.01 63.0001 211.02 63.0001 210 63.0001C210 63.6601 210 64.3201 210 65.0001C208.35 65.6601 206.7 66.3201 205 67.0001C205 67.6601 205 68.3201 205 69.0001C204.34 69.0001 203.68 69.0001 203 69.0001C201.636 70.4139 201.636 70.4139 200.375 72.2501C199.929 72.8533 199.483 73.4566 199.023 74.0782C197.686 76.2256 197.686 76.2256 198 80.0001C197.34 80.0001 196.68 80.0001 196 80.0001C196 80.9901 196 81.9801 196 83.0001C195.01 83.4951 195.01 83.4951 194 84.0001C192.906 86.3159 192.906 86.3159 191.875 89.2501C191.439 90.427 191.003 91.6039 190.555 92.8165C190.311 93.4792 190.067 94.1419 189.815 94.8248C188.927 97.195 188.001 99.5487 187.07 101.902C172.383 139.205 168.875 176.748 168.75 216.563C168.744 217.64 168.739 218.718 168.733 219.829C168.722 222.95 168.725 226.07 168.734 229.191C168.73 230.118 168.726 231.044 168.722 231.998C168.769 238.726 169.758 244.172 171 251C238.32 251 305.64 251 375 251C375.638 246.533 376.127 242.769 376.145 238.361C376.151 237.295 376.158 236.229 376.164 235.131C376.165 233.991 376.167 232.851 376.168 231.676C376.172 230.472 376.176 229.268 376.18 228.028C376.19 224.123 376.19 220.218 376.187 216.313C376.188 214.977 376.188 213.642 376.189 212.307C376.187 195.978 376.021 179.679 375.062 163.375C375.019 162.622 374.975 161.869 374.931 161.094C375.154 154.007 375.154 154.007 373 148C372.816 146.084 372.816 146.084 372.629 144.129C372.061 138.524 370.552 133.32 368.937 127.938C368.656 126.977 368.374 126.016 368.084 125.025C367.396 122.682 366.701 120.34 366 118C365.34 118 364.68 118 364 118C364.33 117.01 364.66 116.02 365 115C364.4 112.74 364.4 112.74 363.348 110.332C362.983 109.439 362.619 108.547 362.244 107.627C361.854 106.698 361.464 105.769 361.062 104.813C360.676 103.872 360.29 102.932 359.892 101.963C358.937 99.6384 357.972 97.3178 357 95.0001C356.34 95.0001 355.68 95.0001 355 95.0001C354.884 94.273 354.768 93.546 354.648 92.7969C353.985 89.9381 353.042 87.8099 351.625 85.2501C351.205 84.4715 350.784 83.6929 350.351 82.8907C349.061 80.6938 349.061 80.6938 346 80.0001C344.812 77.4376 344.812 77.4376 344 75.0001C343.34 75.0001 342.68 75.0001 342 75.0001C341.756 74.4174 341.513 73.8347 341.262 73.2344C334.024 60.4169 313.896 54.1144 300.601 50.2501C280.887 44.7788 258.474 40.998 239 49.0001Z" fill="#FBFCFA"/>
    <path d="M423.176 323.8C424.157 324.195 425.138 324.59 426.149 324.997C427.193 325.431 428.237 325.865 429.313 326.312C430.4 326.756 431.487 327.199 432.607 327.656C446.545 333.386 460.546 339.197 474 346C473.329 350.126 472.653 354.252 471.974 358.378C471.744 359.778 471.515 361.178 471.287 362.579C470.958 364.605 470.624 366.63 470.289 368.656C470.09 369.871 469.891 371.086 469.686 372.337C469.2 374.936 468.657 377.425 467.996 379.976C466.997 383.861 466.355 387.746 465.781 391.718C465.678 392.421 465.575 393.123 465.468 393.846C465.142 396.063 464.82 398.281 464.5 400.5C464.078 403.427 463.65 406.354 463.219 409.281C463.033 410.571 462.846 411.86 462.655 413.189C462.08 416.534 461.329 419.733 460.479 423.011C459.707 426.218 459.253 429.456 458.781 432.718C458.678 433.421 458.575 434.123 458.468 434.846C458.142 437.063 457.82 439.281 457.5 441.5C457.078 444.427 456.65 447.354 456.219 450.281C456.033 451.571 455.846 452.86 455.655 454.189C455.199 456.842 454.69 459.328 454.014 461.918C452.891 466.251 452.208 470.605 451.563 475.031C451.437 475.866 451.311 476.702 451.182 477.562C450.784 480.207 450.392 482.853 450 485.5C449.484 488.99 448.962 492.479 448.438 495.968C448.323 496.755 448.208 497.542 448.09 498.352C447.92 499.484 447.92 499.484 447.746 500.638C447.65 501.289 447.554 501.94 447.455 502.611C446.789 506.106 445.863 509.548 445 513C440.05 542.205 440.05 542.205 435 572C329.07 572 223.14 572 114 572C108.943 545.029 103.91 518.066 99.0197 491.066C96.5965 477.718 94.0906 464.385 91.5798 451.053C91.2004 449.038 90.821 447.023 90.4416 445.007C90.1536 443.477 90.1536 443.477 89.8598 441.916C88.3821 434.056 86.9207 426.192 85.4647 418.327C85.091 416.309 84.7169 414.291 84.3426 412.273C84.2195 411.609 84.0963 410.945 83.9695 410.261C83.7215 408.924 83.4735 407.587 83.2255 406.251C82.6198 402.984 82.0154 399.717 81.4129 396.45C80.7388 392.795 80.0612 389.142 79.383 385.488C79.1865 384.417 78.9899 383.346 78.7874 382.242C77.5681 375.695 76.1291 369.247 74.475 362.795C74.0077 360.044 73.947 358.558 75.0002 356C77.1174 354.324 77.1174 354.324 79.8752 352.687C80.8794 352.075 81.8836 351.462 82.9182 350.832C84.8162 349.703 86.7146 348.576 88.6135 347.449C95.4217 343.285 101.507 338.48 107.606 333.355C108.262 332.807 108.918 332.259 109.594 331.695C110.179 331.2 110.763 330.705 111.365 330.195C113 329 113 329 116 328C118.654 328.957 121.179 329.98 123.75 331.125C129.349 333.596 135.003 335.716 140.818 337.628C141.51 337.857 142.203 338.086 142.916 338.323C144.61 338.883 146.305 339.442 148 340C148.004 340.832 148.009 341.664 148.013 342.521C148.116 362.751 148.225 382.981 148.34 403.211C148.395 412.994 148.448 422.776 148.498 432.559C148.54 441.084 148.587 449.609 148.637 458.134C148.664 462.65 148.689 467.165 148.709 471.681C148.729 475.928 148.753 480.176 148.781 484.423C148.79 485.985 148.798 487.546 148.804 489.107C148.812 491.234 148.826 493.361 148.842 495.489C148.848 496.681 148.855 497.872 148.862 499.1C148.872 502.067 148.872 502.067 150 505C180.999 504.94 211.998 504.866 242.997 504.771C246.656 504.759 250.315 504.748 253.974 504.737C254.702 504.735 255.43 504.733 256.181 504.73C267.979 504.695 279.777 504.67 291.575 504.649C303.679 504.627 315.782 504.594 327.886 504.551C335.356 504.524 342.826 504.507 350.296 504.5C356.022 504.494 361.747 504.473 367.473 504.445C369.823 504.436 372.174 504.433 374.525 504.435C377.729 504.436 380.932 504.42 384.136 504.398C385.538 504.406 385.538 504.406 386.969 504.413C391.778 504.36 395.124 504.187 399 501C400.471 498.058 400.142 495.439 400.158 492.153C400.166 491.085 400.166 491.085 400.173 489.995C400.189 487.597 400.197 485.198 400.206 482.8C400.215 481.085 400.225 479.371 400.236 477.656C400.263 472.991 400.284 468.326 400.304 463.661C400.325 458.79 400.353 453.918 400.38 449.047C400.43 439.818 400.474 430.588 400.518 421.359C400.567 410.854 400.622 400.348 400.677 389.843C400.791 368.229 400.898 346.614 401 325C402.762 324.502 404.526 324.009 406.29 323.518C407.763 323.106 407.763 323.106 409.265 322.685C414.483 321.377 418.248 321.794 423.176 323.8Z" fill="#517644"/>
    <path d="M265 322C265.692 322.545 265.692 322.545 266.398 323.102C275.265 329.935 284.442 335.219 295 339C296.066 339.396 297.132 339.791 298.23 340.199C326.831 349.088 357.94 341.81 384.676 330.763C387 330 387 330 391 330C391 384.45 391 438.9 391 495C313.78 495 236.56 495 157 495C157 444.84 157 394.68 157 343C164.425 343.99 164.425 343.99 172 345C198.871 346.503 224.912 343.952 249 331C249.759 330.592 250.518 330.184 251.3 329.764C255.915 327.257 260.473 324.664 265 322Z" fill="#FAFD8A"/>
    <path d="M433.62 259.978C434.778 259.972 435.937 259.966 437.131 259.96C438.165 259.953 439.199 259.946 440.264 259.938C459.135 260.365 481.306 272.698 495.851 283.703C499.062 286.046 502.348 288.217 505.678 290.384C529.862 306.148 529.862 306.148 532.656 316.41C533.434 321.372 533.319 324.986 530.355 329.285C529.908 329.851 529.461 330.417 529 331C528.501 331.659 528.002 332.318 527.488 332.996C522.798 338.779 517.141 343.62 510 346C499.927 346.619 491.063 346.885 482 342C480.296 341.137 478.591 340.274 476.885 339.417C475.563 338.752 474.242 338.085 472.924 337.414C463.529 332.679 453.866 328.533 444.202 324.382C441.056 323.025 437.921 321.644 434.785 320.262C432.836 319.423 430.887 318.586 428.937 317.75C428.052 317.355 427.167 316.96 426.255 316.553C420.557 314.157 417.056 313.676 411 315C409.984 315.205 408.968 315.41 407.922 315.621C399.164 317.875 390.745 320.841 382.25 323.938C352.697 334.703 319.807 341.821 289.969 328.203C282.533 324.589 276.413 320.25 270.367 314.59C268.138 312.768 268.138 312.768 265.562 313.028C262.443 314.212 259.912 315.789 257.125 317.625C229.147 335.398 194.536 341.452 162 335C149.444 332.187 137.486 327.875 125.638 322.897C119.05 320.054 119.05 320.054 112 320C109.982 321.26 109.982 321.26 108.25 323.188C98.9474 332.033 87.996 339.866 76.5037 345.586C73.5553 347.251 71.1181 349.295 68.4998 351.438C64.876 354.096 62.599 355.569 58.0623 355.25C56.0324 354.88 54.0125 354.455 51.9998 354C50.4396 353.712 48.8783 353.43 47.3162 353.153C20.7181 348.297 20.7181 348.297 12.9998 342C12.3811 341.567 11.7623 341.134 11.1248 340.688C8.8576 337.287 9.7428 333.598 10.3631 329.742C15.1551 309.466 37.6957 293.941 54.4246 283.485C63.2856 278.191 72.357 273.697 81.9998 270C84.1284 269.155 86.2534 268.301 88.3748 267.438C89.3107 267.065 90.2465 266.693 91.2107 266.309C94.0834 265.117 94.0834 265.117 96.3515 262.951C101.325 259.63 107.415 260.446 113.162 260.481C114.519 260.475 115.876 260.468 117.233 260.459C120.957 260.438 124.681 260.443 128.405 260.451C132.423 260.456 136.442 260.438 140.461 260.423C147.424 260.4 154.388 260.391 161.351 260.392C171.434 260.394 181.516 260.373 191.599 260.348C207.976 260.307 224.353 260.283 240.73 260.271C256.606 260.259 272.481 260.239 288.357 260.208C289.334 260.206 290.311 260.204 291.317 260.202C296.22 260.192 301.122 260.182 306.024 260.172C336.791 260.11 367.559 260.06 398.326 260.029C399.103 260.028 399.88 260.027 400.68 260.026C405.769 260.021 410.859 260.016 415.949 260.011C417.191 260.01 418.433 260.009 419.713 260.008C422.023 260.006 424.333 260.005 426.643 260.005C428.969 260.002 431.294 259.992 433.62 259.978Z" fill="#76AF62"/>
    <path d="M265 322C265.692 322.545 265.692 322.545 266.398 323.102C275.265 329.935 284.442 335.219 295 339C296.066 339.396 297.132 339.791 298.23 340.199C326.831 349.088 357.94 341.81 384.676 330.763C387 330 387 330 391 330C391 368.61 391 407.22 391 447C383 441 383 441 380.25 438.188C378.046 436.045 377 435.333 374 435C374 434.34 374 433.68 374 433C373.01 433 372.02 433 371 433C371 432.34 371 431.68 371 431C370.424 430.737 369.848 430.474 369.254 430.203C366.876 428.934 365.01 427.47 362.938 425.75C358.775 422.454 354.474 419.937 349.777 417.48C346.187 415.567 342.743 413.445 339.289 411.297C336.912 409.95 334.537 409.011 332 408C328.716 406.393 325.475 404.702 322.234 403.01C317.284 400.482 312.323 398.592 307 397C306.235 396.769 305.47 396.538 304.681 396.3C291.757 392.598 279.239 391.526 265.875 391.562C264.747 391.563 264.747 391.563 263.596 391.563C254.067 391.435 254.067 391.435 245 394C242.977 394.438 240.954 394.876 238.93 395.309C235.046 396.225 231.212 397.281 227.375 398.375C226.659 398.572 225.942 398.769 225.204 398.972C221.573 400.024 218.419 401.225 215.164 403.164C212 405 212 405 209 405C209 405.66 209 406.32 209 407C207.32 408.289 207.32 408.289 205.125 409.625C204.406 410.071 203.686 410.517 202.945 410.977C201 412 201 412 199 412C199 412.66 199 413.32 199 414C198.457 414.182 197.915 414.364 197.355 414.551C196.64 414.802 195.925 415.054 195.188 415.312C194.48 415.556 193.772 415.8 193.043 416.051C190.851 417.069 189.672 418.29 188 420C187.34 420 186.68 420 186 420C185.794 420.598 185.587 421.196 185.375 421.812C183.473 424.838 181.247 425.647 178 427C177.34 427 176.68 427 176 427C175.67 427.99 175.34 428.98 175 430C173.36 431.366 171.689 432.695 170 434C166.483 437.336 163.373 440.881 160.332 444.645C159.892 445.092 159.453 445.539 159 446C158.34 446 157.68 446 157 446C157 412.01 157 378.02 157 343C164.425 343.99 164.425 343.99 172 345C198.871 346.503 224.912 343.952 249 331C249.759 330.592 250.518 330.184 251.3 329.764C255.915 327.257 260.473 324.664 265 322Z" fill="#EDD747"/>
    <path d="M298 14.0001C298.685 14.1828 299.37 14.3655 300.076 14.5538C319.822 19.9951 337.237 30.089 353 43.0001C353.62 43.4965 354.24 43.993 354.879 44.5045C389.491 72.2942 401.259 111.83 405.922 154.417C406.664 161.274 407.371 168.132 408 175C408.109 176.169 408.218 177.338 408.33 178.543C409.244 189.964 409.151 201.403 409.131 212.854C409.125 216.388 409.131 219.923 409.137 223.457C409.136 225.729 409.135 228.001 409.133 230.274C409.135 231.317 409.137 232.361 409.139 233.437C409.136 234.429 409.133 235.421 409.13 236.443C409.128 237.731 409.128 237.731 409.127 239.045C408.955 243.044 408.442 247.022 408 251C400.08 251 392.16 251 384 251C384 240.552 384 240.552 384.766 235.139C385.261 230.61 385.163 226.047 385.168 221.496C385.172 220.392 385.177 219.288 385.181 218.15C385.191 214.579 385.191 211.008 385.188 207.438C385.187 206.224 385.187 205.011 385.187 203.761C385.172 189.491 385.089 175.245 384.188 161C384.118 159.85 384.048 158.699 383.976 157.514C383.034 144.971 379.936 133.031 376.188 121.063C375.835 119.932 375.483 118.802 375.119 117.638C366.49 90.3484 354.82 65.8413 328.5 51.7774C307.681 41.2051 284.928 35.8737 261.625 35.7501C260.661 35.7295 259.697 35.7088 258.703 35.6876C248.218 35.6314 239.166 38.6321 229.625 42.7501C228.809 43.1001 227.992 43.4501 227.151 43.8106C199.918 55.6582 189.438 70.4574 178.82 97.3839C173.53 111.013 169.116 124.704 166 139C165.803 139.892 165.607 140.784 165.404 141.702C157.608 177.969 159.868 215.191 161 252C154.73 252 148.46 252 142 252C141.876 248.535 141.876 248.535 141.75 245C141.515 239.92 141.07 234.99 140.043 230.004C134.46 202.872 135.517 173.398 139 146C139.124 144.933 139.247 143.866 139.375 142.766C143.639 106.246 152.739 73.5626 179 47.0001C179.591 46.3375 180.181 45.6749 180.789 44.9923C190.296 34.5104 204.286 27.7647 217 22.0001C217.624 21.7165 218.248 21.4329 218.89 21.1407C243.235 10.2782 272.123 7.02484 298 14.0001Z" fill="#77AF63"/>
    <path d="M267 417C270.692 417.692 270.692 417.692 272 419C272.041 420.666 272.043 422.334 272 424C272.99 424 273.98 424 275 424C275 423.34 275 422.68 275 422C276.65 422 278.3 422 280 422C280.438 424.688 280.438 424.688 280 428C278.477 429.055 278.477 429.055 276.562 430.062C274.538 431.164 274.538 431.164 273 433C272.069 437.337 271.955 441.574 272 446C272.99 446 273.98 446 275 446C275.33 445.01 275.66 444.02 276 443C277.65 443.33 279.3 443.66 281 444C281 445.98 281 447.96 281 450C279.515 450.495 279.515 450.495 278 451C276.791 453 276.791 453 276 455C275.01 455 274.02 455 273 455C273 457.64 273 460.28 273 463C274.485 462.505 274.485 462.505 276 462C276.33 461.34 276.66 460.68 277 460C279.31 460 281.62 460 284 460C284 461.98 284 463.96 284 466C282.02 466.66 280.04 467.32 278 468C278 468.66 278 469.32 278 470C275.525 470.495 275.525 470.495 273 471C273 474.96 273 478.92 273 483C277.455 482.505 277.455 482.505 282 482C281.875 485.312 281.875 485.312 281 489C278 490.75 278 490.75 275 492C274.67 492.99 274.34 493.98 274 495C271.36 495 268.72 495 266 495C266 494.01 266 493.02 266 492C264.02 491.67 262.04 491.34 260 491C259.67 490.01 259.34 489.02 259 488C258.34 488 257.68 488 257 488C257 486.68 257 485.36 257 484C259.97 484 262.94 484 266 484C266 480.04 266 476.08 266 472C264.35 472 262.7 472 261 472C258.188 470.312 258.188 470.312 256 468C256 466.35 256 464.7 256 463C259.3 463.33 262.6 463.66 266 464C265.67 460.7 265.34 457.4 265 454C263.329 453.814 263.329 453.814 261.625 453.625C258 453 258 453 256 451C255.875 447.875 255.875 447.875 256 445C258.64 445 261.28 445 264 445C264.107 441.197 264.005 437.683 263 434C261.028 432.22 259.128 431.218 256.75 430.055C256.173 429.707 255.595 429.359 255 429C254.438 426.25 254.438 426.25 255 424C256 423 256 423 258.312 422.812C261.078 423.005 262.64 423.602 265 425C265.144 423.866 265.289 422.731 265.438 421.562C266 418 266 418 267 417Z" fill="#81B665"/>
    <path d="M207 441C208.675 441.286 210.344 441.618 212 442C212 442.66 212 443.32 212 444C212.701 443.505 213.403 443.01 214.125 442.5C217.388 440.797 219.371 440.67 223 441C224 442 224 442 224.5 444.75C224 448 224 448 222.543 449.472C219.735 451.5 217.302 452.899 214 454C213.67 456.31 213.34 458.62 213 461C213.722 460.67 214.444 460.34 215.188 460C218.017 458.994 220.029 458.83 223 459C223.312 461.25 223.312 461.25 223 464C220.391 466.538 218.458 467.847 215 469C213.781 471.504 213.781 471.504 213 474C213.773 473.505 213.773 473.505 214.562 473C217.78 471.68 220.557 471.867 224 472C224.359 477.387 224.359 477.387 222.938 479.812C220.091 481.557 217.282 481.69 214 482C214 483.32 214 484.64 214 486C216.64 486 219.28 486 222 486C222.33 487.65 222.66 489.3 223 491C215.709 495.761 208.497 495.866 200 495C199.01 494.34 198.02 493.68 197 493C197.33 491.35 197.66 489.7 198 488C200.64 488 203.28 488 206 488C205.505 486.515 205.505 486.515 205 485C203.156 484.165 203.156 484.165 201 483.625C198.816 482.89 198.816 482.89 197 482C195.938 479.375 195.938 479.375 196 477C197 476 197 476 198.848 475.902C200.898 475.935 202.949 475.967 205 476C204.669 473.074 204.669 473.074 203 470C200.725 468.794 198.408 467.926 196.004 467.008C194 466 194 466 192.875 463.312C193 461 193 461 194 460C198.216 459.712 201.18 460.202 205 462C204.304 457.248 204.304 457.248 201.379 453.715C199.617 452.751 197.809 451.872 196 451C195.34 450.34 194.68 449.68 194 449C194.375 446.375 194.375 446.375 195 444C199.273 443.633 201.488 444.592 205 447C205.144 446.195 205.289 445.391 205.438 444.562C206 442 206 442 207 441Z" fill="#7CB263"/>
    <path d="M329 442C330.98 442 332.96 442 335 442C335 443.32 335 444.64 335 446C337.64 446 340.28 446 343 446C343 447.65 343 449.3 343 451C341.866 451.516 340.731 452.031 339.563 452.562C337.601 453.58 337.601 453.58 336 455C334.944 458.631 334.944 458.631 335 462C335.557 461.67 336.114 461.34 336.688 461C339.303 459.869 341.181 459.843 344 460C344.33 461.65 344.66 463.3 345 465C344.434 465.291 343.868 465.583 343.285 465.883C338.368 468.483 338.368 468.483 336 473.312C336 474.199 336 475.086 336 476C336.743 475.484 337.485 474.969 338.25 474.438C341 473 341 473 343.313 473.312C343.869 473.539 344.426 473.766 345 474C345.625 476.312 345.625 476.312 346 479C343.596 482.607 342.053 482.855 338 484C338 484.99 338 485.98 338 487C339.485 486.505 339.485 486.505 341 486C343.333 485.96 345.667 485.956 348 486C348 487.65 348 489.3 348 491C342.409 494.775 338.435 495.607 331.75 495.438C330.948 495.445 330.146 495.452 329.32 495.459C323.518 495.396 323.518 495.396 321.263 493.672C319.384 491.184 319.799 489.019 320 486C326.75 485.875 326.75 485.875 329 487C329 486.34 329 485.68 329 485C328.01 485 327.02 485 326 485C326 484.34 326 483.68 326 483C325.196 482.856 324.391 482.711 323.563 482.562C321 482 321 482 320 481C319.875 478.5 319.875 478.5 320 476C321 475 321 475 324.563 474.938C325.697 474.958 326.831 474.979 328 475C327.811 473.022 327.811 473.022 327 471C325.17 470.086 325.17 470.086 323 469.625C320.816 468.922 320.816 468.922 319 468C317.938 464.875 317.938 464.875 318 462C318.33 461.67 318.66 461.34 319 461C320.525 461.089 322.047 461.245 323.563 461.438C324.389 461.539 325.215 461.641 326.066 461.746C326.705 461.83 327.343 461.914 328 462C328 460.35 328 458.7 328 457C327.051 456.732 326.103 456.464 325.125 456.188C322 455 322 455 320 452C319.875 449.312 319.875 449.312 320 447C323.287 446.2 324.71 445.903 328 447C328.33 445.35 328.66 443.7 329 442Z" fill="#7FB464"/>
    <path d="M207 441C208.675 441.286 210.344 441.618 212 442C212 442.66 212 443.32 212 444C212.701 443.505 213.403 443.01 214.125 442.5C217.388 440.797 219.371 440.67 223 441C224 442 224 442 224.5 444.75C224 448 224 448 222.543 449.472C219.735 451.5 217.302 452.899 214 454C213.67 456.31 213.34 458.62 213 461C213.66 461.33 214.32 461.66 215 462C213.68 462 212.36 462 211 462C211 458.7 211 455.4 211 452C213.311 451.088 215.622 450.177 217.934 449.265C220.185 448.18 220.185 448.18 220.785 445.859C220.856 445.245 220.927 444.632 221 444C220.093 444.33 219.185 444.66 218.25 445C215 446 215 446 211 446C210.67 445.34 210.34 444.68 210 444C209.01 443.67 208.02 443.34 207 443C207.021 444.093 207.041 445.186 207.062 446.312C207 450 207 450 206 453C205.932 454.728 205.915 456.458 205.938 458.187C205.951 459.539 205.951 459.539 205.965 460.918C205.976 461.605 205.988 462.292 206 463C199.375 463.125 199.375 463.125 196 462C196.33 463.65 196.66 465.3 197 467C195.68 466.34 194.36 465.68 193 465C193.33 463.35 193.66 461.7 194 460C198.219 459.803 201.17 460.197 205 462C204.304 457.248 204.304 457.248 201.379 453.715C199.617 452.751 197.809 451.872 196 451C195.34 450.34 194.68 449.68 194 449C194.375 446.375 194.375 446.375 195 444C199.273 443.633 201.488 444.592 205 447C205.144 446.195 205.289 445.391 205.438 444.562C206 442 206 442 207 441Z" fill="#7FB464"/>
    <path d="M267 417C270.692 417.692 270.692 417.692 272 419C272.041 420.666 272.043 422.334 272 424C272.99 424.33 273.98 424.66 275 425C273.68 425 272.36 425 271 425C270.67 423.35 270.34 421.7 270 420C269.01 419.67 268.02 419.34 267 419C267 421.64 267 424.28 267 427C265.02 427 263.04 427 261 427C260.67 426.34 260.34 425.68 260 425C259.01 424.67 258.02 424.34 257 424C257 425.65 257 427.3 257 429C257.598 429.144 258.196 429.289 258.812 429.438C263.816 430.724 263.816 430.724 266 434C266.195 437.137 266.195 437.137 266.125 440.688C266.107 441.867 266.089 443.046 266.07 444.262C266.036 445.617 266.036 445.617 266 447C263.69 447 261.38 447 259 447C259 448.32 259 449.64 259 451C260.32 451.66 261.64 452.32 263 453C260 454 260 454 257.812 452.938C256 451 256 451 255.75 447.812C255.832 446.884 255.915 445.956 256 445C258.64 445 261.28 445 264 445C264.107 441.197 264.005 437.683 263 434C261.028 432.22 259.128 431.218 256.75 430.055C256.173 429.707 255.595 429.359 255 429C254.438 426.25 254.438 426.25 255 424C256 423 256 423 258.312 422.812C261.078 423.005 262.64 423.602 265 425C265.144 423.866 265.289 422.731 265.438 421.562C266 418 266 418 267 417Z" fill="#B9D776"/>
    <path d="M207 441C208.675 441.286 210.344 441.618 212 442C212 442.66 212 443.32 212 444C212.701 443.505 213.403 443.01 214.125 442.5C217.388 440.797 219.371 440.67 223 441C224 442 224 442 224.5 444.75C224 448 224 448 222.543 449.472C219.735 451.5 217.302 452.899 214 454C213.67 456.31 213.34 458.62 213 461C213.66 461.33 214.32 461.66 215 462C213.68 462 212.36 462 211 462C211 458.7 211 455.4 211 452C213.311 451.088 215.622 450.177 217.934 449.265C220.185 448.18 220.185 448.18 220.785 445.859C220.856 445.245 220.927 444.632 221 444C220.093 444.33 219.185 444.66 218.25 445C215 446 215 446 211 446C210.67 445.34 210.34 444.68 210 444C209.01 444 208.02 444 207 444C206.67 445.32 206.34 446.64 206 448C204.35 448 202.7 448 201 448C201.33 447.34 201.66 446.68 202 446C202.99 446.33 203.98 446.66 205 447C205.144 446.195 205.289 445.391 205.438 444.562C206 442 206 442 207 441Z" fill="#BEDA78"/>
    <path d="M213 468C213.66 468.33 214.32 468.66 215 469C214.34 470.65 213.68 472.3 213 474C213.516 473.67 214.031 473.34 214.563 473C217.78 471.68 220.557 471.868 224 472C224.359 477.387 224.359 477.387 222.938 479.812C220.091 481.557 217.282 481.69 214 482C214 483.32 214 484.64 214 486C216.64 486 219.28 486 222 486C222.33 487.65 222.66 489.3 223 491C220.03 492.32 217.06 493.64 214 495C214.33 494.01 214.66 493.02 215 492C216.65 491.67 218.3 491.34 220 491C220 489.68 220 488.36 220 487C216.04 487.495 216.04 487.495 212 488C211.958 485.667 211.959 483.333 212 481C213.968 479.032 217.348 479.338 220 479C220.66 477.35 221.32 475.7 222 474C218.7 474.33 215.4 474.66 212 475C211.957 473 211.959 471 212 469C212.33 468.67 212.66 468.34 213 468Z" fill="#AACE71"/>
    <path d="M257.414 390.832C258.508 390.827 258.508 390.827 259.623 390.822C261.168 390.817 262.713 390.814 264.258 390.814C266.596 390.812 268.932 390.794 271.27 390.775C278.749 390.748 285.756 390.903 293 393C293 393.33 293 393.66 293 394C277.16 394 261.32 394 245 394C248.614 390.386 252.615 390.839 257.414 390.832Z" fill="#F5EF70"/>
    <path d="M329 442C330.98 442 332.96 442 335 442C335 443.32 335 444.64 335 446C337.64 446 340.28 446 343 446C343 447.65 343 449.3 343 451C342.34 451 341.68 451 341 451C341 449.68 341 448.36 341 447C338.69 447.33 336.38 447.66 334 448C333.67 446.68 333.34 445.36 333 444C332.34 444 331.68 444 331 444C330.34 445.98 329.68 447.96 329 450C326.69 449.67 324.38 449.34 322 449C323.168 452.814 323.168 452.814 326.125 455.312C326.744 455.539 327.363 455.766 328 456C327.01 456.495 327.01 456.495 326 457C322.766 455.787 321.991 454.987 320 452C319.875 449.312 319.875 449.312 320 447C323.287 446.2 324.71 445.903 328 447C328.33 445.35 328.66 443.7 329 442Z" fill="#AACE72"/>
    <path d="M326 483C327.65 483.33 329.3 483.66 331 484C331 485.98 331 487.96 331 490C328.03 490 325.06 490 322 490C323.255 492.511 324.501 492.871 327 494C325.188 494.688 325.188 494.688 323 495C321.25 493.938 321.25 493.938 320 492C319.812 488.812 319.812 488.812 320 486C326.75 485.875 326.75 485.875 329 487C329 486.34 329 485.68 329 485C328.01 485 327.02 485 326 485C326 484.34 326 483.68 326 483Z" fill="#A3C96F"/>
    <path d="M342 466C342.66 466.33 343.32 466.66 344 467C343.01 468.485 343.01 468.485 342 470C342.825 470.392 343.65 470.784 344.5 471.188C345.325 471.786 346.15 472.384 347 473C347.312 475.688 347.312 475.688 347 478C346.01 476.68 345.02 475.36 344 474C343.423 474.144 342.845 474.289 342.25 474.438C340.167 474.958 338.083 475.479 336 476C335.625 473.25 335.625 473.25 336 470C339 467.625 339 467.625 342 466Z" fill="#E3EF84"/>
    <path d="M197 467C203.625 467.75 203.625 467.75 207 470C207.408 472.712 207.133 475.244 207 478C204.36 478 201.72 478 199 478C199 479.32 199 480.64 199 482C200.32 482.33 201.64 482.66 203 483C200.625 483.125 200.625 483.125 198 483C197.34 482.34 196.68 481.68 196 481C196.375 478.375 196.375 478.375 197 476C199.64 476 202.28 476 205 476C204.452 473.018 204.452 473.018 203 470C199.982 468.548 199.982 468.548 197 468C197 467.67 197 467.34 197 467Z" fill="#A1C86F"/>
    <path d="M267 417C270.692 417.692 270.692 417.692 272 419C272.041 420.666 272.043 422.334 272 424C272.99 424.33 273.98 424.66 275 425C273.68 425 272.36 425 271 425C270.67 423.35 270.34 421.7 270 420C269.01 419.67 268.02 419.34 267 419C267 421.64 267 424.28 267 427C265.02 427 263.04 427 261 427C260.67 426.34 260.34 425.68 260 425C259.01 424.67 258.02 424.34 257 424C257 424.99 257 425.98 257 427C256.34 427 255.68 427 255 427C255.33 425.68 255.66 424.36 256 423C259.625 422.799 261.865 423.142 265 425C265.144 423.866 265.289 422.731 265.438 421.562C266 418 266 418 267 417Z" fill="#9DC66D"/>
    <path d="M199 452C204.875 453.875 204.875 453.875 206 455C206.141 457.671 206.042 460.324 206 463C199.375 463.125 199.375 463.125 196 462C196.33 463.65 196.66 465.3 197 467C195.68 466.34 194.36 465.68 193 465C193.33 463.35 193.66 461.7 194 460C198.219 459.804 201.17 460.198 205 462C204.125 457.045 204.125 457.045 200.875 453.562C200.256 453.377 199.637 453.191 199 453C199 452.67 199 452.34 199 452Z" fill="#B2D374"/>
    <path d="M344 480C344 480.66 344 481.32 344 482C342.02 482.66 340.04 483.32 338 484C338 484.99 338 485.98 338 487C338.99 486.67 339.98 486.34 341 486C343.333 485.96 345.667 485.956 348 486C348 487.65 348 489.3 348 491C347.67 489.68 347.34 488.36 347 487C345.35 487 343.7 487 342 487C341.67 487.99 341.34 488.98 341 490C339.35 490 337.7 490 336 490C335.634 484.506 335.634 484.506 337.312 482.188C339.483 480.66 341.338 480 344 480Z" fill="#9EC76E"/>
    <path d="M213 468C213.66 468.33 214.32 468.66 215 469C214.34 470.65 213.68 472.3 213 474C213.516 473.67 214.031 473.34 214.563 473C217.78 471.68 220.557 471.868 224 472C224.369 477.538 224.369 477.538 222.5 479.875C222.005 480.246 221.51 480.618 221 481C220.01 480.67 219.02 480.34 218 480C218.99 479.34 219.98 478.68 221 478C221.33 476.68 221.66 475.36 222 474C218.7 474.33 215.4 474.66 212 475C211.957 473 211.959 471 212 469C212.33 468.67 212.66 468.34 213 468Z" fill="#BCD977"/>
    <path d="M265 472C265.33 472 265.66 472 266 472C266 475.96 266 479.92 266 484C263.03 484 260.06 484 257 484C257 485.32 257 486.64 257 488C257.66 488 258.32 488 259 488C259 488.66 259 489.32 259 490C258.01 489.67 257.02 489.34 256 489C254.875 483.25 254.875 483.25 256 481C257.65 481 259.3 481 261 481C261 481.66 261 482.32 261 483C262.32 483 263.64 483 265 483C265 479.37 265 475.74 265 472Z" fill="#C0DB79"/>
    <path d="M263 454C263.66 454 264.32 454 265 454C266.607 457.215 266.057 460.436 266 464C262.7 463.67 259.4 463.34 256 463C255.67 464.32 255.34 465.64 255 467C254.67 465.35 254.34 463.7 254 462C257.3 462 260.6 462 264 462C263.67 459.36 263.34 456.72 263 454Z" fill="#C7DF7A"/>
    <path d="M327 470C327.66 470 328.32 470 329 470C329.33 472.31 329.66 474.62 330 477C327.36 476.67 324.72 476.34 322 476C322.27 478.437 322.27 478.437 323 481C323.99 481.66 324.98 482.32 326 483C321.125 482.125 321.125 482.125 320 481C319.875 478.5 319.875 478.5 320 476C321 475 321 475 324.562 474.938C325.697 474.958 326.831 474.979 328 475C327.67 473.35 327.34 471.7 327 470Z" fill="#A7CC71"/>
    <path d="M301 396C308.944 396.19 314.971 398.379 322 402C322 402.33 322 402.66 322 403C320.35 403 318.7 403 317 403C317 402.34 317 401.68 317 401C316.264 400.879 315.528 400.758 314.77 400.633C313.794 400.465 312.818 400.298 311.812 400.125C310.85 399.963 309.887 399.8 308.895 399.633C306.09 399.02 303.628 398.143 301 397C301 396.67 301 396.34 301 396Z" fill="#F4EC6B"/>
    <path d="M338.062 466.938C339.517 466.968 339.517 466.968 341 467C340.041 467.557 340.041 467.557 339.062 468.125C336.361 470.581 336.316 472.446 336 476C336.99 476 337.98 476 339 476C339 476.66 339 477.32 339 478C337.35 477.67 335.7 477.34 334 477C333.973 475.521 333.954 474.042 333.938 472.562C333.926 471.739 333.914 470.915 333.902 470.066C334.061 466.699 334.626 467.008 338.062 466.938Z" fill="#90BE6A"/>
    <path d="M216 450C216.66 450.33 217.32 450.66 218 451C217.67 451.66 217.34 452.32 217 453C216.01 453.33 215.02 453.66 214 454C213.67 456.31 213.34 458.62 213 461C213.66 461.33 214.32 461.66 215 462C213.68 462 212.36 462 211 462C211 458.7 211 455.4 211 452C213.375 450.938 213.375 450.938 216 450Z" fill="#A8CD71"/>
    <path d="M203 483C204.32 483.33 205.64 483.66 207 484C207 485.98 207 487.96 207 490C204.36 490 201.72 490 199 490C199 490.99 199 491.98 199 493C198.34 493 197.68 493 197 493C197.33 491.35 197.66 489.7 198 488C200.64 488 203.28 488 206 488C205.224 484.925 205.224 484.925 203 483Z" fill="#A6CC70"/>
    <path d="M341 451C341.33 451.99 341.66 452.98 342 454C341.041 454.65 341.041 454.65 340.062 455.312C337.733 456.912 337.733 456.912 337 460C337.66 460.33 338.32 460.66 339 461C337.68 461.33 336.36 461.66 335 462C334.625 458.75 334.625 458.75 335 455C338 452.562 338 452.562 341 451Z" fill="#D8EA80"/>
    <path d="M334 453C336.062 453.438 336.062 453.438 338 454C337.01 454.495 337.01 454.495 336 455C335.593 457.322 335.256 459.657 335 462C336.32 461.67 337.64 461.34 339 461C339 461.66 339 462.32 339 463C337.344 463.382 335.675 463.714 334 464C333 463 333 463 332.867 460.969C332.87 460.154 332.872 459.339 332.875 458.5C332.872 457.685 332.87 456.871 332.867 456.031C333 454 333 454 334 453Z" fill="#94C06B"/>
    <path d="M263 420C263.66 420 264.32 420 265 420C265 421.65 265 423.3 265 425C262.03 424.67 259.06 424.34 256 424C255.34 424.99 254.68 425.98 254 427C254.33 425.35 254.66 423.7 255 422C259.75 420.875 259.75 420.875 262 422C262.33 421.34 262.66 420.68 263 420Z" fill="#D3E67E"/>
    <path d="M342 485C344.31 485 346.62 485 349 485C349.25 488.312 349.25 488.312 349 492C347.25 494 347.25 494 345 495C342.75 494.688 342.75 494.688 341 494C345.75 491 345.75 491 348 491C348 489.35 348 487.7 348 486C346.02 486 344.04 486 342 486C342 485.67 342 485.34 342 485Z" fill="#D4E77E"/>
    <path d="M257 446C258.65 446 260.3 446 262 446C261.01 446.33 260.02 446.66 259 447C259 448.32 259 449.64 259 451C260.32 451.66 261.64 452.32 263 453C262.01 453.33 261.02 453.66 260 454C259.01 453.34 258.02 452.68 257 452C256.812 448.875 256.812 448.875 257 446Z" fill="#A4CB70"/>
    <path d="M281 483C280.67 484.65 280.34 486.3 280 488C277.69 488 275.38 488 273 488C277.625 483 277.625 483 281 483Z" fill="#74AE61"/>
    <path d="M276 443C277.65 443.33 279.3 443.66 281 444C281 445.98 281 447.96 281 450C280.01 450.33 279.02 450.66 278 451C278 450.01 278 449.02 278 448C278.66 448 279.32 448 280 448C280 447.01 280 446.02 280 445C278.35 445.33 276.7 445.66 275 446C275.33 445.01 275.66 444.02 276 443Z" fill="#A2C96F"/>
    <path d="M344 480C344 480.66 344 481.32 344 482C342.02 482.66 340.04 483.32 338 484C338 484.99 338 485.98 338 487C338.99 487.33 339.98 487.66 341 488C339.68 488 338.36 488 337 488C336.688 485.688 336.688 485.688 337 483C339.383 481.181 340.958 480 344 480Z" fill="#B4D475"/>
    <path d="M197.562 443.938C198.769 443.968 198.769 443.968 200 444C198.68 444.33 197.36 444.66 196 445C196.99 447.31 197.98 449.62 199 452C197.062 451.312 197.062 451.312 195 450C194.188 447.438 194.188 447.438 194 445C195 444 195 444 197.562 443.938Z" fill="#AFD173"/>
    <path d="M275 422C276.65 422 278.3 422 280 422C280 423.98 280 425.96 280 428C279.01 428.495 279.01 428.495 278 429C278 427.35 278 425.7 278 424C277.01 424 276.02 424 275 424C275 423.34 275 422.68 275 422Z" fill="#A5CB70"/>
    <path d="M256 467C257.316 467.255 258.628 467.529 259.938 467.812C260.668 467.963 261.399 468.114 262.152 468.27C262.762 468.511 263.372 468.752 264 469C264.33 469.99 264.66 470.98 265 472C260.686 471.521 258.834 470.254 256 467Z" fill="#A1C96F"/>
    <path d="M340 472C342 471.957 344 471.959 346 472C347 473 347 473 347.062 475.563C347.042 476.367 347.021 477.171 347 478C346.01 476.68 345.02 475.36 344 474C342.35 474.33 340.7 474.66 339 475C339.33 474.01 339.66 473.02 340 472Z" fill="#C6DF7A"/>
    <path d="M276 442C278 441.957 280 441.959 282 442C283 443 283 443 283.062 445.563C283.042 446.367 283.021 447.171 283 448C282.34 448 281.68 448 281 448C280.876 447.072 280.876 447.072 280.75 446.125C280.187 443.816 280.187 443.816 277.938 442.75C277.298 442.503 276.659 442.255 276 442Z" fill="#D7E97F"/>
    <path d="M10 352C10.66 352 11.32 352 12 352C12 352.66 12 353.32 12 354C11.34 354 10.68 354 10 354C10 353.34 10 352.68 10 352Z" fill="#76AF62"/>
    <path d="M21 357C23 358 23 358 23 358L21 357Z" fill="#76AF62"/>
    <path d="M540 331C542 332 542 332 542 332L540 331Z" fill="#76AF62"/>
</svg>
