<?xml version="1.0" encoding="UTF-8"?>
<svg version="1.1" xmlns="http://www.w3.org/2000/svg" width="842" height="595">
<path d="M0 0 C1.63264254 0.95418838 1.63264254 0.95418838 3.63793945 0.80688477 C4.97276504 2.13872417 6.30576102 3.47239753 7.63793945 4.80688477 C9.63557802 6.21537067 11.659095 7.58752426 13.70043945 8.93188477 C19.33401837 12.71984312 24.26418967 16.87228321 29.20043945 21.54516602 C31.59523286 23.83228365 31.59523286 23.83228365 34.18481445 25.79125977 C41.58831713 31.87439254 54.11532917 45.93370869 55.63793945 55.80688477 C56.29793945 55.80688477 56.95793945 55.80688477 57.63793945 55.80688477 C58.07106445 57.01344727 58.07106445 57.01344727 58.51293945 58.24438477 C59.37056513 60.93953156 59.37056513 60.93953156 61.63793945 61.80688477 C61.98077236 63.8052783 62.3122087 65.80563251 62.63793945 67.80688477 C63.48819588 69.95052801 64.38952337 72.07423123 65.32543945 74.18188477 C83.64787814 118.06180506 86.40507099 182.1284957 79.63793945 228.80688477 C79.30793945 229.46688477 78.97793945 230.12688477 78.63793945 230.80688477 C79.40750977 230.56711914 79.40750977 230.56711914 80.19262695 230.32250977 C103.14756905 225.48217054 130.3104252 235.06189967 149.63793945 246.82250977 C153.3416792 249.27237929 156.90813015 251.86583601 160.4543457 254.53735352 C164.61188641 257.50119542 168.92791774 260.17452891 173.26293945 262.86938477 C187.88162877 271.98349711 187.88162877 271.98349711 193.16918945 277.36547852 C195.1060627 279.26629295 197.21759082 280.59671045 199.63793945 281.80688477 C200.02838152 283.12462673 200.34749031 284.46355748 200.63793945 285.80688477 C201.29303448 287.81070485 201.95768308 289.81146608 202.63793945 291.80688477 C203.29793945 291.80688477 203.95793945 291.80688477 204.63793945 291.80688477 C205.124558 300.43084681 204.56273969 307.04489144 200.63793945 314.80688477 C199.97793945 314.80688477 199.31793945 314.80688477 198.63793945 314.80688477 C198.40075195 315.36891602 198.16356445 315.93094727 197.91918945 316.51000977 C196.34846249 319.32582518 194.42322481 321.28643893 192.13793945 323.55688477 C191.34387695 324.35610352 190.54981445 325.15532227 189.73168945 325.97875977 C187.63793945 327.80688477 187.63793945 327.80688477 185.63793945 327.80688477 C185.63793945 328.46688477 185.63793945 329.12688477 185.63793945 329.80688477 C174.94202574 334.122239 167.05664062 335.73666868 155.63793945 333.80688477 C155.48792984 334.77090367 155.33792023 335.73492258 155.18336487 336.72815418 C151.6219483 359.58331928 147.89757298 382.40429506 143.97700882 405.20047164 C143.28133843 409.24883705 142.58861505 413.29770696 141.89550781 417.34651184 C140.58735607 424.98561326 139.27673522 432.6242887 137.9651289 440.26279765 C136.49200648 448.84266986 135.0217169 457.42302673 133.55165672 466.00342405 C131.87326718 475.7995511 130.19476239 485.59565864 128.51394749 495.39136988 C128.25735094 496.88702833 128.00087731 498.38270787 127.74452877 499.87840885 C127.12098945 503.51539718 126.49525891 507.15198001 125.8646698 510.78775311 C124.69927271 517.52079086 123.5572506 524.25561565 122.48840809 531.00474876 C121.98105283 534.19999649 121.46173268 537.3932516 120.94155693 540.58643401 C120.69904158 542.09629195 120.4623129 543.60709331 120.2320118 545.11886251 C117.30978521 564.28095031 117.30978521 564.28095031 110.33214092 571.04066849 C105.16307796 574.22492888 98.69337164 573.35956894 92.83906555 573.32154846 C91.41296186 573.32687518 89.98686379 573.33394159 88.56077641 573.34259552 C84.64646064 573.36123259 80.73252294 573.35491443 76.81819141 573.34444249 C72.59526255 573.33745371 68.3724116 573.3534457 64.14950562 573.36643982 C55.87946999 573.38808831 47.60957192 573.38795112 39.33951727 573.37981427 C32.62056439 573.37351751 25.90165166 573.37464832 19.1826992 573.38108635 C18.22687868 573.381988 17.27105816 573.38288966 16.28627339 573.38381864 C14.34465477 573.3856698 12.40303617 573.38753236 10.46141758 573.3894062 C-7.74697899 573.40598674 -25.95529809 573.39726233 -44.16369001 573.38042062 C-60.83528808 573.36571391 -77.50670609 573.38036527 -94.17828097 573.40919078 C-111.28802286 573.43855424 -128.39768155 573.4495666 -145.50744754 573.44000858 C-147.44105421 573.438986 -149.37466089 573.43799139 -151.30826759 573.43702507 C-152.25969357 573.43654868 -153.21111955 573.43607229 -154.19137662 573.43558146 C-160.90617257 573.43341381 -167.62089003 573.44323968 -174.33566856 573.4577961 C-182.51292993 573.47527548 -190.68996142 573.47526513 -198.86721357 573.45244444 C-203.04184211 573.44126369 -207.21606498 573.43822584 -211.3906765 573.45674515 C-215.2082873 573.47346346 -219.0251359 573.46731833 -222.84269653 573.44252836 C-224.22748396 573.43761606 -225.61233188 573.44123913 -226.99706908 573.4540158 C-228.8718847 573.47007312 -230.74689946 573.45263917 -232.62168407 573.43329716 C-233.66532059 573.43302747 -234.7089571 573.43275778 -235.78421897 573.43247992 C-238.36206055 572.80688477 -238.36206055 572.80688477 -240.17978036 570.40170819 C-241.25862523 568.03390065 -241.95063632 566.03118478 -242.42344666 563.4838562 C-242.66387979 562.22916015 -242.66387979 562.22916015 -242.90917015 560.94911671 C-243.15449958 559.58682957 -243.15449958 559.58682957 -243.40478516 558.19702148 C-243.58806681 557.2248981 -243.77134846 556.25277472 -243.9601841 555.25119305 C-244.57105446 551.99800983 -245.16766364 548.74237457 -245.7644043 545.48657227 C-246.19825802 543.16063896 -246.63300715 540.83487252 -247.06858826 538.50926208 C-248.24547712 532.21229333 -249.41019529 525.913128 -250.57274628 519.61349869 C-251.66341539 513.71365598 -252.76301977 507.81548255 -253.86284685 501.91734183 C-255.88754481 491.05859506 -257.90598652 480.19869945 -259.9201026 469.3379854 C-262.77751728 453.93123518 -265.65660691 438.52863551 -268.54662514 423.12796783 C-269.71690124 416.89165748 -270.88621712 410.65516706 -272.05566406 404.41870117 C-272.39157263 402.62738895 -272.39157263 402.62738895 -272.73426723 400.79988861 C-273.18050801 398.42019608 -273.62673773 396.04050148 -274.07295609 393.66080475 C-274.51700724 391.29284653 -274.96112741 388.92490125 -275.4053154 386.55696869 C-276.6672933 379.82896712 -277.92758901 373.10065531 -279.18507576 366.37181282 C-279.56534874 364.33858315 -279.94626146 362.30547302 -280.32784843 360.27248955 C-280.845315 357.51513907 -281.36057602 354.75738569 -281.87524414 351.99951172 C-282.02774596 351.18972303 -282.18024778 350.37993435 -282.33737087 349.54560661 C-283.36206055 344.03523204 -283.36206055 344.03523204 -283.36206055 341.80688477 C-283.94906738 341.76225098 -284.53607422 341.71761719 -285.14086914 341.67163086 C-291.88795753 341.08659266 -298.379958 339.89625578 -304.98706055 338.43188477 C-305.9719043 338.22305664 -306.95674805 338.01422852 -307.97143555 337.79907227 C-314.84082253 336.29696631 -321.44336928 334.75267894 -327.36206055 330.80688477 C-328.02206055 331.13688477 -328.68206055 331.46688477 -329.36206055 331.80688477 C-329.36206055 331.14688477 -329.36206055 330.48688477 -329.36206055 329.80688477 C-330.35206055 329.47688477 -331.34206055 329.14688477 -332.36206055 328.80688477 C-332.03206055 328.14688477 -331.70206055 327.48688477 -331.36206055 326.80688477 C-332.02206055 326.80688477 -332.68206055 326.80688477 -333.36206055 326.80688477 C-337.35744685 319.19583896 -337.81886791 314.00761676 -335.36206055 305.80688477 C-333.77364904 300.83028903 -332.27041889 296.16942229 -329.36206055 291.80688477 C-329.06170898 291.14817383 -328.76135742 290.48946289 -328.4519043 289.81079102 C-327.21204435 287.53104854 -325.93287263 286.3769212 -323.92456055 284.74438477 C-319.69807512 281.192586 -315.85958327 277.34546202 -312.04394531 273.36328125 C-310.85264541 272.14164881 -309.61095347 270.96957464 -308.36206055 269.80688477 C-307.70206055 269.80688477 -307.04206055 269.80688477 -306.36206055 269.80688477 C-306.36206055 269.14688477 -306.36206055 268.48688477 -306.36206055 267.80688477 C-304.41380628 266.13695254 -302.5600951 264.9000775 -300.23706055 263.80688477 C-298.02828874 262.81878091 -298.02828874 262.81878091 -296.36206055 259.80688477 C-294.62768555 258.77954102 -294.62768555 258.77954102 -292.61206055 257.86938477 C-289.90882444 256.59640631 -287.43867938 255.26577178 -284.98706055 253.55688477 C-282.36206055 251.80688477 -282.36206055 251.80688477 -280.36206055 251.80688477 C-280.36206055 251.14688477 -280.36206055 250.48688477 -280.36206055 249.80688477 C-279.04206055 249.80688477 -277.72206055 249.80688477 -276.36206055 249.80688477 C-276.36206055 248.81688477 -276.36206055 247.82688477 -276.36206055 246.80688477 C-275.62793945 246.67636719 -274.89381836 246.54584961 -274.13745117 246.41137695 C-271.58106466 245.85458482 -269.37143342 245.12283079 -266.95581055 244.13500977 C-266.1352417 243.80259277 -265.31467285 243.47017578 -264.46923828 243.12768555 C-263.60886963 242.77432129 -262.74850098 242.42095703 -261.86206055 242.05688477 C-260.0720169 241.32953194 -258.28165155 240.60297031 -256.4909668 239.87719727 C-255.61843262 239.52302734 -254.74589844 239.16885742 -253.84692383 238.80395508 C-249.5234637 237.06913378 -245.16191139 235.43855881 -240.7956543 233.81469727 C-238.17213364 232.82047781 -238.17213364 232.82047781 -235.36206055 230.80688477 C-232.26757813 230.57983398 -232.26757813 230.57983398 -228.5065918 230.61157227 C-227.84495529 230.61440216 -227.18331879 230.61723206 -226.50163269 230.62014771 C-224.39242318 230.63132558 -222.2836413 230.65642496 -220.17456055 230.68188477 C-218.74292606 230.6919177 -217.31128491 230.701043 -215.87963867 230.70922852 C-212.37364078 230.73125681 -208.86789241 230.76576991 -205.36206055 230.80688477 C-206.65883427 215.7178927 -206.65883427 215.7178927 -208.89160156 200.74707031 C-214.47598478 165.8468487 -209.62982521 128.28428891 -203.36206055 93.80688477 C-203.17804688 92.78949219 -202.9940332 91.77209961 -202.80444336 90.72387695 C-199.67287313 74.12829126 -193.84052948 57.34862192 -184.18237305 43.37646484 C-183.91166992 42.85850342 -183.6409668 42.34054199 -183.36206055 41.80688477 C-183.69206055 41.14688477 -184.02206055 40.48688477 -184.36206055 39.80688477 C-183.47647461 39.45883789 -183.47647461 39.45883789 -182.57299805 39.10375977 C-179.80275594 37.4788121 -178.74243618 35.74157691 -176.98706055 33.05688477 C-169.91218753 23.00102593 -160.67121149 13.54748346 -150.36206055 6.80688477 C-149.70206055 6.80688477 -149.04206055 6.80688477 -148.36206055 6.80688477 C-148.36206055 6.14688477 -148.36206055 5.48688477 -148.36206055 4.80688477 C-147.07292567 4.13533544 -145.78065851 3.46979618 -144.48706055 2.80688477 C-143.76776367 2.43563477 -143.0484668 2.06438477 -142.30737305 1.68188477 C-140.36206055 0.80688477 -140.36206055 0.80688477 -138.36206055 0.80688477 C-138.36206055 -0.18311523 -138.36206055 -1.17311523 -138.36206055 -2.19311523 C-137.64832275 -2.31388428 -136.93458496 -2.43465332 -136.19921875 -2.55908203 C-133.26707213 -3.21434275 -130.73352807 -4.16953255 -127.9675293 -5.33764648 C-126.93732666 -5.76561523 -125.90712402 -6.19358398 -124.84570312 -6.63452148 C-123.75797607 -7.08698242 -122.67024902 -7.53944336 -121.54956055 -8.00561523 C-111.89682565 -11.93638599 -102.60796329 -15.23935108 -92.36206055 -17.19311523 C-90.74170898 -17.52569336 -90.74170898 -17.52569336 -89.08862305 -17.86499023 C-57.44368299 -23.42728374 -27.46800199 -15.77602339 0 0 Z M-98.36206055 28.80688477 C-99.96558293 29.39198683 -101.56966425 29.97556184 -103.17456055 30.55688477 C-104.22643555 30.96938477 -105.27831055 31.38188477 -106.36206055 31.80688477 C-106.36206055 32.46688477 -106.36206055 33.12688477 -106.36206055 33.80688477 C-107.10456055 33.76563477 -107.84706055 33.72438477 -108.61206055 33.68188477 C-111.44965007 33.81086611 -112.94979992 34.37739699 -115.36206055 35.80688477 C-115.36206055 36.46688477 -115.36206055 37.12688477 -115.36206055 37.80688477 C-116.68206055 37.80688477 -118.00206055 37.80688477 -119.36206055 37.80688477 C-119.36206055 38.46688477 -119.36206055 39.12688477 -119.36206055 39.80688477 C-121.01206055 40.13688477 -122.66206055 40.46688477 -124.36206055 40.80688477 C-124.36206055 41.46688477 -124.36206055 42.12688477 -124.36206055 42.80688477 C-125.35206055 42.80688477 -126.34206055 42.80688477 -127.36206055 42.80688477 C-127.36206055 43.46688477 -127.36206055 44.12688477 -127.36206055 44.80688477 C-129.01206055 45.46688477 -130.66206055 46.12688477 -132.36206055 46.80688477 C-132.36206055 47.46688477 -132.36206055 48.12688477 -132.36206055 48.80688477 C-133.02206055 48.80688477 -133.68206055 48.80688477 -134.36206055 48.80688477 C-135.72613274 50.22070669 -135.72613274 50.22070669 -136.98706055 52.05688477 C-137.43307617 52.66016602 -137.8790918 53.26344727 -138.33862305 53.88500977 C-139.67541352 56.03242023 -139.67541352 56.03242023 -139.36206055 59.80688477 C-140.02206055 59.80688477 -140.68206055 59.80688477 -141.36206055 59.80688477 C-141.36206055 60.79688477 -141.36206055 61.78688477 -141.36206055 62.80688477 C-142.35206055 63.30188477 -142.35206055 63.30188477 -143.36206055 63.80688477 C-144.45586583 66.12276141 -144.45586583 66.12276141 -145.48706055 69.05688477 C-145.92276367 70.23379883 -146.3584668 71.41071289 -146.80737305 72.62329102 C-147.05132812 73.28603027 -147.2952832 73.94876953 -147.54663086 74.6315918 C-148.43513087 77.00181189 -149.3604712 79.35549696 -150.29174805 81.70922852 C-164.97865274 119.01207858 -168.48736894 156.55509833 -168.61206055 196.36938477 C-168.61750885 197.44722229 -168.62295715 198.52505981 -168.62857056 199.63555908 C-168.64031634 202.75660606 -168.63665938 205.87724148 -168.62768555 208.99829102 C-168.63162827 209.92447739 -168.63557098 210.85066376 -168.63963318 211.80491638 C-168.59281556 218.53330456 -167.60348841 223.97903151 -166.36206055 230.80688477 C-99.04206055 230.80688477 -31.72206055 230.80688477 37.63793945 230.80688477 C38.27614393 226.33945346 38.76501866 222.57549593 38.78320312 218.16748047 C38.78949738 217.10182358 38.79579163 216.03616669 38.80227661 214.93821716 C38.80347504 213.79788528 38.80467346 212.65755341 38.8059082 211.48266602 C38.81000702 210.27880753 38.81410583 209.07494904 38.81832886 207.83460999 C38.82789001 203.92950594 38.8278572 200.02449882 38.82543945 196.11938477 C38.82579322 194.7842814 38.82619002 193.44917805 38.82662964 192.11407471 C38.82547426 175.78493966 38.65922525 159.48601454 37.70043945 143.18188477 C37.65696381 142.42904205 37.61348816 141.67619934 37.56869507 140.90054321 C37.79178244 133.8134918 37.79178244 133.8134918 35.63793945 127.80688477 C35.45424805 125.89069336 35.45424805 125.89069336 35.2668457 123.93579102 C34.69932487 118.33055099 33.18968759 113.12646035 31.57543945 107.74438477 C31.2937793 106.78338867 31.01211914 105.82239258 30.72192383 104.83227539 C30.03392662 102.48842048 29.33917935 100.14680484 28.63793945 97.80688477 C27.97793945 97.80688477 27.31793945 97.80688477 26.63793945 97.80688477 C26.96793945 96.81688477 27.29793945 95.82688477 27.63793945 94.80688477 C27.03810623 92.546719 27.03810623 92.546719 25.9855957 90.13891602 C25.62143555 89.24624023 25.25727539 88.35356445 24.88208008 87.43383789 C24.49213867 86.50506836 24.10219727 85.57629883 23.70043945 84.61938477 C23.31436523 83.67901367 22.92829102 82.73864258 22.53051758 81.76977539 C21.57472296 79.44518848 20.61026938 77.12459278 19.63793945 74.80688477 C18.97793945 74.80688477 18.31793945 74.80688477 17.63793945 74.80688477 C17.52192383 74.07985352 17.4059082 73.35282227 17.28637695 72.60375977 C16.62357908 69.74494484 15.68031074 67.61674321 14.26293945 65.05688477 C13.84270508 64.27829102 13.4224707 63.49969727 12.98950195 62.69750977 C11.6988962 60.50061723 11.6988962 60.50061723 8.63793945 59.80688477 C7.45043945 57.24438477 7.45043945 57.24438477 6.63793945 54.80688477 C5.97793945 54.80688477 5.31793945 54.80688477 4.63793945 54.80688477 C4.39430664 54.22422852 4.15067383 53.64157227 3.8996582 53.04125977 C-3.33819074 40.22376877 -23.4656919 33.92124536 -36.76049805 30.05688477 C-56.47492275 24.58566096 -78.88759546 20.80485861 -98.36206055 28.80688477 Z " fill="#FAFAF9" transform="translate(477.362060546875,22.193115234375)"/>
<path d="M0 0 C0.98121826 0.39501709 1.96243652 0.79003418 2.97338867 1.19702148 C4.0172876 1.63087158 5.06118652 2.06472168 6.13671875 2.51171875 C7.22380127 2.95523682 8.31088379 3.39875488 9.4309082 3.85571289 C38.19825779 15.68189989 38.19825779 15.68189989 50.82421875 22.19921875 C50.69955734 22.80680023 50.57489594 23.41438171 50.44645691 24.04037476 C49.23146821 30.02805349 48.13535034 36.0255056 47.125 42.05078125 C46.89153366 43.4308007 46.89153366 43.4308007 46.65335083 44.83869934 C46.3199866 46.80935018 45.98721769 48.7801018 45.65499878 50.75094604 C44.764745 56.02993133 43.86890957 61.30796795 42.97265625 66.5859375 C42.70052559 68.18868279 42.70052559 68.18868279 42.42289734 69.82380676 C40.73224394 79.76668544 39.00529359 89.70299934 37.26171875 99.63671875 C37.11990173 100.44526306 36.97808472 101.25380737 36.83197021 102.08685303 C35.5368217 109.46940174 34.23790638 116.85128596 32.9375 124.23291016 C29.52712629 143.59449846 26.16765165 162.96194788 22.95947266 182.3581543 C21.19421253 193.02533738 19.37157951 203.68123725 17.51391602 214.33276367 C16.17693499 222.03423444 14.9130909 229.74361488 13.81176758 237.48266602 C13.22063126 241.44841762 12.34295839 244.40236966 10.82421875 248.19921875 C-94.77578125 248.19921875 -200.37578125 248.19921875 -309.17578125 248.19921875 C-312.14578125 232.02921875 -315.11578125 215.85921875 -318.17578125 199.19921875 C-321.54375787 181.65760377 -321.54375787 181.65760377 -324.91796875 164.1171875 C-327.51438901 150.5628596 -329.94228594 136.97859852 -332.36901855 123.39306641 C-335.47191549 106.02437061 -338.69768397 88.68271414 -342.0065918 71.35223389 C-343.59430242 63.02509917 -345.13226034 54.68885435 -346.66699219 46.35180664 C-346.85293945 45.34239014 -347.03888672 44.33297363 -347.23046875 43.29296875 C-347.39015137 42.42349609 -347.54983398 41.55402344 -347.71435547 40.65820312 C-348.18170361 38.16765791 -348.67380061 35.68299452 -349.17578125 33.19921875 C-344.13268501 29.52846949 -339.10019898 26.1116451 -333.61328125 23.13671875 C-327.10293371 19.44921721 -321.54994872 14.76313353 -315.87475586 9.90991211 C-315.17874268 9.31702393 -314.48272949 8.72413574 -313.765625 8.11328125 C-313.14550537 7.57654785 -312.52538574 7.03981445 -311.88647461 6.48681641 C-310.17578125 5.19921875 -310.17578125 5.19921875 -307.17578125 4.19921875 C-304.5222435 5.15711018 -301.99733949 6.17925207 -299.42578125 7.32421875 C-293.82713217 9.79579128 -288.17272081 11.91573715 -282.35839844 13.82763672 C-281.66587982 14.05684311 -280.97336121 14.2860495 -280.25985718 14.52220154 C-278.56565915 15.08270252 -276.87078811 15.64116854 -275.17578125 16.19921875 C-275.17154931 17.031358 -275.16731737 17.86349726 -275.16295719 18.72085285 C-275.05973883 38.95070541 -274.95111436 59.18052261 -274.83644199 79.41031361 C-274.78111869 89.19320792 -274.72763814 98.97610588 -274.6784668 108.7590332 C-274.63561404 117.28391634 -274.58933326 125.80877272 -274.5389027 134.33361453 C-274.51231058 138.84916416 -274.4874577 143.36470851 -274.46670723 147.88028908 C-274.44713432 152.12784545 -274.42298853 156.37535094 -274.39529037 160.62286186 C-274.38592342 162.18416038 -274.37824685 163.74547006 -274.37236214 165.30678558 C-274.36409493 167.43401597 -274.34981655 169.56112305 -274.33399963 171.68830872 C-274.32754708 172.88018704 -274.32109453 174.07206537 -274.31444645 175.30006123 C-274.30357538 178.26674213 -274.30357538 178.26674213 -273.17578125 181.19921875 C-242.17667388 181.14012647 -211.17764854 181.06581812 -180.17863395 180.97023247 C-176.51988717 180.95896415 -172.86114 180.94782572 -169.20239258 180.93676758 C-168.47399413 180.93456389 -167.74559567 180.93236021 -166.99512454 180.93008975 C-155.1971027 180.89470608 -143.39908093 180.86984799 -131.60102568 180.84887173 C-119.4973962 180.82711818 -107.39383565 180.79407204 -95.29026479 180.75051719 C-87.82018815 180.72399272 -80.35019742 180.70630323 -72.88007601 180.69987271 C-67.15440472 180.69400092 -61.42887623 180.67242655 -55.70327187 180.64494324 C-53.35266476 180.63613104 -51.00203212 180.63244697 -48.65140915 180.63421059 C-45.44745724 180.63585582 -42.24410701 180.61922771 -39.04023743 180.59794617 C-37.63799666 180.60521753 -37.63799666 180.60521753 -36.2074278 180.61263579 C-31.39819498 180.55974766 -28.05191257 180.38637665 -24.17578125 177.19921875 C-22.70504586 174.25774796 -23.03410682 171.63815247 -23.01756287 168.35299683 C-23.0101559 167.28462639 -23.0101559 167.28462639 -23.0025993 166.1946727 C-22.98718091 163.79628813 -22.97885198 161.39793042 -22.97045898 158.99951172 C-22.96088387 157.28495038 -22.95087401 155.57039141 -22.94046021 153.85583496 C-22.91336536 149.1908281 -22.89238064 144.52581107 -22.87245822 139.8607688 C-22.85062686 134.98936442 -22.82322426 130.11799154 -22.79640198 125.24661255 C-22.74643647 116.01729529 -22.70151198 106.78796058 -22.65837961 97.55860913 C-22.60904017 87.05330049 -22.55410985 76.54802345 -22.49870002 66.04274535 C-22.38482076 44.4282659 -22.2779947 22.81375631 -22.17578125 1.19921875 C-20.4135382 0.70188884 -18.65004499 0.20898725 -16.8860321 -0.2820282 C-15.41316758 -0.6944629 -15.41316758 -0.6944629 -13.91054821 -1.11522961 C-8.69331398 -2.42308638 -4.92792183 -2.00684809 0 0 Z " fill="#000000" transform="translate(563.17578125,325.80078125)"/>
<path d="M0 0 C1.15873788 -0.00568292 2.31747576 -0.01136584 3.51132691 -0.01722097 C4.54523857 -0.02441758 5.57915023 -0.03161419 6.64439255 -0.03902888 C25.51530308 0.38728509 47.68604425 12.72062942 62.23177159 23.72590113 C65.44240314 26.06814846 68.72834628 28.23947346 72.05843174 30.40607691 C96.24208893 46.17027532 96.24208893 46.17027532 99.03645909 56.43293238 C99.81478858 61.39478286 99.69968217 65.00860868 96.73567784 69.30793238 C96.28837315 69.87383081 95.84106846 70.43972925 95.38020909 71.02277613 C94.8813419 71.68148706 94.38247471 72.340198 93.86849034 73.01886988 C89.17869535 78.80185717 83.52167852 83.64228632 76.38020909 86.02277613 C61.86722881 86.97675436 52.16246187 84.03828697 39.2535001 77.43659449 C29.88507138 72.68074617 20.23269277 68.55018921 10.58284581 64.40412378 C7.43639628 63.04701055 4.30110458 61.6661348 1.16536534 60.28449488 C-0.78316521 59.44565487 -2.73235502 58.60834412 -4.68229091 57.77277613 C-5.56739345 57.37775904 -6.45249599 56.98274195 -7.36441982 56.57575464 C-13.0674642 54.17692462 -16.55861175 53.69105915 -22.61979091 55.02277613 C-23.73998622 55.26254175 -24.86018154 55.50230738 -26.01432216 55.74933863 C-33.12093786 57.61736332 -39.99118874 59.80966151 -46.86979091 62.39777613 C-76.59501914 73.58158493 -110.01225466 82.51967751 -140.60416591 69.32746363 C-148.28912263 65.83084005 -155.02001179 61.6680032 -161.37223232 56.08478785 C-163.678668 54.12885115 -165.03291465 53.02369456 -168.11588466 53.01886988 C-171.1808226 54.24771395 -173.73608668 55.82969878 -176.49479091 57.64777613 C-207.27572697 77.1511761 -243.25848866 80.48431395 -278.37369716 73.24933863 C-290.90121411 70.19794344 -304.08232875 65.79150721 -315.61979091 60.02277613 C-319.82173933 59.61474249 -319.82173933 59.61474249 -323.54166591 61.31574488 C-324.14494716 61.94094019 -324.74822841 62.5661355 -325.36979091 63.21027613 C-334.6721581 72.05540832 -345.62354696 79.88886311 -357.11588466 85.60871363 C-360.06428756 87.27380232 -362.5015395 89.31706611 -365.11979091 91.46027613 C-368.7436266 94.1184333 -371.02054653 95.59126832 -375.55729091 95.27277613 C-377.58721067 94.90290553 -379.60709031 94.47710503 -381.61979091 94.02277613 C-383.18002676 93.73495898 -384.74132963 93.45289442 -386.30338466 93.17511988 C-412.90148704 88.31928718 -412.90148704 88.31928718 -420.61979091 82.02277613 C-421.23854091 81.61027613 -421.85729091 81.19777613 -422.49479091 80.77277613 C-424.4875668 77.67290253 -424.11662355 74.51793595 -423.61979091 71.02277613 C-421.56243909 61.95671245 -416.81580093 55.77129659 -410.61979091 49.02277613 C-409.56018154 47.823948 -409.56018154 47.823948 -408.47916591 46.60090113 C-393.12232336 30.1701535 -372.48317816 18.0204079 -351.61979091 10.02277613 C-349.49119913 9.17759998 -347.36617351 8.32338768 -345.24479091 7.46027613 C-344.30893154 7.08773706 -343.37307216 6.715198 -342.40885341 6.33136988 C-339.53623613 5.13928683 -339.53623613 5.13928683 -337.2681073 2.97342539 C-332.29473508 -0.34700965 -326.20500099 0.46833038 -320.45766628 0.50379419 C-319.10056041 0.49791633 -317.74346118 0.49028791 -316.38637394 0.48106313 C-312.66239165 0.46080571 -308.93879038 0.46535609 -305.21477818 0.47397065 C-301.19614888 0.4789149 -297.17761534 0.46083027 -293.15902126 0.4455514 C-286.19536003 0.422227 -279.23180296 0.41349148 -272.26810443 0.41465998 C-262.18565225 0.4163305 -252.10333851 0.39597849 -242.02092326 0.37030467 C-225.6439738 0.32920206 -209.26704924 0.30590787 -192.89005458 0.29377222 C-177.01405347 0.28196996 -161.13809965 0.26181089 -145.2621249 0.23029566 C-144.28534294 0.22835956 -143.30856098 0.22642345 -142.30217957 0.22442868 C-137.40004424 0.214661 -132.49790926 0.20473072 -127.59577441 0.19472408 C-96.82832309 0.13210601 -66.06087412 0.08244794 -35.2933749 0.05109644 C-34.51672037 0.05029998 -33.74006583 0.04950352 -32.93987632 0.04868293 C-27.85018478 0.04348974 -22.76049304 0.03854715 -17.67080104 0.03382349 C-16.42874776 0.03266102 -15.18669448 0.03149855 -13.90700322 0.03030086 C-11.59688006 0.02829653 -9.28675591 0.02717754 -6.97663188 0.0270853 C-4.65107231 0.02409998 -2.32551545 0.0146324 0 0 Z " fill="#000000" transform="translate(573.6197909116745,261.9772238731384)"/>
<path d="M0 0 C0.69222656 0.54527344 0.69222656 0.54527344 1.3984375 1.1015625 C10.26623018 7.93642247 19.44189819 13.21478124 30 17 C31.05445313 17.39574219 32.10890625 17.79148437 33.1953125 18.19921875 C61.85646413 27.17551349 92.8770042 19.7478152 119.66015625 8.76269531 C122 8 122 8 126 8 C126 46.94 126 85.88 126 126 C121.1994461 122.39958457 117.10003982 119.29843044 112.875 115.25 C103.50913826 106.62663356 92.97496194 98.19089699 80.5625 94.7109375 C74.31075936 92.86362466 68.30763654 90.45888383 62.25 88.0625 C48.84788269 82.82998766 48.84788269 82.82998766 35 79 C33.71351563 78.70480469 32.42703125 78.40960938 31.1015625 78.10546875 C8.93312458 73.56798077 -16.547466 73.63759188 -38 81 C-38.82709473 81.27875977 -39.65418945 81.55751953 -40.50634766 81.84472656 C-59.01673313 88.25995515 -75.40464157 98.28225338 -91 110 C-92.1167957 110.8286533 -93.23398272 111.65677948 -94.3515625 112.484375 C-98.96597632 115.9144249 -103.50922467 119.40737973 -108 123 C-108 89.34 -108 55.68 -108 21 C-103.38 21.66 -98.76 22.32 -94 23 C-59.61922465 25.60854078 -29.24688352 17.8888705 0 0 Z " fill="#010101" transform="translate(405,324)"/>
<path d="M0 0 C0.70012207 0.18804199 1.40024414 0.37608398 2.12158203 0.56982422 C23.85973343 6.64876889 42.87535064 18.49971641 60 33 C60.95648438 33.79792969 61.91296875 34.59585938 62.8984375 35.41796875 C84.91850174 54.31621011 96.55927882 81.30068929 103 109 C103.43119141 110.83691406 103.43119141 110.83691406 103.87109375 112.7109375 C106.62398212 125.86204151 107.61051368 139.32220411 108.79019165 152.68746948 C109.02421611 155.26691258 109.2767457 157.84430669 109.52807617 160.42211914 C110.81267494 174.0554759 111.28717365 187.56002882 111.20581055 201.2512207 C111.18720679 204.48852212 111.18530432 207.72554052 111.18554688 210.96289062 C111.18064101 213.05729412 111.17481681 215.15169571 111.16796875 217.24609375 C111.16685593 218.19616806 111.1657431 219.14624237 111.16459656 220.12510681 C111.15821671 221.02797928 111.15183685 221.93085175 111.14526367 222.86108398 C111.14145187 223.6391893 111.13764008 224.41729462 111.13371277 225.21897888 C110.9442471 229.15957512 110.43566876 233.07898117 110 237 C102.08 237 94.16 237 86 237 C86.24169922 233.87724609 86.24169922 233.87724609 86.48828125 230.69140625 C87.30993073 218.45736027 87.19753665 206.19296321 87.1875 193.9375 C87.18722809 192.69687805 87.18695618 191.4562561 87.18667603 190.17803955 C87.17209771 175.72824827 87.09957993 161.29951176 86.1875 146.875 C86.11748779 145.731521 86.04747559 144.58804199 85.9753418 143.40991211 C85.02760844 130.90795798 81.92414958 118.99249461 78.1875 107.0625 C77.83494141 105.93223389 77.48238281 104.80196777 77.11914062 103.63745117 C68.49867167 76.37776043 56.80659847 51.71249481 30.46484375 37.7421875 C6.46046118 25.67234012 -26.82567772 16.41125114 -53.6875 23 C-55.47819477 23.61131609 -57.24678981 24.28827732 -59 25 C-59.68626465 25.26876953 -60.3725293 25.53753906 -61.07958984 25.81445312 C-84.09487775 34.86870295 -102.27761664 44.28888929 -112.72265625 67.66015625 C-120.77716251 86.26710802 -127.67703305 105.16353336 -132 125 C-132.19674316 125.89170898 -132.39348633 126.78341797 -132.59619141 127.70214844 C-137.56351678 150.81046411 -138.33138573 174.24725549 -138.20581055 197.81298828 C-138.18711645 201.44961305 -138.18530479 205.08598761 -138.18554688 208.72265625 C-138.18064485 211.05208554 -138.17482238 213.38151313 -138.16796875 215.7109375 C-138.16685593 216.78991302 -138.1657431 217.86888855 -138.16459656 218.9805603 C-138.15821671 219.9774588 -138.15183685 220.9743573 -138.14526367 222.00146484 C-138.14145187 222.87346527 -138.13764008 223.7454657 -138.13371277 224.64389038 C-138.08471608 226.94370489 -138.08471608 226.94370489 -137.49092102 228.87490845 C-137 231 -137 231 -137 238 C-143.27 238 -149.54 238 -156 238 C-156.12375 234.535 -156.12375 234.535 -156.25 231 C-156.52972781 224.96494602 -157.29193892 219.21918779 -158.50244141 213.30322266 C-168.62628767 162.63103313 -162.59520311 93.5613017 -133.75 49.8359375 C-129.46055984 43.64804598 -124.27878802 38.33928988 -119 33 C-118.40960938 32.33742187 -117.81921875 31.67484375 -117.2109375 30.9921875 C-90.33800817 1.36306029 -37.41896418 -10.07964718 0 0 Z " fill="#010101" transform="translate(438,16)"/>
<path d="M0 0 C0.33 1.32 0.66 2.64 1 4 C1.66 3.34 2.32 2.68 3 2 C6.125 1.875 6.125 1.875 9 2 C9.375 4.6875 9.375 4.6875 9 8 C7.18573316 10.16704095 5.38051466 11.38125003 3 13 C2.34 13 1.68 13 1 13 C1.33 16.63 1.66 20.26 2 24 C3.65 23.67 5.3 23.34 7 23 C7.66 23.33 8.32 23.66 9 24 C9.375 26.1875 9.375 26.1875 9 29 C7.17130326 31.08832653 5.30947441 32.38336791 3 34 C2.34 34 1.68 34 1 34 C1.33 36.97 1.66 39.94 2 43 C2.66 42.34 3.32 41.68 4 41 C6.625 40.875 6.625 40.875 9 41 C9.875 43.6875 9.875 43.6875 10 47 C7.11938104 49.94608758 4.91531989 51.69489337 1 53 C1 56.63 1 60.26 1 64 C1.66 63.34 2.32 62.68 3 62 C5.625 62.375 5.625 62.375 8 63 C8.33 64.65 8.66 66.3 9 68 C7.89764064 68.96041171 6.79303376 69.91824407 5.6875 70.875 C5.07261719 71.40867187 4.45773437 71.94234375 3.82421875 72.4921875 C0.6871983 75.08509947 -1.14662004 76.25748787 -5.1875 76.125 C-6.445625 76.08375 -7.70375 76.0425 -9 76 C-9 75.01 -9 74.02 -9 73 C-9.928125 72.731875 -10.85625 72.46375 -11.8125 72.1875 C-16.4516129 70.45920304 -16.4516129 70.45920304 -18 68 C-17.6875 65.3125 -17.6875 65.3125 -17 63 C-12.80410573 61.83447381 -12.17908064 61.91045968 -8 64 C-8 60.37 -8 56.74 -8 53 C-8.886875 52.9175 -9.77375 52.835 -10.6875 52.75 C-14.53539483 51.87877853 -16.33369668 50.90156538 -19 48 C-19.375 44.8125 -19.375 44.8125 -19 42 C-18 41 -18 41 -15.6875 40.75 C-12.55923162 41.04100171 -11.31322267 41.94380207 -9 44 C-8.67 41.03 -8.34 38.06 -8 35 C-8.70125 34.9175 -9.4025 34.835 -10.125 34.75 C-13.77154663 33.79872697 -16.11299215 32.41702983 -19 30 C-19.4375 27.3125 -19.4375 27.3125 -19 25 C-18 24 -18 24 -15.1875 23.75 C-12 24 -12 24 -8 27 C-8 23.04 -8 19.08 -8 15 C-10.475 14.01 -10.475 14.01 -13 13 C-16.04232282 10.8066975 -17.90839873 9.1374019 -20 6 C-20.1875 3.375 -20.1875 3.375 -20 1 C-19 0 -19 0 -16.1875 -0.375 C-13 0 -13 0 -10.625 2.5 C-10.08875 3.325 -9.5525 4.15 -9 5 C-8.71125 4.195625 -8.4225 3.39125 -8.125 2.5625 C-6.19149032 -1.84160538 -4.20681292 -0.99635043 0 0 Z " fill="#0F0F0F" transform="translate(413,421)"/>
<path d="M0 0 C2.4375 0.375 2.4375 0.375 4.4375 2.375 C4.4375 6.13601778 3.05889714 8.06069406 0.5625 10.6875 C-2.13176952 13.375 -2.13176952 13.375 -5.5625 13.375 C-5.2325 15.355 -4.9025 17.335 -4.5625 19.375 C-3.5725 18.715 -2.5825 18.055 -1.5625 17.375 C1.0625 17.1875 1.0625 17.1875 3.4375 17.375 C4.4375 18.375 4.4375 18.375 4.7421875 20.73046875 C4.4375 23.375 4.4375 23.375 2.7578125 25.17578125 C1.67113281 25.92408203 1.67113281 25.92408203 0.5625 26.6875 C-0.51644531 27.45513672 -0.51644531 27.45513672 -1.6171875 28.23828125 C-3.5625 29.375 -3.5625 29.375 -5.5625 29.375 C-5.5625 31.355 -5.5625 33.335 -5.5625 35.375 C-5.02625 34.88 -4.49 34.385 -3.9375 33.875 C-0.96891555 32.00010456 0.99062427 32.13998575 4.4375 32.375 C4.75 35.125 4.75 35.125 4.4375 38.375 C1.39367461 41.59275827 -1.18145002 42.87430857 -5.5625 43.375 C-5.2325 44.365 -4.9025 45.355 -4.5625 46.375 C-3.428125 46.189375 -2.29375 46.00375 -1.125 45.8125 C0.050625 45.668125 1.22625 45.52375 2.4375 45.375 C3.4375 46.375 3.4375 46.375 3.8125 48.75 C3.68875 49.61625 3.565 50.4825 3.4375 51.375 C1.0625 53.125 1.0625 53.125 -1.5625 54.375 C-2.5525 54.87 -2.5525 54.87 -3.5625 55.375 C-6.20184052 55.52581946 -8.79722668 55.6063078 -11.4375 55.625 C-12.15808594 55.645625 -12.87867188 55.66625 -13.62109375 55.6875 C-16.97040073 55.71217261 -19.17049026 55.61191554 -22.0703125 53.859375 C-22.56273437 53.36953125 -23.05515625 52.8796875 -23.5625 52.375 C-23.2325 50.725 -22.9025 49.075 -22.5625 47.375 C-17.8125 46.25 -17.8125 46.25 -15.5625 47.375 C-15.2325 46.385 -14.9025 45.395 -14.5625 44.375 C-15.820625 44.271875 -17.07875 44.16875 -18.375 44.0625 C-20.92774139 43.73267678 -22.36052006 43.50123746 -24.5625 42.125 C-25.91304471 39.76154675 -25.84411235 38.05031735 -25.5625 35.375 C-25.0675 34.88 -25.0675 34.88 -24.5625 34.375 C-21.06515772 34.76359359 -17.90461739 35.26096087 -14.5625 36.375 C-14.5625 34.395 -14.5625 32.415 -14.5625 30.375 C-15.8 30.271875 -17.0375 30.16875 -18.3125 30.0625 C-21.81307843 29.60941095 -24.1734504 29.16222453 -26.5625 26.375 C-26.9375 23.8125 -26.9375 23.8125 -26.5625 21.375 C-25.9025 20.715 -25.2425 20.055 -24.5625 19.375 C-20.97661676 19.76266305 -17.86262079 20.96066252 -14.5625 22.375 C-14.5625 20.065 -14.5625 17.755 -14.5625 15.375 C-15.243125 15.33375 -15.92375 15.2925 -16.625 15.25 C-20.81765787 14.00112319 -23.4217439 11.33473269 -26.5625 8.375 C-26.2325 6.725 -25.9025 5.075 -25.5625 3.375 C-23.5 2.5625 -23.5 2.5625 -20.5625 2.375 C-18.01560725 3.78526293 -15.79607494 5.51476035 -13.5625 7.375 C-13.2325 5.725 -12.9025 4.075 -12.5625 2.375 C-10.1875 2.25 -10.1875 2.25 -7.5625 2.375 C-6.9025 3.035 -6.2425 3.695 -5.5625 4.375 C-5.170625 3.715 -4.77875 3.055 -4.375 2.375 C-2.5625 0.375 -2.5625 0.375 0 0 Z " fill="#0F0F0F" transform="translate(358.5625,441.625)"/>
<path d="M0 0 C1.2065625 0.0309375 1.2065625 0.0309375 2.4375 0.0625 C3.0975 1.7125 3.7575 3.3625 4.4375 5.0625 C5.0975 4.4025 5.7575 3.7425 6.4375 3.0625 C9 2.875 9 2.875 11.4375 3.0625 C12.4375 4.0625 12.4375 4.0625 12.8125 6.375 C12.4375 9.0625 12.4375 9.0625 10.0625 11.3125 C7.4375 13.0625 7.4375 13.0625 5.4375 14.0625 C5.4375 15.7125 5.4375 17.3625 5.4375 19.0625 C6.613125 18.753125 6.613125 18.753125 7.8125 18.4375 C9.111875 18.251875 9.111875 18.251875 10.4375 18.0625 C11.0975 18.7225 11.7575 19.3825 12.4375 20.0625 C12.375 22.5 12.375 22.5 11.4375 25.0625 C8.9375 26.5625 8.9375 26.5625 6.4375 28.0625 C5.55091534 30.65372743 5.55091534 30.65372743 5.4375 33.0625 C5.994375 32.546875 6.55125 32.03125 7.125 31.5 C9.4375 30.0625 9.4375 30.0625 12.1875 30.375 C12.93 30.601875 13.6725 30.82875 14.4375 31.0625 C14.7675 32.7125 15.0975 34.3625 15.4375 36.0625 C10.29464286 40.49107143 10.29464286 40.49107143 6.4375 41.0625 C6.7675 42.3825 7.0975 43.7025 7.4375 45.0625 C7.994375 44.546875 8.55125 44.03125 9.125 43.5 C11.4375 42.0625 11.4375 42.0625 14.1875 42.375 C14.93 42.601875 15.6725 42.82875 16.4375 43.0625 C16.7675 44.7125 17.0975 46.3625 17.4375 48.0625 C11.71369614 52.96861759 7.55483201 54.36141911 0 54.4375 C-1.27746094 54.46585937 -2.55492187 54.49421875 -3.87109375 54.5234375 C-8.31495091 53.96854317 -10.09283651 52.77602354 -13.5625 50.0625 C-13.2325 48.4125 -12.9025 46.7625 -12.5625 45.0625 C-8.50818308 43.90412374 -6.34437881 44.22558743 -2.5625 46.0625 C-2.5625 45.0725 -2.5625 44.0825 -2.5625 43.0625 C-3.47 43.124375 -4.3775 43.18625 -5.3125 43.25 C-8.89125347 43.04353345 -10.18380509 42.71565971 -12.5625 40.0625 C-12.875 37.4375 -12.875 37.4375 -12.5625 35.0625 C-12.0675 34.5675 -12.0675 34.5675 -11.5625 34.0625 C-9.22305264 34.34980055 -6.8885857 34.68186779 -4.5625 35.0625 C-4.2325 33.4125 -3.9025 31.7625 -3.5625 30.0625 C-4.47 29.959375 -5.3775 29.85625 -6.3125 29.75 C-9.66684706 29.04042658 -11.28185104 28.60630077 -13.5625 26.0625 C-13.8125 22.875 -13.8125 22.875 -13.5625 20.0625 C-11.25 19.4375 -11.25 19.4375 -8.5625 19.0625 C-7.5725 19.7225 -6.5825 20.3825 -5.5625 21.0625 C-5.2325 19.0825 -4.9025 17.1025 -4.5625 15.0625 C-5.51125 14.93875 -6.46 14.815 -7.4375 14.6875 C-10.5625 14.0625 -10.5625 14.0625 -12.5625 12.0625 C-12.75 9.5 -12.75 9.5 -12.5625 7.0625 C-11.5625 6.0625 -11.5625 6.0625 -9.1875 5.875 C-6.5625 6.0625 -6.5625 6.0625 -3.5625 8.0625 C-3.583125 6.928125 -3.60375 5.79375 -3.625 4.625 C-3.54537671 0.0864726 -3.54537671 0.0864726 0 0 Z " fill="#121212" transform="translate(471.5625,442.9375)"/>
<path d="M0 0 C0.66 0.33 1.32 0.66 2 1 C-2.29 5.29 -6.58 9.58 -11 14 C-11.66 13.67 -12.32 13.34 -13 13 C-11.58791833 11.39179588 -10.17013964 9.78859292 -8.75 8.1875 C-7.96109375 7.29417969 -7.1721875 6.40085937 -6.359375 5.48046875 C-4.34120555 3.35871775 -2.40083295 1.65745577 0 0 Z " fill="#D4D4D4" transform="translate(344,57)"/>
<path d="M0 0 C0.66 0.33 1.32 0.66 2 1 C2 1.99 2 2.98 2 4 C-0.31 4.66 -2.62 5.32 -5 6 C-5 4.68 -5 3.36 -5 2 C-2.625 0.9375 -2.625 0.9375 0 0 Z " fill="#DDDDDD" transform="translate(358,483)"/>
<path d="M0 0 C7.75 0.75 7.75 0.75 10 3 C6.18510326 4.46726798 3.70988378 3.43336419 0 2 C0 1.34 0 0.68 0 0 Z " fill="#C1C1C1" transform="translate(440,403)"/>
<path d="M0 0 C0.66 0 1.32 0 2 0 C2 0.66 2 1.32 2 2 C1.34 2 0.68 2 0 2 C0 1.34 0 0.68 0 0 Z " fill="#76AF62" transform="translate(150,354)"/>
<path d="M0 0 C2 1 2 1 2 1 Z " fill="#76AF62" transform="translate(161,359)"/>
<path d="M0 0 C2 1 2 1 2 1 Z " fill="#76AF62" transform="translate(680,333)"/>
<path d="" fill="#76AF62" transform="translate(0,0)"/>
<path d="" fill="#76AF62" transform="translate(0,0)"/>
<path d="M0 0 C2 1 2 1 2 1 Z " fill="#76AF62" transform="translate(288,69)"/>
<path d="" fill="#76AF62" transform="translate(0,0)"/>
<path d="" fill="#76AF62" transform="translate(0,0)"/>
<path d="" fill="#76AF62" transform="translate(0,0)"/>
<path d="" fill="#76AF62" transform="translate(0,0)"/>
<path d="" fill="#76AF62" transform="translate(0,0)"/>
</svg>
