<svg xmlns="http://www.w3.org/2000/svg" xmlns:xlink="http://www.w3.org/1999/xlink" width="2000" zoomAndPan="magnify" viewBox="0 0 1500 449.999984" height="600" preserveAspectRatio="xMidYMid meet" version="1.0"><defs><g/><clipPath id="953e07dfe1"><path d="M 86.082031 68.785156 L 450.695312 68.785156 L 450.695312 433.398438 L 86.082031 433.398438 Z M 86.082031 68.785156 " clip-rule="nonzero"/></clipPath><clipPath id="ffa1c5b458"><path d="M 268.386719 68.785156 C 167.703125 68.785156 86.082031 150.40625 86.082031 251.089844 C 86.082031 351.777344 167.703125 433.398438 268.386719 433.398438 C 369.070312 433.398438 450.695312 351.777344 450.695312 251.089844 C 450.695312 150.40625 369.070312 68.785156 268.386719 68.785156 Z M 268.386719 68.785156 " clip-rule="nonzero"/></clipPath><clipPath id="ec3cf2685d"><path d="M 143.550781 110 L 390 110 L 390 356.222656 L 143.550781 356.222656 Z M 143.550781 110 " clip-rule="nonzero"/></clipPath><clipPath id="4f23c5eadc"><path d="M 567.695312 68.785156 L 932.304688 68.785156 L 932.304688 433.398438 L 567.695312 433.398438 Z M 567.695312 68.785156 " clip-rule="nonzero"/></clipPath><clipPath id="5467fff44b"><path d="M 750 68.785156 C 649.316406 68.785156 567.695312 150.40625 567.695312 251.089844 C 567.695312 351.777344 649.316406 433.398438 750 433.398438 C 850.683594 433.398438 932.304688 351.777344 932.304688 251.089844 C 932.304688 150.40625 850.683594 68.785156 750 68.785156 Z M 750 68.785156 " clip-rule="nonzero"/></clipPath><clipPath id="78c8bd827d"><path d="M 650 106.472656 L 850 106.472656 L 850 185 L 650 185 Z M 650 106.472656 " clip-rule="nonzero"/></clipPath><clipPath id="8b04089589"><path d="M 614.539062 190 L 885.289062 190 L 885.289062 343.472656 L 614.539062 343.472656 Z M 614.539062 190 " clip-rule="nonzero"/></clipPath><clipPath id="a99926ba87"><path d="M 1049.609375 68.785156 L 1414.222656 68.785156 L 1414.222656 433.398438 L 1049.609375 433.398438 Z M 1049.609375 68.785156 " clip-rule="nonzero"/></clipPath><clipPath id="c92462f9ab"><path d="M 1231.914062 68.785156 C 1131.230469 68.785156 1049.609375 150.40625 1049.609375 251.089844 C 1049.609375 351.777344 1131.230469 433.398438 1231.914062 433.398438 C 1332.601562 433.398438 1414.222656 351.777344 1414.222656 251.089844 C 1414.222656 150.40625 1332.601562 68.785156 1231.914062 68.785156 Z M 1231.914062 68.785156 " clip-rule="nonzero"/></clipPath><clipPath id="2f1b638b0f"><path d="M 1105.886719 98.789062 L 1357.886719 98.789062 L 1357.886719 350.789062 L 1105.886719 350.789062 Z M 1105.886719 98.789062 " clip-rule="nonzero"/></clipPath><clipPath id="1d4331c28b"><path d="M 495.488281 226 L 523.238281 226 L 523.238281 272 L 495.488281 272 Z M 495.488281 226 " clip-rule="nonzero"/></clipPath><clipPath id="1c873d5d1f"><path d="M 976.894531 228 L 1004.644531 228 L 1004.644531 274 L 976.894531 274 Z M 976.894531 228 " clip-rule="nonzero"/></clipPath></defs><rect x="-150" width="1800" fill="#ffffff" y="-44.999998" height="539.99998" fill-opacity="1"/><rect x="-150" width="1800" fill="#507645" y="-44.999998" height="539.99998" fill-opacity="1"/><g clip-path="url(#953e07dfe1)"><g clip-path="url(#ffa1c5b458)"><path fill="#75ae60" d="M 86.082031 68.785156 L 450.695312 68.785156 L 450.695312 433.398438 L 86.082031 433.398438 Z M 86.082031 68.785156 " fill-opacity="1" fill-rule="nonzero"/></g></g><g clip-path="url(#ec3cf2685d)"><path fill="#ffffff" d="M 289.21875 259.21875 C 300.546875 255.613281 305.605469 260.066406 308.421875 264.773438 C 318.765625 262.125 322.90625 266.914062 325.007812 269.191406 C 325.421875 269.464844 326.507812 270.957031 328.714844 270.582031 C 336.847656 269.21875 342.261719 274.703125 342.417969 279.976562 L 343.847656 327.464844 C 343.953125 330.949219 343.433594 333.941406 342.304688 337.238281 L 338.023438 349.726562 C 336.652344 353.722656 333.058594 356.292969 328.832031 356.292969 L 276.398438 356.292969 C 272.878906 356.292969 269.863281 354.578125 268.058594 351.558594 L 252.566406 325.617188 C 250.59375 322.3125 249.203125 319.328125 247.949219 315.699219 L 235.625 280.097656 C 228.789062 263.394531 247.996094 256.539062 254.6875 270.902344 L 267.78125 298.21875 L 263.046875 212.855469 C 261.949219 199.230469 278.421875 197.828125 279.957031 211.035156 L 285.3125 257.058594 C 285.601562 259.5625 287.96875 259.613281 289.21875 259.21875 Z M 350.429688 175.238281 C 372.230469 175.238281 389.90625 192.910156 389.90625 214.714844 C 389.90625 236.511719 372.230469 254.1875 350.429688 254.1875 C 328.625 254.1875 310.953125 236.511719 310.953125 214.714844 C 310.953125 192.910156 328.625 175.238281 350.429688 175.238281 Z M 183.0625 175.238281 C 204.859375 175.238281 222.539062 192.910156 222.539062 214.714844 C 222.539062 236.511719 204.859375 254.1875 183.0625 254.1875 C 161.257812 254.1875 143.585938 236.511719 143.585938 214.714844 C 143.585938 192.910156 161.257812 175.238281 183.0625 175.238281 Z M 276.964844 112.113281 C 298.019531 117.753906 310.515625 139.40625 304.875 160.460938 C 299.230469 181.523438 277.585938 194.019531 256.527344 188.375 C 235.46875 182.734375 222.972656 161.089844 228.613281 140.027344 C 234.257812 118.96875 255.902344 106.472656 276.964844 112.113281 Z M 252.714844 143.941406 L 261.074219 153.632812 L 281.648438 132.640625 C 282.539062 131.730469 284.042969 131.789062 284.921875 132.707031 L 289.703125 137.691406 C 290.589844 138.613281 290.53125 140.066406 289.632812 140.96875 L 264.84375 165.828125 C 261.90625 168.644531 258.820312 168.402344 256.398438 165.601562 L 243.984375 151.488281 C 243.144531 150.535156 243.257812 149.058594 244.222656 148.222656 L 249.445312 143.703125 C 249.929688 143.285156 250.496094 143.097656 251.128906 143.144531 C 251.769531 143.191406 252.300781 143.457031 252.714844 143.941406 Z M 252.714844 143.941406 " fill-opacity="1" fill-rule="evenodd"/></g><g clip-path="url(#4f23c5eadc)"><g clip-path="url(#5467fff44b)"><path fill="#75ae60" d="M 567.695312 68.785156 L 932.304688 68.785156 L 932.304688 433.398438 L 567.695312 433.398438 Z M 567.695312 68.785156 " fill-opacity="1" fill-rule="nonzero"/></g></g><g clip-path="url(#78c8bd827d)"><path fill="#ffffff" d="M 660.296875 184.144531 L 660.296875 152.617188 C 660.296875 135.625 674.113281 121.808594 691.105469 121.808594 L 707.429688 121.808594 C 708.882812 126.492188 713.210938 129.910156 718.375 129.910156 L 781.625 129.910156 C 786.789062 129.910156 791.113281 126.492188 792.570312 121.808594 L 808.894531 121.808594 C 825.886719 121.808594 839.703125 135.625 839.703125 152.617188 L 839.703125 184.144531 L 849.972656 184.144531 L 849.972656 152.617188 C 849.972656 129.972656 831.539062 111.539062 808.894531 111.539062 L 790.835938 111.539062 C 788.726562 108.738281 785.410156 106.894531 781.617188 106.894531 L 718.367188 106.894531 C 714.582031 106.894531 711.253906 108.738281 709.15625 111.550781 L 691.105469 111.550781 C 668.457031 111.550781 650.027344 129.980469 650.027344 152.625 L 650.027344 184.152344 L 660.296875 184.152344 Z M 660.296875 184.144531 " fill-opacity="1" fill-rule="nonzero"/></g><g clip-path="url(#8b04089589)"><path fill="#ffffff" d="M 872.582031 190.613281 L 627.40625 190.613281 C 620.304688 190.613281 614.539062 196.378906 614.539062 203.480469 C 614.539062 210.59375 620.304688 216.351562 627.40625 216.351562 L 630.785156 216.351562 C 634.355469 236.542969 645.355469 297.800781 650.460938 316.734375 C 656.5625 339.304688 663.640625 343.332031 680.515625 343.332031 L 814.5 343.316406 L 819.476562 343.332031 C 836.347656 343.332031 843.425781 339.304688 849.523438 316.734375 C 854.636719 297.8125 865.632812 236.535156 869.207031 216.351562 L 872.582031 216.351562 C 879.6875 216.351562 885.453125 210.59375 885.453125 203.480469 C 885.453125 196.371094 879.6875 190.613281 872.582031 190.613281 Z M 844.824219 197.320312 C 848.226562 197.320312 850.988281 200.070312 850.988281 203.480469 C 850.988281 206.894531 848.234375 209.652344 844.824219 209.652344 C 841.410156 209.652344 838.660156 206.894531 838.660156 203.480469 C 838.660156 200.070312 841.421875 197.320312 844.824219 197.320312 Z M 755.125 216.34375 L 812.949219 216.34375 L 807.292969 245.3125 L 755.125 245.3125 Z M 655.167969 197.320312 C 658.570312 197.320312 661.332031 200.070312 661.332031 203.480469 C 661.332031 206.894531 658.578125 209.652344 655.167969 209.652344 C 651.753906 209.652344 649.003906 206.894531 649.003906 203.480469 C 649.003906 200.070312 651.753906 197.320312 655.167969 197.320312 Z M 646.429688 216.34375 L 676.578125 216.34375 L 682.234375 245.3125 L 651.671875 245.3125 C 649.546875 233.765625 647.675781 223.351562 646.429688 216.34375 Z M 659.875 288.167969 C 657.851562 278.128906 655.648438 266.679688 653.574219 255.574219 L 684.230469 255.574219 L 690.597656 288.167969 Z M 685.492188 327.898438 L 680.515625 327.917969 C 670.277344 327.917969 669.441406 327.917969 665.335938 312.703125 C 664.410156 309.300781 663.277344 304.320312 662.007812 298.429688 L 692.59375 298.429688 L 698.359375 327.890625 L 685.492188 327.890625 Z M 744.863281 327.90625 L 708.824219 327.898438 L 703.066406 298.4375 L 744.863281 298.4375 Z M 744.863281 288.167969 L 701.070312 288.167969 L 694.695312 255.574219 L 744.863281 255.574219 Z M 744.863281 245.3125 L 692.6875 245.3125 L 687.035156 216.34375 L 744.855469 216.34375 L 744.855469 245.3125 Z M 791.164062 327.917969 L 755.125 327.90625 L 755.125 298.4375 L 796.921875 298.4375 Z M 755.125 288.167969 L 755.125 255.574219 L 805.296875 255.574219 L 798.921875 288.167969 Z M 834.648438 312.710938 C 830.558594 327.890625 829.710938 327.925781 819.535156 327.925781 C 819.519531 327.925781 819.5 327.925781 819.476562 327.925781 L 801.628906 327.925781 L 807.386719 298.445312 L 837.976562 298.445312 C 836.714844 304.320312 835.570312 309.300781 834.648438 312.710938 Z M 840.117188 288.167969 L 809.394531 288.167969 L 815.757812 255.574219 L 846.414062 255.574219 C 844.339844 266.679688 842.140625 278.136719 840.117188 288.167969 Z M 848.320312 245.3125 L 817.765625 245.3125 L 823.421875 216.34375 L 853.570312 216.34375 C 852.316406 223.351562 850.445312 233.765625 848.320312 245.3125 Z M 848.320312 245.3125 " fill-opacity="1" fill-rule="nonzero"/></g><g clip-path="url(#a99926ba87)"><g clip-path="url(#c92462f9ab)"><path fill="#75ae60" d="M 1049.609375 68.785156 L 1414.222656 68.785156 L 1414.222656 433.398438 L 1049.609375 433.398438 Z M 1049.609375 68.785156 " fill-opacity="1" fill-rule="nonzero"/></g></g><g clip-path="url(#2f1b638b0f)"><path fill="#ffffff" d="M 1349.53125 342.433594 L 1114.289062 342.433594 L 1114.289062 334.03125 L 1349.53125 334.03125 Z M 1122.691406 258.417969 L 1168.601562 258.417969 C 1170.015625 258.417969 1171.308594 259.109375 1172.097656 260.289062 L 1193.398438 292.238281 C 1193.855469 292.925781 1194.101562 293.730469 1194.101562 294.566406 L 1194.101562 325.628906 L 1118.488281 325.628906 L 1118.488281 262.617188 C 1118.488281 260.304688 1120.375 258.417969 1122.691406 258.417969 Z M 1219.308594 251.101562 L 1219.308594 275.222656 C 1214.679688 275.222656 1210.90625 278.996094 1210.90625 283.621094 L 1210.90625 304.625 L 1202.503906 304.625 L 1202.503906 294.566406 C 1202.503906 292.074219 1201.765625 289.644531 1200.386719 287.578125 L 1194.496094 278.75 C 1196.464844 265.113281 1206.394531 254.398438 1219.308594 251.101562 Z M 1240.738281 250.015625 C 1242.691406 259.601562 1251.175781 266.820312 1261.316406 266.820312 C 1271.457031 266.820312 1279.941406 259.601562 1281.894531 250.015625 L 1294.921875 250.015625 L 1294.921875 275.222656 L 1227.710938 275.222656 L 1227.710938 250.015625 Z M 1261.316406 237.414062 C 1265.664062 237.414062 1269.863281 236.855469 1273.917969 235.886719 L 1273.917969 245.816406 C 1273.917969 252.773438 1268.273438 258.417969 1261.316406 258.417969 C 1254.359375 258.417969 1248.714844 252.773438 1248.714844 245.816406 L 1248.714844 235.886719 C 1252.765625 236.855469 1256.96875 237.414062 1261.316406 237.414062 Z M 1215.105469 182.804688 L 1215.105469 153.398438 C 1215.105469 127.914062 1235.832031 107.191406 1261.316406 107.191406 C 1286.800781 107.191406 1307.523438 127.914062 1307.523438 153.398438 L 1307.523438 182.804688 C 1307.523438 208.289062 1286.800781 229.011719 1261.316406 229.011719 C 1235.832031 229.011719 1215.105469 208.289062 1215.105469 182.804688 Z M 1198.304688 170.203125 C 1198.304688 164.738281 1201.832031 160.109375 1206.707031 158.371094 L 1206.707031 182.03125 C 1201.832031 180.292969 1198.304688 175.667969 1198.304688 170.203125 Z M 1324.328125 170.203125 C 1324.328125 175.667969 1320.800781 180.292969 1315.925781 182.03125 L 1315.925781 158.371094 C 1320.800781 160.109375 1324.328125 164.738281 1324.328125 170.203125 Z M 1202.503906 325.628906 L 1202.503906 313.027344 L 1236.109375 313.027344 L 1236.109375 325.628906 Z M 1244.511719 325.628906 L 1244.511719 313.027344 C 1244.511719 308.402344 1240.738281 304.625 1236.109375 304.625 L 1219.308594 304.625 L 1219.308594 283.621094 L 1303.324219 283.621094 L 1303.324219 325.628906 Z M 1328.527344 283.621094 L 1328.527344 325.628906 L 1311.726562 325.628906 L 1311.726562 283.621094 C 1311.726562 278.996094 1307.949219 275.222656 1303.324219 275.222656 L 1303.324219 251.132812 C 1317.796875 254.875 1328.527344 268 1328.527344 283.621094 Z M 1122.691406 212.210938 L 1164.699219 212.210938 L 1164.699219 224.8125 L 1122.691406 224.8125 Z M 1349.53125 325.628906 L 1336.929688 325.628906 L 1336.929688 283.621094 C 1336.929688 260.453125 1318.089844 241.613281 1294.921875 241.613281 L 1282.320312 241.613281 L 1282.320312 233.195312 C 1299.648438 225.945312 1312.414062 209.996094 1315.269531 190.84375 C 1325.164062 189.15625 1332.730469 180.574219 1332.730469 170.203125 C 1332.730469 159.996094 1325.410156 151.480469 1315.730469 149.609375 C 1313.777344 121.269531 1290.144531 98.789062 1261.316406 98.789062 C 1232.484375 98.789062 1208.855469 121.269531 1206.902344 149.609375 C 1197.238281 151.480469 1189.902344 159.996094 1189.902344 170.203125 C 1189.902344 180.574219 1197.464844 189.15625 1207.363281 190.84375 C 1210.214844 209.996094 1222.984375 225.960938 1240.3125 233.195312 L 1240.3125 241.613281 L 1227.710938 241.613281 C 1209.59375 241.613281 1194.085938 253.019531 1188.226562 269.347656 L 1179.089844 255.628906 C 1176.742188 252.117188 1172.820312 250.015625 1168.601562 250.015625 L 1147.894531 250.015625 L 1147.894531 233.214844 L 1164.699219 233.214844 C 1169.324219 233.214844 1173.097656 229.441406 1173.097656 224.8125 L 1173.097656 212.210938 C 1173.097656 207.582031 1169.324219 203.808594 1164.699219 203.808594 L 1122.691406 203.808594 C 1118.0625 203.808594 1114.289062 207.582031 1114.289062 212.210938 L 1114.289062 224.8125 C 1114.289062 229.441406 1118.0625 233.214844 1122.691406 233.214844 L 1139.492188 233.214844 L 1139.492188 250.015625 L 1122.691406 250.015625 C 1115.730469 250.015625 1110.085938 255.660156 1110.085938 262.617188 L 1110.085938 326.796875 C 1107.59375 328.257812 1105.886719 330.929688 1105.886719 334.03125 L 1105.886719 342.433594 C 1105.886719 347.0625 1109.660156 350.835938 1114.289062 350.835938 L 1349.53125 350.835938 C 1354.160156 350.835938 1357.933594 347.0625 1357.933594 342.433594 L 1357.933594 334.03125 C 1357.933594 329.40625 1354.160156 325.628906 1349.53125 325.628906 " fill-opacity="1" fill-rule="nonzero"/></g><path fill="#ffffff" d="M 1281.875 205.695312 C 1282.910156 203.644531 1282.074219 201.167969 1280.039062 200.117188 C 1278.003906 199.050781 1275.476562 199.855469 1274.394531 201.871094 C 1274.261719 202.117188 1270.964844 208.007812 1261.316406 208.007812 C 1251.75 208.007812 1248.433594 202.234375 1248.253906 201.886719 C 1247.203125 199.835938 1244.691406 199.03125 1242.625 200.050781 C 1240.558594 201.085938 1239.71875 203.609375 1240.753906 205.695312 C 1240.96875 206.121094 1246.285156 216.410156 1261.316406 216.410156 C 1276.347656 216.410156 1281.664062 206.121094 1281.875 205.695312 " fill-opacity="1" fill-rule="nonzero"/><g clip-path="url(#1d4331c28b)"><path fill="#ffffff" d="M 495.109375 231.453125 L 512.496094 248.875 L 495.109375 266.300781 L 500.460938 271.652344 L 523.238281 248.875 L 500.460938 226.101562 Z M 495.109375 231.453125 " fill-opacity="1" fill-rule="nonzero"/></g><g fill="#ffffff" fill-opacity="1"><g transform="translate(576.406435, 48.988893)"><g><path d="M 8.96875 -19.53125 L 12.484375 -19.53125 C 14.160156 -19.53125 15.398438 -19.945312 16.203125 -20.78125 C 17.003906 -21.625 17.40625 -22.738281 17.40625 -24.125 C 17.40625 -25.457031 17.003906 -26.492188 16.203125 -27.234375 C 15.410156 -27.984375 14.316406 -28.359375 12.921875 -28.359375 C 11.648438 -28.359375 10.585938 -28.007812 9.734375 -27.3125 C 8.890625 -26.625 8.46875 -25.726562 8.46875 -24.625 L 1.875 -24.625 C 1.875 -26.351562 2.335938 -27.90625 3.265625 -29.28125 C 4.203125 -30.664062 5.507812 -31.742188 7.1875 -32.515625 C 8.875 -33.296875 10.726562 -33.6875 12.75 -33.6875 C 16.269531 -33.6875 19.023438 -32.84375 21.015625 -31.15625 C 23.003906 -29.476562 24 -27.164062 24 -24.21875 C 24 -22.6875 23.535156 -21.28125 22.609375 -20 C 21.679688 -18.726562 20.46875 -17.75 18.96875 -17.0625 C 20.832031 -16.394531 22.222656 -15.390625 23.140625 -14.046875 C 24.066406 -12.710938 24.53125 -11.132812 24.53125 -9.3125 C 24.53125 -6.363281 23.453125 -4 21.296875 -2.21875 C 19.148438 -0.4375 16.300781 0.453125 12.75 0.453125 C 9.4375 0.453125 6.722656 -0.421875 4.609375 -2.171875 C 2.503906 -3.921875 1.453125 -6.234375 1.453125 -9.109375 L 8.0625 -9.109375 C 8.0625 -7.859375 8.523438 -6.835938 9.453125 -6.046875 C 10.390625 -5.253906 11.546875 -4.859375 12.921875 -4.859375 C 14.484375 -4.859375 15.707031 -5.269531 16.59375 -6.09375 C 17.488281 -6.925781 17.9375 -8.03125 17.9375 -9.40625 C 17.9375 -12.71875 16.109375 -14.375 12.453125 -14.375 L 8.96875 -14.375 Z M 8.96875 -19.53125 "/></g></g></g><g fill="#ffffff" fill-opacity="1"><g transform="translate(603.219133, 48.988893)"><g><path d="M 15.359375 -11.5625 L 2.515625 -11.5625 L 2.515625 -16.890625 L 15.359375 -16.890625 Z M 15.359375 -11.5625 "/></g></g></g><g fill="#ffffff" fill-opacity="1"><g transform="translate(621.337671, 48.988893)"><g><path d="M 22.953125 -14.40625 L 9.8125 -14.40625 L 9.8125 -5.5 L 25.234375 -5.5 L 25.234375 0 L 2.96875 0 L 2.96875 -33.21875 L 25.1875 -33.21875 L 25.1875 -27.6875 L 9.8125 -27.6875 L 9.8125 -19.765625 L 22.953125 -19.765625 Z M 22.953125 -14.40625 "/></g></g></g><g fill="#ffffff" fill-opacity="1"><g transform="translate(647.625524, 48.988893)"><g><path d="M 21.71875 -6.84375 L 9.71875 -6.84375 L 7.4375 0 L 0.15625 0 L 12.53125 -33.21875 L 18.875 -33.21875 L 31.3125 0 L 24.03125 0 Z M 11.5625 -12.390625 L 19.875 -12.390625 L 15.703125 -24.828125 Z M 11.5625 -12.390625 "/></g></g></g><g fill="#ffffff" fill-opacity="1"><g transform="translate(679.070543, 48.988893)"><g><path d="M 20.1875 -8.71875 C 20.1875 -10.007812 19.726562 -11 18.8125 -11.6875 C 17.90625 -12.382812 16.265625 -13.113281 13.890625 -13.875 C 11.523438 -14.644531 9.648438 -15.40625 8.265625 -16.15625 C 4.484375 -18.195312 2.59375 -20.941406 2.59375 -24.390625 C 2.59375 -26.191406 3.097656 -27.796875 4.109375 -29.203125 C 5.128906 -30.609375 6.582031 -31.707031 8.46875 -32.5 C 10.363281 -33.289062 12.492188 -33.6875 14.859375 -33.6875 C 17.234375 -33.6875 19.347656 -33.253906 21.203125 -32.390625 C 23.054688 -31.535156 24.492188 -30.320312 25.515625 -28.75 C 26.546875 -27.1875 27.0625 -25.40625 27.0625 -23.40625 L 20.21875 -23.40625 C 20.21875 -24.925781 19.738281 -26.109375 18.78125 -26.953125 C 17.820312 -27.804688 16.472656 -28.234375 14.734375 -28.234375 C 13.066406 -28.234375 11.769531 -27.878906 10.84375 -27.171875 C 9.914062 -26.460938 9.453125 -25.53125 9.453125 -24.375 C 9.453125 -23.289062 9.992188 -22.382812 11.078125 -21.65625 C 12.160156 -20.925781 13.757812 -20.242188 15.875 -19.609375 C 19.769531 -18.429688 22.609375 -16.972656 24.390625 -15.234375 C 26.171875 -13.503906 27.0625 -11.347656 27.0625 -8.765625 C 27.0625 -5.890625 25.972656 -3.632812 23.796875 -2 C 21.617188 -0.363281 18.691406 0.453125 15.015625 0.453125 C 12.460938 0.453125 10.132812 -0.0078125 8.03125 -0.9375 C 5.9375 -1.875 4.335938 -3.15625 3.234375 -4.78125 C 2.128906 -6.414062 1.578125 -8.304688 1.578125 -10.453125 L 8.4375 -10.453125 C 8.4375 -6.785156 10.628906 -4.953125 15.015625 -4.953125 C 16.640625 -4.953125 17.90625 -5.28125 18.8125 -5.9375 C 19.726562 -6.601562 20.1875 -7.53125 20.1875 -8.71875 Z M 20.1875 -8.71875 "/></g></g></g><g fill="#ffffff" fill-opacity="1"><g transform="translate(707.800063, 48.988893)"><g><path d="M 14.421875 -18.25 L 21.34375 -33.21875 L 28.828125 -33.21875 L 17.90625 -12.046875 L 17.90625 0 L 10.953125 0 L 10.953125 -12.046875 L 0.046875 -33.21875 L 7.546875 -33.21875 Z M 14.421875 -18.25 "/></g></g></g><g fill="#ffffff" fill-opacity="1"><g transform="translate(736.689319, 48.988893)"><g/></g></g><g fill="#ffffff" fill-opacity="1"><g transform="translate(748.32717, 48.988893)"><g><path d="M 20.1875 -8.71875 C 20.1875 -10.007812 19.726562 -11 18.8125 -11.6875 C 17.90625 -12.382812 16.265625 -13.113281 13.890625 -13.875 C 11.523438 -14.644531 9.648438 -15.40625 8.265625 -16.15625 C 4.484375 -18.195312 2.59375 -20.941406 2.59375 -24.390625 C 2.59375 -26.191406 3.097656 -27.796875 4.109375 -29.203125 C 5.128906 -30.609375 6.582031 -31.707031 8.46875 -32.5 C 10.363281 -33.289062 12.492188 -33.6875 14.859375 -33.6875 C 17.234375 -33.6875 19.347656 -33.253906 21.203125 -32.390625 C 23.054688 -31.535156 24.492188 -30.320312 25.515625 -28.75 C 26.546875 -27.1875 27.0625 -25.40625 27.0625 -23.40625 L 20.21875 -23.40625 C 20.21875 -24.925781 19.738281 -26.109375 18.78125 -26.953125 C 17.820312 -27.804688 16.472656 -28.234375 14.734375 -28.234375 C 13.066406 -28.234375 11.769531 -27.878906 10.84375 -27.171875 C 9.914062 -26.460938 9.453125 -25.53125 9.453125 -24.375 C 9.453125 -23.289062 9.992188 -22.382812 11.078125 -21.65625 C 12.160156 -20.925781 13.757812 -20.242188 15.875 -19.609375 C 19.769531 -18.429688 22.609375 -16.972656 24.390625 -15.234375 C 26.171875 -13.503906 27.0625 -11.347656 27.0625 -8.765625 C 27.0625 -5.890625 25.972656 -3.632812 23.796875 -2 C 21.617188 -0.363281 18.691406 0.453125 15.015625 0.453125 C 12.460938 0.453125 10.132812 -0.0078125 8.03125 -0.9375 C 5.9375 -1.875 4.335938 -3.15625 3.234375 -4.78125 C 2.128906 -6.414062 1.578125 -8.304688 1.578125 -10.453125 L 8.4375 -10.453125 C 8.4375 -6.785156 10.628906 -4.953125 15.015625 -4.953125 C 16.640625 -4.953125 17.90625 -5.28125 18.8125 -5.9375 C 19.726562 -6.601562 20.1875 -7.53125 20.1875 -8.71875 Z M 20.1875 -8.71875 "/></g></g></g><g fill="#ffffff" fill-opacity="1"><g transform="translate(777.056691, 48.988893)"><g><path d="M 27.984375 -27.6875 L 17.796875 -27.6875 L 17.796875 0 L 10.953125 0 L 10.953125 -27.6875 L 0.90625 -27.6875 L 0.90625 -33.21875 L 27.984375 -33.21875 Z M 27.984375 -27.6875 "/></g></g></g><g fill="#ffffff" fill-opacity="1"><g transform="translate(805.968765, 48.988893)"><g><path d="M 22.953125 -14.40625 L 9.8125 -14.40625 L 9.8125 -5.5 L 25.234375 -5.5 L 25.234375 0 L 2.96875 0 L 2.96875 -33.21875 L 25.1875 -33.21875 L 25.1875 -27.6875 L 9.8125 -27.6875 L 9.8125 -19.765625 L 22.953125 -19.765625 Z M 22.953125 -14.40625 "/></g></g></g><g fill="#ffffff" fill-opacity="1"><g transform="translate(832.256619, 48.988893)"><g><path d="M 9.8125 -11.703125 L 9.8125 0 L 2.96875 0 L 2.96875 -33.21875 L 15.921875 -33.21875 C 18.421875 -33.21875 20.617188 -32.757812 22.515625 -31.84375 C 24.410156 -30.9375 25.863281 -29.640625 26.875 -27.953125 C 27.894531 -26.273438 28.40625 -24.363281 28.40625 -22.21875 C 28.40625 -18.96875 27.289062 -16.398438 25.0625 -14.515625 C 22.832031 -12.640625 19.75 -11.703125 15.8125 -11.703125 Z M 9.8125 -17.25 L 15.921875 -17.25 C 17.734375 -17.25 19.113281 -17.675781 20.0625 -18.53125 C 21.019531 -19.382812 21.5 -20.601562 21.5 -22.1875 C 21.5 -23.8125 21.019531 -25.125 20.0625 -26.125 C 19.101562 -27.132812 17.78125 -27.65625 16.09375 -27.6875 L 9.8125 -27.6875 Z M 9.8125 -17.25 "/></g></g></g><g fill="#ffffff" fill-opacity="1"><g transform="translate(862.400936, 48.988893)"><g><path d="M 20.1875 -8.71875 C 20.1875 -10.007812 19.726562 -11 18.8125 -11.6875 C 17.90625 -12.382812 16.265625 -13.113281 13.890625 -13.875 C 11.523438 -14.644531 9.648438 -15.40625 8.265625 -16.15625 C 4.484375 -18.195312 2.59375 -20.941406 2.59375 -24.390625 C 2.59375 -26.191406 3.097656 -27.796875 4.109375 -29.203125 C 5.128906 -30.609375 6.582031 -31.707031 8.46875 -32.5 C 10.363281 -33.289062 12.492188 -33.6875 14.859375 -33.6875 C 17.234375 -33.6875 19.347656 -33.253906 21.203125 -32.390625 C 23.054688 -31.535156 24.492188 -30.320312 25.515625 -28.75 C 26.546875 -27.1875 27.0625 -25.40625 27.0625 -23.40625 L 20.21875 -23.40625 C 20.21875 -24.925781 19.738281 -26.109375 18.78125 -26.953125 C 17.820312 -27.804688 16.472656 -28.234375 14.734375 -28.234375 C 13.066406 -28.234375 11.769531 -27.878906 10.84375 -27.171875 C 9.914062 -26.460938 9.453125 -25.53125 9.453125 -24.375 C 9.453125 -23.289062 9.992188 -22.382812 11.078125 -21.65625 C 12.160156 -20.925781 13.757812 -20.242188 15.875 -19.609375 C 19.769531 -18.429688 22.609375 -16.972656 24.390625 -15.234375 C 26.171875 -13.503906 27.0625 -11.347656 27.0625 -8.765625 C 27.0625 -5.890625 25.972656 -3.632812 23.796875 -2 C 21.617188 -0.363281 18.691406 0.453125 15.015625 0.453125 C 12.460938 0.453125 10.132812 -0.0078125 8.03125 -0.9375 C 5.9375 -1.875 4.335938 -3.15625 3.234375 -4.78125 C 2.128906 -6.414062 1.578125 -8.304688 1.578125 -10.453125 L 8.4375 -10.453125 C 8.4375 -6.785156 10.628906 -4.953125 15.015625 -4.953125 C 16.640625 -4.953125 17.90625 -5.28125 18.8125 -5.9375 C 19.726562 -6.601562 20.1875 -7.53125 20.1875 -8.71875 Z M 20.1875 -8.71875 "/></g></g></g><g fill="#ffffff" fill-opacity="1"><g transform="translate(891.130457, 48.988893)"><g><path d="M 9.234375 -10.203125 L 3.765625 -10.203125 L 2.984375 -33.21875 L 10.015625 -33.21875 Z M 6.5 -6.59375 C 7.613281 -6.59375 8.507812 -6.265625 9.1875 -5.609375 C 9.863281 -4.953125 10.203125 -4.117188 10.203125 -3.109375 C 10.203125 -2.097656 9.863281 -1.265625 9.1875 -0.609375 C 8.507812 0.0351562 7.613281 0.359375 6.5 0.359375 C 5.40625 0.359375 4.519531 0.0351562 3.84375 -0.609375 C 3.164062 -1.265625 2.828125 -2.09375 2.828125 -3.09375 C 2.828125 -4.101562 3.164062 -4.9375 3.84375 -5.59375 C 4.519531 -6.257812 5.40625 -6.59375 6.5 -6.59375 Z M 6.5 -6.59375 "/></g></g></g><g fill="#ffffff" fill-opacity="1"><g transform="translate(153.008219, 388.763495)"><g><path d="M 9.390625 0 L 6 0 L 6 -13.0625 L 1.953125 -11.796875 L 1.953125 -14.5625 L 9.03125 -17.09375 L 9.390625 -17.09375 Z M 9.390625 0 "/></g></g><g transform="translate(166.777749, 388.763495)"><g><path d="M 1.484375 -1.671875 C 1.484375 -2.203125 1.660156 -2.632812 2.015625 -2.96875 C 2.378906 -3.3125 2.835938 -3.484375 3.390625 -3.484375 C 3.941406 -3.484375 4.398438 -3.3125 4.765625 -2.96875 C 5.128906 -2.632812 5.3125 -2.203125 5.3125 -1.671875 C 5.3125 -1.140625 5.128906 -0.707031 4.765625 -0.375 C 4.410156 -0.0390625 3.953125 0.125 3.390625 0.125 C 2.835938 0.125 2.378906 -0.0390625 2.015625 -0.375 C 1.660156 -0.707031 1.484375 -1.140625 1.484375 -1.671875 Z M 1.484375 -1.671875 "/></g></g><g transform="translate(173.750405, 388.763495)"><g><path d="M 7.140625 -6.671875 C 7.140625 -4.898438 6.882812 -3.195312 6.375 -1.5625 C 5.863281 0.0625 5.128906 1.5 4.171875 2.75 C 3.222656 4 2.207031 4.859375 1.125 5.328125 L 0.46875 3.546875 C 1.582031 2.703125 2.457031 1.410156 3.09375 -0.328125 C 3.738281 -2.066406 4.070312 -4.070312 4.09375 -6.34375 L 4.09375 -6.96875 C 4.09375 -9.300781 3.773438 -11.359375 3.140625 -13.140625 C 2.503906 -14.921875 1.613281 -16.253906 0.46875 -17.140625 L 1.125 -18.9375 C 2.1875 -18.476562 3.1875 -17.640625 4.125 -16.421875 C 5.070312 -15.210938 5.804688 -13.800781 6.328125 -12.1875 C 6.847656 -10.582031 7.117188 -8.921875 7.140625 -7.203125 Z M 7.140625 -6.671875 "/></g></g><g transform="translate(182.211342, 388.763495)"><g/></g><g transform="translate(188.187904, 388.763495)"><g><path d="M 14.921875 -5.6875 C 14.785156 -3.851562 14.101562 -2.40625 12.875 -1.34375 C 11.65625 -0.289062 10.046875 0.234375 8.046875 0.234375 C 5.859375 0.234375 4.140625 -0.5 2.890625 -1.96875 C 1.640625 -3.445312 1.015625 -5.472656 1.015625 -8.046875 L 1.015625 -9.078125 C 1.015625 -10.722656 1.300781 -12.171875 1.875 -13.421875 C 2.457031 -14.671875 3.285156 -15.628906 4.359375 -16.296875 C 5.429688 -16.960938 6.675781 -17.296875 8.09375 -17.296875 C 10.0625 -17.296875 11.644531 -16.769531 12.84375 -15.71875 C 14.050781 -14.664062 14.75 -13.1875 14.9375 -11.28125 L 11.421875 -11.28125 C 11.335938 -12.375 11.03125 -13.171875 10.5 -13.671875 C 9.976562 -14.171875 9.175781 -14.421875 8.09375 -14.421875 C 6.925781 -14.421875 6.050781 -14 5.46875 -13.15625 C 4.882812 -12.3125 4.585938 -11.007812 4.578125 -9.25 L 4.578125 -7.953125 C 4.578125 -6.109375 4.851562 -4.757812 5.40625 -3.90625 C 5.96875 -3.0625 6.847656 -2.640625 8.046875 -2.640625 C 9.140625 -2.640625 9.953125 -2.882812 10.484375 -3.375 C 11.015625 -3.875 11.320312 -4.644531 11.40625 -5.6875 Z M 14.921875 -5.6875 "/></g></g><g transform="translate(203.891028, 388.763495)"><g><path d="M 4.609375 -11.296875 C 5.503906 -12.378906 6.632812 -12.921875 8 -12.921875 C 10.75 -12.921875 12.140625 -11.320312 12.171875 -8.125 L 12.171875 0 L 8.796875 0 L 8.796875 -8.03125 C 8.796875 -8.757812 8.640625 -9.296875 8.328125 -9.640625 C 8.015625 -9.984375 7.492188 -10.15625 6.765625 -10.15625 C 5.773438 -10.15625 5.054688 -9.773438 4.609375 -9.015625 L 4.609375 0 L 1.21875 0 L 1.21875 -18 L 4.609375 -18 Z M 4.609375 -11.296875 "/></g></g><g transform="translate(217.320714, 388.763495)"><g><path d="M 0.78125 -6.453125 C 0.78125 -7.710938 1.019531 -8.832031 1.5 -9.8125 C 1.988281 -10.800781 2.6875 -11.566406 3.59375 -12.109375 C 4.5 -12.648438 5.554688 -12.921875 6.765625 -12.921875 C 8.472656 -12.921875 9.867188 -12.394531 10.953125 -11.34375 C 12.035156 -10.300781 12.640625 -8.878906 12.765625 -7.078125 L 12.78125 -6.21875 C 12.78125 -4.269531 12.238281 -2.707031 11.15625 -1.53125 C 10.070312 -0.351562 8.613281 0.234375 6.78125 0.234375 C 4.957031 0.234375 3.5 -0.347656 2.40625 -1.515625 C 1.320312 -2.691406 0.78125 -4.289062 0.78125 -6.3125 Z M 4.15625 -6.21875 C 4.15625 -5.007812 4.378906 -4.085938 4.828125 -3.453125 C 5.285156 -2.816406 5.9375 -2.5 6.78125 -2.5 C 7.601562 -2.5 8.242188 -2.8125 8.703125 -3.4375 C 9.171875 -4.070312 9.40625 -5.078125 9.40625 -6.453125 C 9.40625 -7.640625 9.171875 -8.554688 8.703125 -9.203125 C 8.242188 -9.847656 7.597656 -10.171875 6.765625 -10.171875 C 5.929688 -10.171875 5.285156 -9.847656 4.828125 -9.203125 C 4.378906 -8.554688 4.15625 -7.5625 4.15625 -6.21875 Z M 4.15625 -6.21875 "/></g></g><g transform="translate(230.891026, 388.763495)"><g><path d="M 0.78125 -6.453125 C 0.78125 -7.710938 1.019531 -8.832031 1.5 -9.8125 C 1.988281 -10.800781 2.6875 -11.566406 3.59375 -12.109375 C 4.5 -12.648438 5.554688 -12.921875 6.765625 -12.921875 C 8.472656 -12.921875 9.867188 -12.394531 10.953125 -11.34375 C 12.035156 -10.300781 12.640625 -8.878906 12.765625 -7.078125 L 12.78125 -6.21875 C 12.78125 -4.269531 12.238281 -2.707031 11.15625 -1.53125 C 10.070312 -0.351562 8.613281 0.234375 6.78125 0.234375 C 4.957031 0.234375 3.5 -0.347656 2.40625 -1.515625 C 1.320312 -2.691406 0.78125 -4.289062 0.78125 -6.3125 Z M 4.15625 -6.21875 C 4.15625 -5.007812 4.378906 -4.085938 4.828125 -3.453125 C 5.285156 -2.816406 5.9375 -2.5 6.78125 -2.5 C 7.601562 -2.5 8.242188 -2.8125 8.703125 -3.4375 C 9.171875 -4.070312 9.40625 -5.078125 9.40625 -6.453125 C 9.40625 -7.640625 9.171875 -8.554688 8.703125 -9.203125 C 8.242188 -9.847656 7.597656 -10.171875 6.765625 -10.171875 C 5.929688 -10.171875 5.285156 -9.847656 4.828125 -9.203125 C 4.378906 -8.554688 4.15625 -7.5625 4.15625 -6.21875 Z M 4.15625 -6.21875 "/></g></g><g transform="translate(244.461337, 388.763495)"><g><path d="M 8.171875 -3.5 C 8.171875 -3.914062 7.960938 -4.242188 7.546875 -4.484375 C 7.140625 -4.722656 6.484375 -4.9375 5.578125 -5.125 C 2.566406 -5.757812 1.0625 -7.039062 1.0625 -8.96875 C 1.0625 -10.09375 1.523438 -11.03125 2.453125 -11.78125 C 3.390625 -12.539062 4.613281 -12.921875 6.125 -12.921875 C 7.726562 -12.921875 9.007812 -12.539062 9.96875 -11.78125 C 10.9375 -11.019531 11.421875 -10.035156 11.421875 -8.828125 L 8.046875 -8.828125 C 8.046875 -9.304688 7.890625 -9.703125 7.578125 -10.015625 C 7.265625 -10.335938 6.773438 -10.5 6.109375 -10.5 C 5.535156 -10.5 5.09375 -10.367188 4.78125 -10.109375 C 4.46875 -9.859375 4.3125 -9.53125 4.3125 -9.125 C 4.3125 -8.75 4.488281 -8.445312 4.84375 -8.21875 C 5.195312 -7.988281 5.796875 -7.789062 6.640625 -7.625 C 7.484375 -7.457031 8.195312 -7.269531 8.78125 -7.0625 C 10.570312 -6.40625 11.46875 -5.265625 11.46875 -3.640625 C 11.46875 -2.484375 10.96875 -1.546875 9.96875 -0.828125 C 8.976562 -0.117188 7.695312 0.234375 6.125 0.234375 C 5.0625 0.234375 4.117188 0.046875 3.296875 -0.328125 C 2.472656 -0.710938 1.828125 -1.234375 1.359375 -1.890625 C 0.890625 -2.554688 0.65625 -3.269531 0.65625 -4.03125 L 3.875 -4.03125 C 3.90625 -3.425781 4.125 -2.960938 4.53125 -2.640625 C 4.945312 -2.328125 5.503906 -2.171875 6.203125 -2.171875 C 6.847656 -2.171875 7.335938 -2.289062 7.671875 -2.53125 C 8.003906 -2.78125 8.171875 -3.101562 8.171875 -3.5 Z M 8.171875 -3.5 "/></g></g><g transform="translate(256.80118, 388.763495)"><g><path d="M 7.140625 0.234375 C 5.273438 0.234375 3.757812 -0.332031 2.59375 -1.46875 C 1.425781 -2.613281 0.84375 -4.132812 0.84375 -6.03125 L 0.84375 -6.359375 C 0.84375 -7.640625 1.085938 -8.78125 1.578125 -9.78125 C 2.078125 -10.78125 2.773438 -11.550781 3.671875 -12.09375 C 4.578125 -12.644531 5.609375 -12.921875 6.765625 -12.921875 C 8.492188 -12.921875 9.859375 -12.375 10.859375 -11.28125 C 11.859375 -10.1875 12.359375 -8.632812 12.359375 -6.625 L 12.359375 -5.234375 L 4.28125 -5.234375 C 4.382812 -4.410156 4.710938 -3.75 5.265625 -3.25 C 5.816406 -2.75 6.515625 -2.5 7.359375 -2.5 C 8.660156 -2.5 9.679688 -2.972656 10.421875 -3.921875 L 12.078125 -2.046875 C 11.578125 -1.328125 10.890625 -0.765625 10.015625 -0.359375 C 9.148438 0.0351562 8.191406 0.234375 7.140625 0.234375 Z M 6.75 -10.171875 C 6.082031 -10.171875 5.535156 -9.941406 5.109375 -9.484375 C 4.691406 -9.035156 4.425781 -8.390625 4.3125 -7.546875 L 9.03125 -7.546875 L 9.03125 -7.8125 C 9.007812 -8.5625 8.800781 -9.140625 8.40625 -9.546875 C 8.019531 -9.960938 7.46875 -10.171875 6.75 -10.171875 Z M 6.75 -10.171875 "/></g></g><g transform="translate(269.773835, 388.763495)"><g/></g><g transform="translate(275.750397, 388.763495)"><g><path d="M 12.71875 -6.21875 C 12.71875 -4.269531 12.273438 -2.707031 11.390625 -1.53125 C 10.503906 -0.351562 9.304688 0.234375 7.796875 0.234375 C 6.515625 0.234375 5.476562 -0.210938 4.6875 -1.109375 L 4.6875 4.875 L 1.296875 4.875 L 1.296875 -12.6875 L 4.4375 -12.6875 L 4.5625 -11.4375 C 5.382812 -12.425781 6.453125 -12.921875 7.765625 -12.921875 C 9.328125 -12.921875 10.539062 -12.34375 11.40625 -11.1875 C 12.28125 -10.03125 12.71875 -8.4375 12.71875 -6.40625 Z M 9.328125 -6.46875 C 9.328125 -7.644531 9.117188 -8.550781 8.703125 -9.1875 C 8.285156 -9.832031 7.675781 -10.15625 6.875 -10.15625 C 5.8125 -10.15625 5.082031 -9.75 4.6875 -8.9375 L 4.6875 -3.75 C 5.101562 -2.914062 5.84375 -2.5 6.90625 -2.5 C 8.519531 -2.5 9.328125 -3.820312 9.328125 -6.46875 Z M 9.328125 -6.46875 "/></g></g><g transform="translate(289.262115, 388.763495)"><g><path d="M 8.421875 -9.5 C 7.960938 -9.5625 7.554688 -9.59375 7.203125 -9.59375 C 5.921875 -9.59375 5.082031 -9.160156 4.6875 -8.296875 L 4.6875 0 L 1.296875 0 L 1.296875 -12.6875 L 4.5 -12.6875 L 4.59375 -11.171875 C 5.269531 -12.335938 6.210938 -12.921875 7.421875 -12.921875 C 7.796875 -12.921875 8.144531 -12.867188 8.46875 -12.765625 Z M 8.421875 -9.5 "/></g></g><g transform="translate(298.01602, 388.763495)"><g><path d="M 0.78125 -6.453125 C 0.78125 -7.710938 1.019531 -8.832031 1.5 -9.8125 C 1.988281 -10.800781 2.6875 -11.566406 3.59375 -12.109375 C 4.5 -12.648438 5.554688 -12.921875 6.765625 -12.921875 C 8.472656 -12.921875 9.867188 -12.394531 10.953125 -11.34375 C 12.035156 -10.300781 12.640625 -8.878906 12.765625 -7.078125 L 12.78125 -6.21875 C 12.78125 -4.269531 12.238281 -2.707031 11.15625 -1.53125 C 10.070312 -0.351562 8.613281 0.234375 6.78125 0.234375 C 4.957031 0.234375 3.5 -0.347656 2.40625 -1.515625 C 1.320312 -2.691406 0.78125 -4.289062 0.78125 -6.3125 Z M 4.15625 -6.21875 C 4.15625 -5.007812 4.378906 -4.085938 4.828125 -3.453125 C 5.285156 -2.816406 5.9375 -2.5 6.78125 -2.5 C 7.601562 -2.5 8.242188 -2.8125 8.703125 -3.4375 C 9.171875 -4.070312 9.40625 -5.078125 9.40625 -6.453125 C 9.40625 -7.640625 9.171875 -8.554688 8.703125 -9.203125 C 8.242188 -9.847656 7.597656 -10.171875 6.765625 -10.171875 C 5.929688 -10.171875 5.285156 -9.847656 4.828125 -9.203125 C 4.378906 -8.554688 4.15625 -7.5625 4.15625 -6.21875 Z M 4.15625 -6.21875 "/></g></g><g transform="translate(311.586332, 388.763495)"><g><path d="M 0.78125 -6.4375 C 0.78125 -8.414062 1.222656 -9.988281 2.109375 -11.15625 C 2.992188 -12.332031 4.207031 -12.921875 5.75 -12.921875 C 6.976562 -12.921875 7.992188 -12.457031 8.796875 -11.53125 L 8.796875 -18 L 12.203125 -18 L 12.203125 0 L 9.140625 0 L 8.984375 -1.34375 C 8.140625 -0.289062 7.050781 0.234375 5.71875 0.234375 C 4.226562 0.234375 3.03125 -0.351562 2.125 -1.53125 C 1.226562 -2.707031 0.78125 -4.34375 0.78125 -6.4375 Z M 4.15625 -6.1875 C 4.15625 -5 4.363281 -4.085938 4.78125 -3.453125 C 5.195312 -2.828125 5.800781 -2.515625 6.59375 -2.515625 C 7.632812 -2.515625 8.367188 -2.953125 8.796875 -3.828125 L 8.796875 -8.84375 C 8.378906 -9.71875 7.648438 -10.15625 6.609375 -10.15625 C 4.972656 -10.15625 4.15625 -8.832031 4.15625 -6.1875 Z M 4.15625 -6.1875 "/></g></g><g transform="translate(325.109768, 388.763495)"><g><path d="M 8.890625 -1.296875 C 8.054688 -0.273438 6.898438 0.234375 5.421875 0.234375 C 4.066406 0.234375 3.03125 -0.15625 2.3125 -0.9375 C 1.601562 -1.71875 1.238281 -2.863281 1.21875 -4.375 L 1.21875 -12.6875 L 4.609375 -12.6875 L 4.609375 -4.484375 C 4.609375 -3.171875 5.207031 -2.515625 6.40625 -2.515625 C 7.5625 -2.515625 8.351562 -2.910156 8.78125 -3.703125 L 8.78125 -12.6875 L 12.171875 -12.6875 L 12.171875 0 L 8.984375 0 Z M 8.890625 -1.296875 "/></g></g><g transform="translate(338.539455, 388.763495)"><g><path d="M 6.578125 -2.5 C 7.203125 -2.5 7.707031 -2.671875 8.09375 -3.015625 C 8.488281 -3.359375 8.691406 -3.816406 8.703125 -4.390625 L 11.890625 -4.390625 C 11.878906 -3.523438 11.640625 -2.734375 11.171875 -2.015625 C 10.710938 -1.304688 10.082031 -0.753906 9.28125 -0.359375 C 8.488281 0.0351562 7.609375 0.234375 6.640625 0.234375 C 4.828125 0.234375 3.394531 -0.335938 2.34375 -1.484375 C 1.300781 -2.640625 0.78125 -4.234375 0.78125 -6.265625 L 0.78125 -6.5 C 0.78125 -8.445312 1.296875 -10.003906 2.328125 -11.171875 C 3.367188 -12.335938 4.796875 -12.921875 6.609375 -12.921875 C 8.191406 -12.921875 9.460938 -12.46875 10.421875 -11.5625 C 11.378906 -10.65625 11.867188 -9.453125 11.890625 -7.953125 L 8.703125 -7.953125 C 8.691406 -8.609375 8.488281 -9.140625 8.09375 -9.546875 C 7.707031 -9.960938 7.191406 -10.171875 6.546875 -10.171875 C 5.765625 -10.171875 5.171875 -9.882812 4.765625 -9.3125 C 4.359375 -8.738281 4.15625 -7.804688 4.15625 -6.515625 L 4.15625 -6.171875 C 4.15625 -4.859375 4.351562 -3.914062 4.75 -3.34375 C 5.15625 -2.78125 5.765625 -2.5 6.578125 -2.5 Z M 6.578125 -2.5 "/></g></g><g transform="translate(351.055079, 388.763495)"><g><path d="M 5.359375 -15.796875 L 5.359375 -12.6875 L 7.53125 -12.6875 L 7.53125 -10.203125 L 5.359375 -10.203125 L 5.359375 -3.875 C 5.359375 -3.40625 5.445312 -3.066406 5.625 -2.859375 C 5.800781 -2.660156 6.144531 -2.5625 6.65625 -2.5625 C 7.03125 -2.5625 7.363281 -2.585938 7.65625 -2.640625 L 7.65625 -0.078125 C 6.988281 0.128906 6.304688 0.234375 5.609375 0.234375 C 3.234375 0.234375 2.019531 -0.960938 1.96875 -3.359375 L 1.96875 -10.203125 L 0.125 -10.203125 L 0.125 -12.6875 L 1.96875 -12.6875 L 1.96875 -15.796875 Z M 5.359375 -15.796875 "/></g></g><g transform="translate(359.164453, 388.763495)"><g><path d="M 2.375 1.46875 L -0.15625 1.46875 L 6.125 -17.0625 L 8.65625 -17.0625 Z M 2.375 1.46875 "/></g></g><g transform="translate(368.129297, 388.763495)"><g><path d="M 8.171875 -3.5 C 8.171875 -3.914062 7.960938 -4.242188 7.546875 -4.484375 C 7.140625 -4.722656 6.484375 -4.9375 5.578125 -5.125 C 2.566406 -5.757812 1.0625 -7.039062 1.0625 -8.96875 C 1.0625 -10.09375 1.523438 -11.03125 2.453125 -11.78125 C 3.390625 -12.539062 4.613281 -12.921875 6.125 -12.921875 C 7.726562 -12.921875 9.007812 -12.539062 9.96875 -11.78125 C 10.9375 -11.019531 11.421875 -10.035156 11.421875 -8.828125 L 8.046875 -8.828125 C 8.046875 -9.304688 7.890625 -9.703125 7.578125 -10.015625 C 7.265625 -10.335938 6.773438 -10.5 6.109375 -10.5 C 5.535156 -10.5 5.09375 -10.367188 4.78125 -10.109375 C 4.46875 -9.859375 4.3125 -9.53125 4.3125 -9.125 C 4.3125 -8.75 4.488281 -8.445312 4.84375 -8.21875 C 5.195312 -7.988281 5.796875 -7.789062 6.640625 -7.625 C 7.484375 -7.457031 8.195312 -7.269531 8.78125 -7.0625 C 10.570312 -6.40625 11.46875 -5.265625 11.46875 -3.640625 C 11.46875 -2.484375 10.96875 -1.546875 9.96875 -0.828125 C 8.976562 -0.117188 7.695312 0.234375 6.125 0.234375 C 5.0625 0.234375 4.117188 0.046875 3.296875 -0.328125 C 2.472656 -0.710938 1.828125 -1.234375 1.359375 -1.890625 C 0.890625 -2.554688 0.65625 -3.269531 0.65625 -4.03125 L 3.875 -4.03125 C 3.90625 -3.425781 4.125 -2.960938 4.53125 -2.640625 C 4.945312 -2.328125 5.503906 -2.171875 6.203125 -2.171875 C 6.847656 -2.171875 7.335938 -2.289062 7.671875 -2.53125 C 8.003906 -2.78125 8.171875 -3.101562 8.171875 -3.5 Z M 8.171875 -3.5 "/></g></g></g><g fill="#ffffff" fill-opacity="1"><g transform="translate(666.510851, 373.196222)"><g><path d="M 12.859375 0 L 1.15625 0 L 1.15625 -2.328125 L 6.6875 -8.203125 C 7.4375 -9.035156 7.992188 -9.757812 8.359375 -10.375 C 8.722656 -10.988281 8.90625 -11.570312 8.90625 -12.125 C 8.90625 -12.882812 8.710938 -13.476562 8.328125 -13.90625 C 7.953125 -14.34375 7.40625 -14.5625 6.6875 -14.5625 C 5.925781 -14.5625 5.320312 -14.296875 4.875 -13.765625 C 4.4375 -13.242188 4.21875 -12.554688 4.21875 -11.703125 L 0.828125 -11.703125 C 0.828125 -12.734375 1.070312 -13.675781 1.5625 -14.53125 C 2.0625 -15.394531 2.765625 -16.070312 3.671875 -16.5625 C 4.578125 -17.050781 5.601562 -17.296875 6.75 -17.296875 C 8.507812 -17.296875 9.875 -16.875 10.84375 -16.03125 C 11.820312 -15.1875 12.3125 -13.992188 12.3125 -12.453125 C 12.3125 -11.609375 12.09375 -10.75 11.65625 -9.875 C 11.21875 -9 10.46875 -7.984375 9.40625 -6.828125 L 5.515625 -2.734375 L 12.859375 -2.734375 Z M 12.859375 0 "/></g></g><g transform="translate(680.280381, 373.196222)"><g><path d="M 1.484375 -1.671875 C 1.484375 -2.203125 1.660156 -2.632812 2.015625 -2.96875 C 2.378906 -3.3125 2.835938 -3.484375 3.390625 -3.484375 C 3.941406 -3.484375 4.398438 -3.3125 4.765625 -2.96875 C 5.128906 -2.632812 5.3125 -2.203125 5.3125 -1.671875 C 5.3125 -1.140625 5.128906 -0.707031 4.765625 -0.375 C 4.410156 -0.0390625 3.953125 0.125 3.390625 0.125 C 2.835938 0.125 2.378906 -0.0390625 2.015625 -0.375 C 1.660156 -0.707031 1.484375 -1.140625 1.484375 -1.671875 Z M 1.484375 -1.671875 "/></g></g><g transform="translate(687.253036, 373.196222)"><g><path d="M 7.140625 -6.671875 C 7.140625 -4.898438 6.882812 -3.195312 6.375 -1.5625 C 5.863281 0.0625 5.128906 1.5 4.171875 2.75 C 3.222656 4 2.207031 4.859375 1.125 5.328125 L 0.46875 3.546875 C 1.582031 2.703125 2.457031 1.410156 3.09375 -0.328125 C 3.738281 -2.066406 4.070312 -4.070312 4.09375 -6.34375 L 4.09375 -6.96875 C 4.09375 -9.300781 3.773438 -11.359375 3.140625 -13.140625 C 2.503906 -14.921875 1.613281 -16.253906 0.46875 -17.140625 L 1.125 -18.9375 C 2.1875 -18.476562 3.1875 -17.640625 4.125 -16.421875 C 5.070312 -15.210938 5.804688 -13.800781 6.328125 -12.1875 C 6.847656 -10.582031 7.117188 -8.921875 7.140625 -7.203125 Z M 7.140625 -6.671875 "/></g></g><g transform="translate(695.713973, 373.196222)"><g/></g><g transform="translate(701.690535, 373.196222)"><g><path d="M 11.15625 -3.515625 L 5 -3.515625 L 3.828125 0 L 0.078125 0 L 6.4375 -17.0625 L 9.6875 -17.0625 L 16.078125 0 L 12.34375 0 Z M 5.9375 -6.359375 L 10.203125 -6.359375 L 8.0625 -12.75 Z M 5.9375 -6.359375 "/></g></g><g transform="translate(717.838971, 373.196222)"><g><path d="M 0.78125 -6.4375 C 0.78125 -8.414062 1.222656 -9.988281 2.109375 -11.15625 C 2.992188 -12.332031 4.207031 -12.921875 5.75 -12.921875 C 6.976562 -12.921875 7.992188 -12.457031 8.796875 -11.53125 L 8.796875 -18 L 12.203125 -18 L 12.203125 0 L 9.140625 0 L 8.984375 -1.34375 C 8.140625 -0.289062 7.050781 0.234375 5.71875 0.234375 C 4.226562 0.234375 3.03125 -0.351562 2.125 -1.53125 C 1.226562 -2.707031 0.78125 -4.34375 0.78125 -6.4375 Z M 4.15625 -6.1875 C 4.15625 -5 4.363281 -4.085938 4.78125 -3.453125 C 5.195312 -2.828125 5.800781 -2.515625 6.59375 -2.515625 C 7.632812 -2.515625 8.367188 -2.953125 8.796875 -3.828125 L 8.796875 -8.84375 C 8.378906 -9.71875 7.648438 -10.15625 6.609375 -10.15625 C 4.972656 -10.15625 4.15625 -8.832031 4.15625 -6.1875 Z M 4.15625 -6.1875 "/></g></g><g transform="translate(731.362408, 373.196222)"><g><path d="M 0.78125 -6.4375 C 0.78125 -8.414062 1.222656 -9.988281 2.109375 -11.15625 C 2.992188 -12.332031 4.207031 -12.921875 5.75 -12.921875 C 6.976562 -12.921875 7.992188 -12.457031 8.796875 -11.53125 L 8.796875 -18 L 12.203125 -18 L 12.203125 0 L 9.140625 0 L 8.984375 -1.34375 C 8.140625 -0.289062 7.050781 0.234375 5.71875 0.234375 C 4.226562 0.234375 3.03125 -0.351562 2.125 -1.53125 C 1.226562 -2.707031 0.78125 -4.34375 0.78125 -6.4375 Z M 4.15625 -6.1875 C 4.15625 -5 4.363281 -4.085938 4.78125 -3.453125 C 5.195312 -2.828125 5.800781 -2.515625 6.59375 -2.515625 C 7.632812 -2.515625 8.367188 -2.953125 8.796875 -3.828125 L 8.796875 -8.84375 C 8.378906 -9.71875 7.648438 -10.15625 6.609375 -10.15625 C 4.972656 -10.15625 4.15625 -8.832031 4.15625 -6.1875 Z M 4.15625 -6.1875 "/></g></g><g transform="translate(744.885844, 373.196222)"><g/></g><g transform="translate(750.862406, 373.196222)"><g><path d="M 4.875 0 L 1.484375 0 L 1.484375 -12.6875 L 4.875 -12.6875 Z M 1.28125 -15.96875 C 1.28125 -16.46875 1.445312 -16.878906 1.78125 -17.203125 C 2.125 -17.535156 2.585938 -17.703125 3.171875 -17.703125 C 3.753906 -17.703125 4.21875 -17.535156 4.5625 -17.203125 C 4.90625 -16.878906 5.078125 -16.46875 5.078125 -15.96875 C 5.078125 -15.445312 4.898438 -15.019531 4.546875 -14.6875 C 4.203125 -14.363281 3.742188 -14.203125 3.171875 -14.203125 C 2.609375 -14.203125 2.148438 -14.363281 1.796875 -14.6875 C 1.453125 -15.019531 1.28125 -15.445312 1.28125 -15.96875 Z M 1.28125 -15.96875 "/></g></g><g transform="translate(757.225687, 373.196222)"><g><path d="M 5.359375 -15.796875 L 5.359375 -12.6875 L 7.53125 -12.6875 L 7.53125 -10.203125 L 5.359375 -10.203125 L 5.359375 -3.875 C 5.359375 -3.40625 5.445312 -3.066406 5.625 -2.859375 C 5.800781 -2.660156 6.144531 -2.5625 6.65625 -2.5625 C 7.03125 -2.5625 7.363281 -2.585938 7.65625 -2.640625 L 7.65625 -0.078125 C 6.988281 0.128906 6.304688 0.234375 5.609375 0.234375 C 3.234375 0.234375 2.019531 -0.960938 1.96875 -3.359375 L 1.96875 -10.203125 L 0.125 -10.203125 L 0.125 -12.6875 L 1.96875 -12.6875 L 1.96875 -15.796875 Z M 5.359375 -15.796875 "/></g></g><g transform="translate(765.335062, 373.196222)"><g/></g><g transform="translate(771.311624, 373.196222)"><g><path d="M 5.359375 -15.796875 L 5.359375 -12.6875 L 7.53125 -12.6875 L 7.53125 -10.203125 L 5.359375 -10.203125 L 5.359375 -3.875 C 5.359375 -3.40625 5.445312 -3.066406 5.625 -2.859375 C 5.800781 -2.660156 6.144531 -2.5625 6.65625 -2.5625 C 7.03125 -2.5625 7.363281 -2.585938 7.65625 -2.640625 L 7.65625 -0.078125 C 6.988281 0.128906 6.304688 0.234375 5.609375 0.234375 C 3.234375 0.234375 2.019531 -0.960938 1.96875 -3.359375 L 1.96875 -10.203125 L 0.125 -10.203125 L 0.125 -12.6875 L 1.96875 -12.6875 L 1.96875 -15.796875 Z M 5.359375 -15.796875 "/></g></g><g transform="translate(779.420998, 373.196222)"><g><path d="M 0.78125 -6.453125 C 0.78125 -7.710938 1.019531 -8.832031 1.5 -9.8125 C 1.988281 -10.800781 2.6875 -11.566406 3.59375 -12.109375 C 4.5 -12.648438 5.554688 -12.921875 6.765625 -12.921875 C 8.472656 -12.921875 9.867188 -12.394531 10.953125 -11.34375 C 12.035156 -10.300781 12.640625 -8.878906 12.765625 -7.078125 L 12.78125 -6.21875 C 12.78125 -4.269531 12.238281 -2.707031 11.15625 -1.53125 C 10.070312 -0.351562 8.613281 0.234375 6.78125 0.234375 C 4.957031 0.234375 3.5 -0.347656 2.40625 -1.515625 C 1.320312 -2.691406 0.78125 -4.289062 0.78125 -6.3125 Z M 4.15625 -6.21875 C 4.15625 -5.007812 4.378906 -4.085938 4.828125 -3.453125 C 5.285156 -2.816406 5.9375 -2.5 6.78125 -2.5 C 7.601562 -2.5 8.242188 -2.8125 8.703125 -3.4375 C 9.171875 -4.070312 9.40625 -5.078125 9.40625 -6.453125 C 9.40625 -7.640625 9.171875 -8.554688 8.703125 -9.203125 C 8.242188 -9.847656 7.597656 -10.171875 6.765625 -10.171875 C 5.929688 -10.171875 5.285156 -9.847656 4.828125 -9.203125 C 4.378906 -8.554688 4.15625 -7.5625 4.15625 -6.21875 Z M 4.15625 -6.21875 "/></g></g><g transform="translate(792.99131, 373.196222)"><g/></g><g transform="translate(798.967872, 373.196222)"><g><path d="M 5.359375 -15.796875 L 5.359375 -12.6875 L 7.53125 -12.6875 L 7.53125 -10.203125 L 5.359375 -10.203125 L 5.359375 -3.875 C 5.359375 -3.40625 5.445312 -3.066406 5.625 -2.859375 C 5.800781 -2.660156 6.144531 -2.5625 6.65625 -2.5625 C 7.03125 -2.5625 7.363281 -2.585938 7.65625 -2.640625 L 7.65625 -0.078125 C 6.988281 0.128906 6.304688 0.234375 5.609375 0.234375 C 3.234375 0.234375 2.019531 -0.960938 1.96875 -3.359375 L 1.96875 -10.203125 L 0.125 -10.203125 L 0.125 -12.6875 L 1.96875 -12.6875 L 1.96875 -15.796875 Z M 5.359375 -15.796875 "/></g></g><g transform="translate(807.077246, 373.196222)"><g><path d="M 4.609375 -11.296875 C 5.503906 -12.378906 6.632812 -12.921875 8 -12.921875 C 10.75 -12.921875 12.140625 -11.320312 12.171875 -8.125 L 12.171875 0 L 8.796875 0 L 8.796875 -8.03125 C 8.796875 -8.757812 8.640625 -9.296875 8.328125 -9.640625 C 8.015625 -9.984375 7.492188 -10.15625 6.765625 -10.15625 C 5.773438 -10.15625 5.054688 -9.773438 4.609375 -9.015625 L 4.609375 0 L 1.21875 0 L 1.21875 -18 L 4.609375 -18 Z M 4.609375 -11.296875 "/></g></g><g transform="translate(820.506933, 373.196222)"><g><path d="M 7.140625 0.234375 C 5.273438 0.234375 3.757812 -0.332031 2.59375 -1.46875 C 1.425781 -2.613281 0.84375 -4.132812 0.84375 -6.03125 L 0.84375 -6.359375 C 0.84375 -7.640625 1.085938 -8.78125 1.578125 -9.78125 C 2.078125 -10.78125 2.773438 -11.550781 3.671875 -12.09375 C 4.578125 -12.644531 5.609375 -12.921875 6.765625 -12.921875 C 8.492188 -12.921875 9.859375 -12.375 10.859375 -11.28125 C 11.859375 -10.1875 12.359375 -8.632812 12.359375 -6.625 L 12.359375 -5.234375 L 4.28125 -5.234375 C 4.382812 -4.410156 4.710938 -3.75 5.265625 -3.25 C 5.816406 -2.75 6.515625 -2.5 7.359375 -2.5 C 8.660156 -2.5 9.679688 -2.972656 10.421875 -3.921875 L 12.078125 -2.046875 C 11.578125 -1.328125 10.890625 -0.765625 10.015625 -0.359375 C 9.148438 0.0351562 8.191406 0.234375 7.140625 0.234375 Z M 6.75 -10.171875 C 6.082031 -10.171875 5.535156 -9.941406 5.109375 -9.484375 C 4.691406 -9.035156 4.425781 -8.390625 4.3125 -7.546875 L 9.03125 -7.546875 L 9.03125 -7.8125 C 9.007812 -8.5625 8.800781 -9.140625 8.40625 -9.546875 C 8.019531 -9.960938 7.46875 -10.171875 6.75 -10.171875 Z M 6.75 -10.171875 "/></g></g></g><g fill="#ffffff" fill-opacity="1"><g transform="translate(710.421003, 406.19622)"><g><path d="M 12.734375 -6.21875 C 12.734375 -4.1875 12.296875 -2.601562 11.421875 -1.46875 C 10.554688 -0.332031 9.347656 0.234375 7.796875 0.234375 C 6.421875 0.234375 5.320312 -0.289062 4.5 -1.34375 L 4.34375 0 L 1.296875 0 L 1.296875 -18 L 4.6875 -18 L 4.6875 -11.546875 C 5.46875 -12.460938 6.492188 -12.921875 7.765625 -12.921875 C 9.316406 -12.921875 10.53125 -12.347656 11.40625 -11.203125 C 12.289062 -10.066406 12.734375 -8.46875 12.734375 -6.40625 Z M 9.34375 -6.46875 C 9.34375 -7.75 9.140625 -8.679688 8.734375 -9.265625 C 8.328125 -9.859375 7.722656 -10.15625 6.921875 -10.15625 C 5.835938 -10.15625 5.09375 -9.71875 4.6875 -8.84375 L 4.6875 -3.828125 C 5.101562 -2.941406 5.851562 -2.5 6.9375 -2.5 C 8.03125 -2.5 8.75 -3.035156 9.09375 -4.109375 C 9.257812 -4.628906 9.34375 -5.414062 9.34375 -6.46875 Z M 9.34375 -6.46875 "/></g></g><g transform="translate(723.932721, 406.19622)"><g><path d="M 8.65625 0 C 8.5 -0.300781 8.382812 -0.679688 8.3125 -1.140625 C 7.488281 -0.222656 6.421875 0.234375 5.109375 0.234375 C 3.867188 0.234375 2.835938 -0.125 2.015625 -0.84375 C 1.203125 -1.5625 0.796875 -2.46875 0.796875 -3.5625 C 0.796875 -4.90625 1.289062 -5.9375 2.28125 -6.65625 C 3.28125 -7.375 4.722656 -7.738281 6.609375 -7.75 L 8.171875 -7.75 L 8.171875 -8.46875 C 8.171875 -9.0625 8.019531 -9.53125 7.71875 -9.875 C 7.414062 -10.226562 6.941406 -10.40625 6.296875 -10.40625 C 5.722656 -10.40625 5.273438 -10.269531 4.953125 -10 C 4.628906 -9.726562 4.46875 -9.351562 4.46875 -8.875 L 1.078125 -8.875 C 1.078125 -9.601562 1.300781 -10.28125 1.75 -10.90625 C 2.207031 -11.53125 2.847656 -12.019531 3.671875 -12.375 C 4.503906 -12.738281 5.4375 -12.921875 6.46875 -12.921875 C 8.03125 -12.921875 9.269531 -12.523438 10.1875 -11.734375 C 11.101562 -10.953125 11.5625 -9.847656 11.5625 -8.421875 L 11.5625 -2.9375 C 11.570312 -1.726562 11.742188 -0.816406 12.078125 -0.203125 L 12.078125 0 Z M 5.84375 -2.359375 C 6.34375 -2.359375 6.800781 -2.46875 7.21875 -2.6875 C 7.644531 -2.914062 7.960938 -3.21875 8.171875 -3.59375 L 8.171875 -5.765625 L 6.90625 -5.765625 C 5.207031 -5.765625 4.304688 -5.179688 4.203125 -4.015625 L 4.1875 -3.8125 C 4.1875 -3.382812 4.332031 -3.035156 4.625 -2.765625 C 4.925781 -2.492188 5.332031 -2.359375 5.84375 -2.359375 Z M 5.84375 -2.359375 "/></g></g><g transform="translate(736.799907, 406.19622)"><g><path d="M 6.03125 -4.796875 L 8.375 -12.6875 L 12.015625 -12.6875 L 6.921875 1.96875 L 6.640625 2.640625 C 5.878906 4.296875 4.628906 5.125 2.890625 5.125 C 2.390625 5.125 1.890625 5.050781 1.390625 4.90625 L 1.390625 2.328125 L 1.90625 2.34375 C 2.539062 2.34375 3.015625 2.242188 3.328125 2.046875 C 3.648438 1.859375 3.898438 1.535156 4.078125 1.078125 L 4.484375 0.03125 L 0.03125 -12.6875 L 3.6875 -12.6875 Z M 6.03125 -4.796875 "/></g></g><g transform="translate(748.846782, 406.19622)"><g><path d="M 0.78125 -6.453125 C 0.78125 -7.710938 1.019531 -8.832031 1.5 -9.8125 C 1.988281 -10.800781 2.6875 -11.566406 3.59375 -12.109375 C 4.5 -12.648438 5.554688 -12.921875 6.765625 -12.921875 C 8.472656 -12.921875 9.867188 -12.394531 10.953125 -11.34375 C 12.035156 -10.300781 12.640625 -8.878906 12.765625 -7.078125 L 12.78125 -6.21875 C 12.78125 -4.269531 12.238281 -2.707031 11.15625 -1.53125 C 10.070312 -0.351562 8.613281 0.234375 6.78125 0.234375 C 4.957031 0.234375 3.5 -0.347656 2.40625 -1.515625 C 1.320312 -2.691406 0.78125 -4.289062 0.78125 -6.3125 Z M 4.15625 -6.21875 C 4.15625 -5.007812 4.378906 -4.085938 4.828125 -3.453125 C 5.285156 -2.816406 5.9375 -2.5 6.78125 -2.5 C 7.601562 -2.5 8.242188 -2.8125 8.703125 -3.4375 C 9.171875 -4.070312 9.40625 -5.078125 9.40625 -6.453125 C 9.40625 -7.640625 9.171875 -8.554688 8.703125 -9.203125 C 8.242188 -9.847656 7.597656 -10.171875 6.765625 -10.171875 C 5.929688 -10.171875 5.285156 -9.847656 4.828125 -9.203125 C 4.378906 -8.554688 4.15625 -7.5625 4.15625 -6.21875 Z M 4.15625 -6.21875 "/></g></g><g transform="translate(762.417093, 406.19622)"><g><path d="M 4.421875 -12.6875 L 4.53125 -11.21875 C 5.4375 -12.351562 6.648438 -12.921875 8.171875 -12.921875 C 9.515625 -12.921875 10.515625 -12.523438 11.171875 -11.734375 C 11.828125 -10.941406 12.160156 -9.757812 12.171875 -8.1875 L 12.171875 0 L 8.796875 0 L 8.796875 -8.109375 C 8.796875 -8.828125 8.640625 -9.347656 8.328125 -9.671875 C 8.015625 -9.992188 7.492188 -10.15625 6.765625 -10.15625 C 5.804688 -10.15625 5.09375 -9.75 4.625 -8.9375 L 4.625 0 L 1.234375 0 L 1.234375 -12.6875 Z M 4.421875 -12.6875 "/></g></g><g transform="translate(775.858498, 406.19622)"><g><path d="M 0.8125 -6.4375 C 0.8125 -8.382812 1.273438 -9.953125 2.203125 -11.140625 C 3.128906 -12.328125 4.375 -12.921875 5.9375 -12.921875 C 7.332031 -12.921875 8.414062 -12.441406 9.1875 -11.484375 L 9.328125 -12.6875 L 12.40625 -12.6875 L 12.40625 -0.421875 C 12.40625 0.691406 12.148438 1.65625 11.640625 2.46875 C 11.140625 3.289062 10.429688 3.914062 9.515625 4.34375 C 8.597656 4.78125 7.53125 5 6.3125 5 C 5.375 5 4.460938 4.8125 3.578125 4.4375 C 2.703125 4.0625 2.035156 3.582031 1.578125 3 L 3.078125 0.9375 C 3.921875 1.882812 4.945312 2.359375 6.15625 2.359375 C 7.050781 2.359375 7.75 2.117188 8.25 1.640625 C 8.75 1.160156 9 0.476562 9 -0.40625 L 9 -1.09375 C 8.21875 -0.207031 7.191406 0.234375 5.921875 0.234375 C 4.398438 0.234375 3.164062 -0.359375 2.21875 -1.546875 C 1.28125 -2.742188 0.8125 -4.328125 0.8125 -6.296875 Z M 4.203125 -6.1875 C 4.203125 -5.039062 4.429688 -4.140625 4.890625 -3.484375 C 5.347656 -2.835938 5.976562 -2.515625 6.78125 -2.515625 C 7.8125 -2.515625 8.550781 -2.898438 9 -3.671875 L 9 -9 C 8.550781 -9.769531 7.820312 -10.15625 6.8125 -10.15625 C 6 -10.15625 5.359375 -9.820312 4.890625 -9.15625 C 4.429688 -8.5 4.203125 -7.507812 4.203125 -6.1875 Z M 4.203125 -6.1875 "/></g></g></g><g fill="#ffffff" fill-opacity="1"><g transform="translate(1149.828326, 388.763495)"><g><path d="M 4.609375 -10.03125 L 6.40625 -10.03125 C 7.269531 -10.03125 7.90625 -10.242188 8.3125 -10.671875 C 8.726562 -11.109375 8.9375 -11.679688 8.9375 -12.390625 C 8.9375 -13.078125 8.734375 -13.609375 8.328125 -13.984375 C 7.921875 -14.367188 7.359375 -14.5625 6.640625 -14.5625 C 5.984375 -14.5625 5.4375 -14.382812 5 -14.03125 C 4.5625 -13.675781 4.34375 -13.210938 4.34375 -12.640625 L 0.96875 -12.640625 C 0.96875 -13.535156 1.207031 -14.335938 1.6875 -15.046875 C 2.164062 -15.753906 2.835938 -16.304688 3.703125 -16.703125 C 4.566406 -17.097656 5.515625 -17.296875 6.546875 -17.296875 C 8.359375 -17.296875 9.773438 -16.863281 10.796875 -16 C 11.816406 -15.132812 12.328125 -13.945312 12.328125 -12.4375 C 12.328125 -11.65625 12.085938 -10.9375 11.609375 -10.28125 C 11.140625 -9.625 10.515625 -9.117188 9.734375 -8.765625 C 10.703125 -8.421875 11.421875 -7.90625 11.890625 -7.21875 C 12.359375 -6.53125 12.59375 -5.71875 12.59375 -4.78125 C 12.59375 -3.269531 12.039062 -2.054688 10.9375 -1.140625 C 9.832031 -0.222656 8.367188 0.234375 6.546875 0.234375 C 4.847656 0.234375 3.457031 -0.210938 2.375 -1.109375 C 1.289062 -2.015625 0.75 -3.203125 0.75 -4.671875 L 4.140625 -4.671875 C 4.140625 -4.035156 4.378906 -3.515625 4.859375 -3.109375 C 5.335938 -2.703125 5.929688 -2.5 6.640625 -2.5 C 7.441406 -2.5 8.070312 -2.710938 8.53125 -3.140625 C 8.988281 -3.566406 9.21875 -4.128906 9.21875 -4.828125 C 9.21875 -6.535156 8.28125 -7.390625 6.40625 -7.390625 L 4.609375 -7.390625 Z M 4.609375 -10.03125 "/></g></g><g transform="translate(1163.597856, 388.763495)"><g><path d="M 1.484375 -1.671875 C 1.484375 -2.203125 1.660156 -2.632812 2.015625 -2.96875 C 2.378906 -3.3125 2.835938 -3.484375 3.390625 -3.484375 C 3.941406 -3.484375 4.398438 -3.3125 4.765625 -2.96875 C 5.128906 -2.632812 5.3125 -2.203125 5.3125 -1.671875 C 5.3125 -1.140625 5.128906 -0.707031 4.765625 -0.375 C 4.410156 -0.0390625 3.953125 0.125 3.390625 0.125 C 2.835938 0.125 2.378906 -0.0390625 2.015625 -0.375 C 1.660156 -0.707031 1.484375 -1.140625 1.484375 -1.671875 Z M 1.484375 -1.671875 "/></g></g><g transform="translate(1170.570512, 388.763495)"><g><path d="M 7.140625 -6.671875 C 7.140625 -4.898438 6.882812 -3.195312 6.375 -1.5625 C 5.863281 0.0625 5.128906 1.5 4.171875 2.75 C 3.222656 4 2.207031 4.859375 1.125 5.328125 L 0.46875 3.546875 C 1.582031 2.703125 2.457031 1.410156 3.09375 -0.328125 C 3.738281 -2.066406 4.070312 -4.070312 4.09375 -6.34375 L 4.09375 -6.96875 C 4.09375 -9.300781 3.773438 -11.359375 3.140625 -13.140625 C 2.503906 -14.921875 1.613281 -16.253906 0.46875 -17.140625 L 1.125 -18.9375 C 2.1875 -18.476562 3.1875 -17.640625 4.125 -16.421875 C 5.070312 -15.210938 5.804688 -13.800781 6.328125 -12.1875 C 6.847656 -10.582031 7.117188 -8.921875 7.140625 -7.203125 Z M 7.140625 -6.671875 "/></g></g><g transform="translate(1179.031449, 388.763495)"><g/></g><g transform="translate(1185.008011, 388.763495)"><g><path d="M 14.921875 -5.6875 C 14.785156 -3.851562 14.101562 -2.40625 12.875 -1.34375 C 11.65625 -0.289062 10.046875 0.234375 8.046875 0.234375 C 5.859375 0.234375 4.140625 -0.5 2.890625 -1.96875 C 1.640625 -3.445312 1.015625 -5.472656 1.015625 -8.046875 L 1.015625 -9.078125 C 1.015625 -10.722656 1.300781 -12.171875 1.875 -13.421875 C 2.457031 -14.671875 3.285156 -15.628906 4.359375 -16.296875 C 5.429688 -16.960938 6.675781 -17.296875 8.09375 -17.296875 C 10.0625 -17.296875 11.644531 -16.769531 12.84375 -15.71875 C 14.050781 -14.664062 14.75 -13.1875 14.9375 -11.28125 L 11.421875 -11.28125 C 11.335938 -12.375 11.03125 -13.171875 10.5 -13.671875 C 9.976562 -14.171875 9.175781 -14.421875 8.09375 -14.421875 C 6.925781 -14.421875 6.050781 -14 5.46875 -13.15625 C 4.882812 -12.3125 4.585938 -11.007812 4.578125 -9.25 L 4.578125 -7.953125 C 4.578125 -6.109375 4.851562 -4.757812 5.40625 -3.90625 C 5.96875 -3.0625 6.847656 -2.640625 8.046875 -2.640625 C 9.140625 -2.640625 9.953125 -2.882812 10.484375 -3.375 C 11.015625 -3.875 11.320312 -4.644531 11.40625 -5.6875 Z M 14.921875 -5.6875 "/></g></g><g transform="translate(1200.711135, 388.763495)"><g><path d="M 4.609375 -11.296875 C 5.503906 -12.378906 6.632812 -12.921875 8 -12.921875 C 10.75 -12.921875 12.140625 -11.320312 12.171875 -8.125 L 12.171875 0 L 8.796875 0 L 8.796875 -8.03125 C 8.796875 -8.757812 8.640625 -9.296875 8.328125 -9.640625 C 8.015625 -9.984375 7.492188 -10.15625 6.765625 -10.15625 C 5.773438 -10.15625 5.054688 -9.773438 4.609375 -9.015625 L 4.609375 0 L 1.21875 0 L 1.21875 -18 L 4.609375 -18 Z M 4.609375 -11.296875 "/></g></g><g transform="translate(1214.140821, 388.763495)"><g><path d="M 7.140625 0.234375 C 5.273438 0.234375 3.757812 -0.332031 2.59375 -1.46875 C 1.425781 -2.613281 0.84375 -4.132812 0.84375 -6.03125 L 0.84375 -6.359375 C 0.84375 -7.640625 1.085938 -8.78125 1.578125 -9.78125 C 2.078125 -10.78125 2.773438 -11.550781 3.671875 -12.09375 C 4.578125 -12.644531 5.609375 -12.921875 6.765625 -12.921875 C 8.492188 -12.921875 9.859375 -12.375 10.859375 -11.28125 C 11.859375 -10.1875 12.359375 -8.632812 12.359375 -6.625 L 12.359375 -5.234375 L 4.28125 -5.234375 C 4.382812 -4.410156 4.710938 -3.75 5.265625 -3.25 C 5.816406 -2.75 6.515625 -2.5 7.359375 -2.5 C 8.660156 -2.5 9.679688 -2.972656 10.421875 -3.921875 L 12.078125 -2.046875 C 11.578125 -1.328125 10.890625 -0.765625 10.015625 -0.359375 C 9.148438 0.0351562 8.191406 0.234375 7.140625 0.234375 Z M 6.75 -10.171875 C 6.082031 -10.171875 5.535156 -9.941406 5.109375 -9.484375 C 4.691406 -9.035156 4.425781 -8.390625 4.3125 -7.546875 L 9.03125 -7.546875 L 9.03125 -7.8125 C 9.007812 -8.5625 8.800781 -9.140625 8.40625 -9.546875 C 8.019531 -9.960938 7.46875 -10.171875 6.75 -10.171875 Z M 6.75 -10.171875 "/></g></g><g transform="translate(1227.113476, 388.763495)"><g><path d="M 6.578125 -2.5 C 7.203125 -2.5 7.707031 -2.671875 8.09375 -3.015625 C 8.488281 -3.359375 8.691406 -3.816406 8.703125 -4.390625 L 11.890625 -4.390625 C 11.878906 -3.523438 11.640625 -2.734375 11.171875 -2.015625 C 10.710938 -1.304688 10.082031 -0.753906 9.28125 -0.359375 C 8.488281 0.0351562 7.609375 0.234375 6.640625 0.234375 C 4.828125 0.234375 3.394531 -0.335938 2.34375 -1.484375 C 1.300781 -2.640625 0.78125 -4.234375 0.78125 -6.265625 L 0.78125 -6.5 C 0.78125 -8.445312 1.296875 -10.003906 2.328125 -11.171875 C 3.367188 -12.335938 4.796875 -12.921875 6.609375 -12.921875 C 8.191406 -12.921875 9.460938 -12.46875 10.421875 -11.5625 C 11.378906 -10.65625 11.867188 -9.453125 11.890625 -7.953125 L 8.703125 -7.953125 C 8.691406 -8.609375 8.488281 -9.140625 8.09375 -9.546875 C 7.707031 -9.960938 7.191406 -10.171875 6.546875 -10.171875 C 5.765625 -10.171875 5.171875 -9.882812 4.765625 -9.3125 C 4.359375 -8.738281 4.15625 -7.804688 4.15625 -6.515625 L 4.15625 -6.171875 C 4.15625 -4.859375 4.351562 -3.914062 4.75 -3.34375 C 5.15625 -2.78125 5.765625 -2.5 6.578125 -2.5 Z M 6.578125 -2.5 "/></g></g><g transform="translate(1239.6291, 388.763495)"><g><path d="M 5.90625 -5.09375 L 4.6875 -3.875 L 4.6875 0 L 1.296875 0 L 1.296875 -18 L 4.6875 -18 L 4.6875 -8.03125 L 5.34375 -8.875 L 8.59375 -12.6875 L 12.65625 -12.6875 L 8.078125 -7.390625 L 13.0625 0 L 9.171875 0 Z M 5.90625 -5.09375 "/></g></g><g transform="translate(1252.449412, 388.763495)"><g/></g><g transform="translate(1258.425974, 388.763495)"><g><path d="M 4.875 0 L 1.484375 0 L 1.484375 -12.6875 L 4.875 -12.6875 Z M 1.28125 -15.96875 C 1.28125 -16.46875 1.445312 -16.878906 1.78125 -17.203125 C 2.125 -17.535156 2.585938 -17.703125 3.171875 -17.703125 C 3.753906 -17.703125 4.21875 -17.535156 4.5625 -17.203125 C 4.90625 -16.878906 5.078125 -16.46875 5.078125 -15.96875 C 5.078125 -15.445312 4.898438 -15.019531 4.546875 -14.6875 C 4.203125 -14.363281 3.742188 -14.203125 3.171875 -14.203125 C 2.609375 -14.203125 2.148438 -14.363281 1.796875 -14.6875 C 1.453125 -15.019531 1.28125 -15.445312 1.28125 -15.96875 Z M 1.28125 -15.96875 "/></g></g><g transform="translate(1264.789255, 388.763495)"><g><path d="M 5.359375 -15.796875 L 5.359375 -12.6875 L 7.53125 -12.6875 L 7.53125 -10.203125 L 5.359375 -10.203125 L 5.359375 -3.875 C 5.359375 -3.40625 5.445312 -3.066406 5.625 -2.859375 C 5.800781 -2.660156 6.144531 -2.5625 6.65625 -2.5625 C 7.03125 -2.5625 7.363281 -2.585938 7.65625 -2.640625 L 7.65625 -0.078125 C 6.988281 0.128906 6.304688 0.234375 5.609375 0.234375 C 3.234375 0.234375 2.019531 -0.960938 1.96875 -3.359375 L 1.96875 -10.203125 L 0.125 -10.203125 L 0.125 -12.6875 L 1.96875 -12.6875 L 1.96875 -15.796875 Z M 5.359375 -15.796875 "/></g></g><g transform="translate(1272.898629, 388.763495)"><g/></g><g transform="translate(1278.875191, 388.763495)"><g><path d="M 0.78125 -6.453125 C 0.78125 -7.710938 1.019531 -8.832031 1.5 -9.8125 C 1.988281 -10.800781 2.6875 -11.566406 3.59375 -12.109375 C 4.5 -12.648438 5.554688 -12.921875 6.765625 -12.921875 C 8.472656 -12.921875 9.867188 -12.394531 10.953125 -11.34375 C 12.035156 -10.300781 12.640625 -8.878906 12.765625 -7.078125 L 12.78125 -6.21875 C 12.78125 -4.269531 12.238281 -2.707031 11.15625 -1.53125 C 10.070312 -0.351562 8.613281 0.234375 6.78125 0.234375 C 4.957031 0.234375 3.5 -0.347656 2.40625 -1.515625 C 1.320312 -2.691406 0.78125 -4.289062 0.78125 -6.3125 Z M 4.15625 -6.21875 C 4.15625 -5.007812 4.378906 -4.085938 4.828125 -3.453125 C 5.285156 -2.816406 5.9375 -2.5 6.78125 -2.5 C 7.601562 -2.5 8.242188 -2.8125 8.703125 -3.4375 C 9.171875 -4.070312 9.40625 -5.078125 9.40625 -6.453125 C 9.40625 -7.640625 9.171875 -8.554688 8.703125 -9.203125 C 8.242188 -9.847656 7.597656 -10.171875 6.765625 -10.171875 C 5.929688 -10.171875 5.285156 -9.847656 4.828125 -9.203125 C 4.378906 -8.554688 4.15625 -7.5625 4.15625 -6.21875 Z M 4.15625 -6.21875 "/></g></g><g transform="translate(1292.445503, 388.763495)"><g><path d="M 8.890625 -1.296875 C 8.054688 -0.273438 6.898438 0.234375 5.421875 0.234375 C 4.066406 0.234375 3.03125 -0.15625 2.3125 -0.9375 C 1.601562 -1.71875 1.238281 -2.863281 1.21875 -4.375 L 1.21875 -12.6875 L 4.609375 -12.6875 L 4.609375 -4.484375 C 4.609375 -3.171875 5.207031 -2.515625 6.40625 -2.515625 C 7.5625 -2.515625 8.351562 -2.910156 8.78125 -3.703125 L 8.78125 -12.6875 L 12.171875 -12.6875 L 12.171875 0 L 8.984375 0 Z M 8.890625 -1.296875 "/></g></g><g transform="translate(1305.875189, 388.763495)"><g><path d="M 5.359375 -15.796875 L 5.359375 -12.6875 L 7.53125 -12.6875 L 7.53125 -10.203125 L 5.359375 -10.203125 L 5.359375 -3.875 C 5.359375 -3.40625 5.445312 -3.066406 5.625 -2.859375 C 5.800781 -2.660156 6.144531 -2.5625 6.65625 -2.5625 C 7.03125 -2.5625 7.363281 -2.585938 7.65625 -2.640625 L 7.65625 -0.078125 C 6.988281 0.128906 6.304688 0.234375 5.609375 0.234375 C 3.234375 0.234375 2.019531 -0.960938 1.96875 -3.359375 L 1.96875 -10.203125 L 0.125 -10.203125 L 0.125 -12.6875 L 1.96875 -12.6875 L 1.96875 -15.796875 Z M 5.359375 -15.796875 "/></g></g></g><g clip-path="url(#1c873d5d1f)"><path fill="#ffffff" d="M 976.519531 233.664062 L 993.902344 251.085938 L 976.519531 268.511719 L 981.871094 273.863281 L 1004.644531 251.085938 L 981.871094 228.3125 Z M 976.519531 233.664062 " fill-opacity="1" fill-rule="nonzero"/></g></svg>